<svg width="320" height="240" viewBox="0 0 320 240" fill="none" xmlns="http://www.w3.org/2000/svg">
<g clip-path="url(#clip0_4050_110317)">
<path d="M219.061 97.0621C221.019 95.1041 219.876 91.8409 219.061 90.6987C218.571 89.7197 232.277 75.0348 231.298 83.3562C230.515 90.0134 231.624 92.983 232.277 93.6356C233.582 94.6146 236.291 96.9642 236.682 98.5306C237.172 100.489 221.508 102.936 219.55 101.468C217.592 99.9991 216.613 99.5096 219.061 97.0621Z" fill="white"/>
<path d="M236.255 97.8383C246.678 96.7476 269.34 97.1839 276.612 107.655C283.883 118.126 292.972 145.224 296.608 157.464C297.456 166.068 294.818 179.237 276.612 180.005C264.795 180.504 260.662 180.434 254.372 180.443L232.256 180.879L202.807 181.46L196.262 158.555C196.141 165.947 193.281 180.151 182.81 177.824C169.722 174.915 163.817 162.496 158.364 133.774L182.578 125.106L176.034 113.835C177.852 107.655 185.064 96.384 199.898 96.384C214.732 96.384 218.44 97.3535 218.44 97.8383C219.652 100.747 224.912 104.819 236.255 97.8383Z" fill="#006689"/>
<path d="M276.612 180.005C294.818 179.237 297.456 166.068 296.608 157.464C292.972 145.224 283.883 118.126 276.612 107.655C269.34 97.1839 246.678 96.7476 236.255 97.8383C224.912 104.819 219.652 100.747 218.44 97.8383C218.44 97.3535 214.732 96.384 199.898 96.384C185.064 96.384 177.852 107.655 176.034 113.835L182.578 125.106L158.364 133.774C163.817 162.496 169.722 174.915 182.81 177.824C193.281 180.151 196.141 165.947 196.262 158.555L202.807 181.46L276.612 180.005ZM276.612 180.005C255.888 180.879 258.797 180.005 232.256 180.879C238.437 172.734 241.709 159.427 241.709 152.737" stroke="#191C1E" stroke-width="0.727141" stroke-linecap="round"/>
<path d="M302.423 273.7C301.26 269.919 278.429 191.276 275.157 180.369H205.715L185.533 270.906L234.431 262.058L244.211 235.047L250.731 262.058L302.423 273.7Z" fill="white"/>
<path d="M234.235 194.472L233.795 198.828C233.497 201.778 233.605 204.755 234.116 207.675V207.675C235.271 214.274 238.441 220.353 243.192 225.076L306.614 288.137C305.45 284.356 278.428 191.276 275.156 180.369H205.714L185.998 270.906" stroke="#191C1E" stroke-width="0.75" stroke-linecap="round"/>
<path d="M203.534 168.007C205.958 167.886 211.46 167.426 214.077 166.553M205.715 172.37C207.654 172.249 212.187 171.716 214.805 170.552" stroke="#191C1E" stroke-width="0.727141" stroke-linecap="round"/>
<path d="M169.62 108.81C175.437 111.137 178.92 117.621 183.326 125.943L158.812 134.923L156.631 128.742C150.45 127.409 139.058 123.772 137.313 122.027C136.14 120.853 133.659 117.819 133.887 116.153C133.998 115.34 135.316 116.259 135.355 115.663C134.346 115.086 132.931 113.991 132.908 113.216C132.884 112.426 134.267 111.96 134.817 111.654C131.908 108.018 135.908 107.655 138.089 108.382C137.483 107.17 138.016 104.601 140.634 105.473C143.252 106.346 148.875 109.109 151.905 110.2C152.995 110.806 155.177 111.654 155.177 110.2C155.177 108.745 151.541 105.958 149.723 104.746C149.844 103.777 147.593 102.536 150.53 101.468C152.002 100.932 157.116 102.95 158.812 104.405C160.024 104.647 163.803 106.483 169.62 108.81Z" fill="white"/>
<path d="M138.091 108.382C137.485 107.17 137.364 104.746 140.272 105.473C142.949 106.143 148.877 109.109 151.907 110.2C152.997 110.806 155.179 111.654 155.179 110.2C155.179 108.746 151.18 106.201 149.725 104.746C148.271 103.292 149.063 101.468 150.531 101.468C151.878 101.468 154.026 102.144 155.884 103.001C157.92 103.941 159.976 104.966 162.093 105.707C163.387 106.16 165.153 106.827 167.664 107.831C169.928 108.737 174.14 111.362 176.034 113.836M138.091 108.382C141.363 110.2 148.707 113.836 151.907 113.836M138.091 108.382C135.91 107.17 131.547 108.382 134.819 111.654M134.819 111.654C135.91 111.654 136.825 112.237 139.273 113.216C141.434 114.08 148.084 116.381 150.816 116.744M134.819 111.654C133.496 111.654 132.783 114.01 134.819 115.174C137.364 116.628 138.686 116.923 141.231 118.111M141.231 118.111C146.789 120.705 149.571 120.679 151.51 120.558M141.231 118.111C141.231 118.111 134.32 114.65 133.859 116.381C133.399 118.111 135.938 121.108 137.315 122.027C144.657 126.922 150.452 127.409 156.633 128.742L158.814 134.923" stroke="#191C1E" stroke-width="0.727141" stroke-linecap="round"/>
<path d="M211.682 89.5585C206.77 87.2473 208.865 76.8537 210.556 71.8447C210.58 71.776 210.592 71.7004 210.595 71.6279C211.394 47.8169 234.952 69.2085 236.404 75.3792C237.568 80.3238 233.496 82.5294 231.314 83.0142C230.959 85.856 230.965 88.2003 231.133 90.2856C231.336 91.9589 231.753 93.2691 232.405 93.9213C233.859 95.3756 235.677 96.9511 236.404 97.557C235.824 97.8299 230.587 101.786 224.389 101.838C221.274 101.864 217.862 99.2926 217.862 97.557C217.862 97.557 219.27 96.6398 219.654 95.1836C219.663 95.148 219.672 95.1123 219.68 95.0764C219.818 94.4619 219.826 93.7782 219.761 93.1414C219.647 92.2368 219.341 91.3969 218.953 90.8117C216.651 90.9451 214.062 90.6789 211.682 89.5585Z" fill="white"/>
<path d="M211.682 89.5585C206.77 87.2473 208.865 76.8537 210.556 71.8447C210.58 71.776 210.592 71.7004 210.595 71.6279C211.394 47.8169 234.952 69.2085 236.404 75.3792C237.568 80.3238 233.496 82.5294 231.314 83.0142C229.86 85.5463 225.352 90.6508 218.953 90.8117C216.651 90.9451 214.062 90.6789 211.682 89.5585Z" fill="white"/>
<path d="M231.314 83.0142C231.072 86.044 230.951 92.467 232.405 93.9213C233.859 95.3756 235.677 96.9511 236.404 97.557M231.314 83.0142C233.496 82.5294 237.568 80.3238 236.404 75.3792C234.952 69.2085 211.394 47.8169 210.595 71.6279C210.592 71.7004 210.58 71.776 210.556 71.8447C208.865 76.8537 206.77 87.2473 211.682 89.5585C214.062 90.6789 216.651 90.9451 218.953 90.8117M231.314 83.0142C229.86 85.5463 225.352 90.6508 218.953 90.8117M218.953 90.8117C220.044 92.4542 220.48 96.1027 217.862 97.557M233.859 77.9243C232.769 78.409 230.587 79.6694 230.587 80.8328" stroke="#191C1E" stroke-width="0.727141" stroke-linecap="round"/>
<path d="M207.318 57.928C203.871 62.9665 207.213 68.1863 209.851 70.7218C210.205 71.0623 210.778 70.9173 210.973 70.4666C211.609 69.0027 212.697 66.7012 213.862 64.8359C215.317 62.509 222.588 64.8359 225.86 67.0173C229.132 69.1987 228.951 70.2894 227.678 72.8344C226.951 74.2887 227.871 77.9787 230.587 76.4701C233.512 74.845 234.791 74.5759 235.981 74.8834C236.245 74.9514 236.532 74.902 236.716 74.7023C238.325 72.9646 240.766 68.4671 239.676 61.9273C238.528 55.0416 230.447 54.1934 226.389 54.6369C226.279 54.649 226.169 54.6368 226.064 54.6L219.014 52.1326C218.973 52.1182 218.933 52.1076 218.889 52.1013C216.55 51.7595 211.065 52.4516 207.318 57.928Z" fill="#191C1E"/>
<path d="M191.884 152.447C191.776 151.939 192.1 151.44 192.608 151.332L216.885 146.172C217.423 146.058 217.944 146.427 218.013 146.973L222.764 184.39C222.826 184.875 222.505 185.326 222.027 185.427L200.813 189.936C200.306 190.044 199.807 189.72 199.699 189.213L191.884 152.447Z" fill="#71787D"/>
<path d="M194.096 162.654L219.118 156.635L221.508 174.402L197.522 178.808L194.096 162.654Z" fill="white"/>
<rect x="187.733" y="143.668" width="31.1049" height="12.2304" rx="2.81904" transform="rotate(-12 187.733 143.668)" fill="#151C21"/>
<path d="M214.655 150.907C220.441 149.133 234.341 150.752 241.732 152.558C241.955 162.698 236.335 175.113 232.889 180.14C219.621 180.14 216.035 182.291 206.859 181.801C201.683 181.525 200.535 178.693 208.578 177.505C207.319 177.579 205.8 177.632 203.989 177.63C197.691 177.622 199.54 173.685 203.989 172.609C198.762 173.309 195.237 168.833 203.126 167.589C199.179 168.212 194.52 165.796 197.748 163.645C200.975 161.493 217.058 159.019 218.223 157.021C219.389 155.024 209.035 157.748 207.929 155.551C206.823 153.354 209.271 152.558 214.655 150.907Z" fill="white"/>
<path d="M210.04 177.565C212.197 177.424 213.678 177.297 213.678 177.297C212.323 177.355 211.114 177.447 210.04 177.565Z" fill="white"/>
<path d="M242.344 152.296C234.801 150.453 222.962 148.933 215.634 150.417C209.581 151.643 206.046 153.861 207.953 155.671C209.86 157.482 219.542 154.812 218.353 156.851C217.164 158.889 199.838 161.628 197.457 163.61C195.075 165.592 198.918 168.271 202.946 167.635M202.946 167.635C195.075 168.877 198.492 173.472 203.827 172.759M202.946 167.635C204.799 167.397 209.196 166.755 211.96 166.097M203.827 172.759C199.286 173.856 197.403 178.097 203.827 177.882C208.781 177.716 213.678 177.297 213.678 177.297M203.827 172.759C206.367 172.403 211.893 171.56 213.678 171.033M213.678 177.297C200.018 177.882 201.111 181.904 207.313 182.235C216.678 182.735 219.779 180.443 233.319 180.443M213.678 177.297C213.873 177.293 216.049 176.486 217.102 175.828" stroke="#191C1E" stroke-width="0.742058" stroke-linecap="round" stroke-linejoin="round"/>
<path d="M2.7818 244.389C2.7818 232.411 12.4917 222.701 24.4695 222.701H295.094C307.072 222.701 316.782 232.411 316.782 244.389H2.7818Z" fill="white" stroke="#191C1E" stroke-width="0.848649"/>
<path d="M147.96 229.284L135.758 235.886H168.789L191.322 229.284H147.96Z" fill="#454749"/>
<path d="M144.782 183.81C145.169 182.038 146.737 180.774 148.551 180.774H179.713C182.175 180.774 184.007 183.049 183.482 185.454L173.067 233.193C172.681 234.965 171.112 236.228 169.298 236.228H138.136C135.675 236.228 133.843 233.954 134.367 231.548L144.782 183.81Z" fill="#006689"/>
<path d="M144.315 204.618C144.629 203.272 145.839 202.328 147.221 202.349L171.519 202.722C173.405 202.751 174.775 204.525 174.327 206.357L168.679 229.443C168.357 230.758 167.179 231.682 165.826 231.682H141.702C139.81 231.682 138.412 229.92 138.841 228.078L144.315 204.618Z" fill="white"/>
<path d="M147.996 209.894C148.126 209.331 148.631 208.936 149.208 208.945L153.164 209.006C153.948 209.018 154.518 209.755 154.334 210.517L153.41 214.347C153.277 214.896 152.785 215.284 152.22 215.284H148.293C147.506 215.284 146.924 214.552 147.1 213.785L147.996 209.894Z" fill="white" stroke="#006689" stroke-width="1.46849"/>
<path d="M146.038 219.683C146.168 219.121 146.673 218.725 147.25 218.734L151.206 218.796C151.99 218.808 152.56 219.545 152.376 220.307L151.452 224.137C151.319 224.686 150.827 225.073 150.262 225.073H146.335C145.548 225.073 144.966 224.342 145.142 223.575L146.038 219.683Z" fill="white" stroke="#006689" stroke-width="1.46849"/>
<path d="M155.496 218.688C155.531 218.56 155.649 218.471 155.783 218.473L156.546 218.483C156.74 218.485 156.878 218.672 156.824 218.858L156.716 219.232C156.68 219.358 156.565 219.444 156.434 219.444H155.673C155.479 219.444 155.338 219.259 155.39 219.072L155.496 218.688Z" fill="white" stroke="#006689" stroke-width="0.978993"/>
<path d="M155.496 222.605C155.531 222.476 155.649 222.388 155.783 222.389L156.546 222.399C156.74 222.402 156.878 222.588 156.824 222.775L156.716 223.149C156.68 223.274 156.565 223.361 156.434 223.361H155.673C155.479 223.361 155.338 223.176 155.39 222.989L155.496 222.605Z" fill="white" stroke="#006689" stroke-width="0.978993"/>
<path d="M157.453 220.647C157.488 220.518 157.606 220.429 157.74 220.431L158.503 220.441C158.697 220.444 158.836 220.63 158.782 220.816L158.673 221.19C158.637 221.316 158.522 221.402 158.391 221.402H157.63C157.436 221.402 157.295 221.217 157.347 221.03L157.453 220.647Z" fill="white" stroke="#006689" stroke-width="0.978993"/>
<path d="M157.453 224.563C157.488 224.434 157.606 224.346 157.74 224.348L158.503 224.358C158.697 224.36 158.836 224.547 158.782 224.733L158.673 225.107C158.637 225.232 158.522 225.319 158.391 225.319H157.63C157.436 225.319 157.295 225.134 157.347 224.947L157.453 224.563Z" fill="white" stroke="#006689" stroke-width="0.978993"/>
<path d="M159.411 218.688C159.446 218.56 159.564 218.471 159.698 218.473L160.461 218.483C160.655 218.485 160.793 218.672 160.739 218.858L160.631 219.232C160.595 219.358 160.48 219.444 160.349 219.444H159.588C159.394 219.444 159.253 219.259 159.305 219.072L159.411 218.688Z" fill="white" stroke="#006689" stroke-width="0.978993"/>
<path d="M159.411 222.605C159.446 222.476 159.564 222.388 159.698 222.389L160.461 222.399C160.655 222.402 160.793 222.588 160.739 222.775L160.631 223.149C160.595 223.274 160.48 223.361 160.349 223.361H159.588C159.394 223.361 159.253 223.176 159.305 222.989L159.411 222.605Z" fill="white" stroke="#006689" stroke-width="0.978993"/>
<path d="M161.371 220.647C161.406 220.518 161.524 220.429 161.658 220.431L162.421 220.441C162.615 220.444 162.753 220.63 162.699 220.816L162.591 221.19C162.555 221.316 162.44 221.402 162.309 221.402H161.548C161.354 221.402 161.213 221.217 161.265 221.03L161.371 220.647Z" fill="white" stroke="#006689" stroke-width="0.978993"/>
<path d="M161.371 224.563C161.406 224.434 161.524 224.346 161.658 224.348L162.421 224.358C162.615 224.36 162.753 224.547 162.699 224.733L162.591 225.107C162.555 225.232 162.44 225.319 162.309 225.319H161.548C161.354 225.319 161.213 225.134 161.265 224.947L161.371 224.563Z" fill="white" stroke="#006689" stroke-width="0.978993"/>
<path d="M158.765 209.894C158.894 209.331 159.399 208.936 159.976 208.945L163.932 209.006C164.716 209.018 165.287 209.755 165.103 210.517L164.178 214.347C164.045 214.896 163.554 215.283 162.989 215.283H159.061C158.274 215.283 157.692 214.552 157.868 213.785L158.765 209.894Z" fill="white" stroke="#006689" stroke-width="1.46849"/>
<path d="M147.749 194.605C148.127 194.186 148.668 193.951 149.233 193.961L171.438 194.322C173.12 194.35 173.987 196.345 172.859 197.593C172.48 198.012 171.939 198.247 171.375 198.238L149.169 197.876C147.487 197.849 146.62 195.853 147.749 194.605Z" fill="white"/>
<path d="M153.138 187.632C153.501 187.045 154.146 186.693 154.835 186.704L168.968 186.934C170.487 186.959 171.4 188.631 170.601 189.923C170.238 190.509 169.593 190.861 168.904 190.85L154.771 190.62C153.252 190.595 152.338 188.924 153.138 187.632Z" fill="white"/>
<g clip-path="url(#clip1_4050_110317)">
<path d="M23.8468 155.024C24.3289 138.152 41.6318 132.997 51.2586 132.508L85.0338 134.466L120.767 156.982L127.62 193.205L96.7817 180.968H91.3973C91.2341 185.863 91.0057 197.219 91.3973 203.485C91.7889 209.75 102.656 263.53 108.04 288.657L21.3992 290.126C24.8257 217.68 32.6577 211.806 39.0211 202.506C34.4525 193.695 23.3572 172.157 23.8468 155.024Z" fill="white"/>
<path d="M22.6613 287.292C22.6714 283.12 22.58 279.015 22.8314 274.791C22.9769 272.359 23.0869 269.925 23.1614 267.49C23.2858 263.514 23.5244 259.831 23.7224 256C23.8104 254.277 23.9348 252.59 24.0956 250.938C24.4612 247.173 24.748 243.403 25.3218 239.674C25.579 238.01 25.8371 236.347 26.0961 234.685C27.0235 228.723 28.5044 222.903 30.5388 217.227C32.3057 212.297 34.819 207.285 38.4797 203.482C38.5982 203.359 38.7023 203.217 38.792 203.058C38.8326 202.989 38.8842 202.98 38.9468 203.03C39.1736 203.22 39.3378 203.393 39.4393 203.551C43.1458 209.253 50.0281 217.623 57.7914 214.48C62.0564 212.754 65.8872 209.128 68.6848 205.518C68.7627 205.419 68.7669 205.315 68.6975 205.209L68.6569 205.145C68.649 205.133 68.6385 205.122 68.626 205.115C68.6136 205.107 68.5995 205.102 68.585 205.1C68.5704 205.098 68.5556 205.1 68.5417 205.105C68.5278 205.109 68.5151 205.117 68.5046 205.127C67.9884 205.627 67.5416 206.093 67.1642 206.526C64.5265 209.547 60.9444 212.888 57.1085 214.183C50.9217 216.275 45.2301 210.682 41.912 206.148C40.4007 204.083 39.4681 202.759 39.1144 202.175C37.1478 198.925 35.8023 196.516 35.0779 194.947C33.7426 192.051 32.3615 189.164 31.1988 186.222C29.6604 182.335 28.1524 178.382 27.0252 174.346C25.7762 169.878 24.7582 165.179 24.4129 160.558C24.1862 157.539 24.1895 154.912 24.4231 152.678C25.1415 145.824 28.2565 139.878 34.9256 137.322" stroke="#191C1E" stroke-width="0.507734"/>
<path d="M34.9274 137.322C41.2369 152.774 47.5463 168.174 53.8558 183.523C53.9607 183.775 53.9252 184.051 53.7491 184.348" stroke="#8BB3C4" stroke-width="0.507734"/>
<path d="M53.7484 184.348C52.3369 186.49 51.2198 189.014 49.9784 191.608C49.9057 191.762 49.9158 191.91 50.0089 192.05L50.0521 192.116C50.0631 192.133 50.0786 192.148 50.097 192.157C50.1154 192.167 50.1359 192.171 50.1566 192.17C50.1772 192.169 50.1972 192.163 50.2146 192.151C50.2319 192.14 50.2459 192.124 50.2552 192.106C51.3129 190.06 52.1888 188.386 52.8827 187.084C53.3379 186.23 53.7027 185.346 53.9768 184.434" stroke="#757779" stroke-width="0.507734"/>
<path d="M53.9761 184.434C54.0438 184.206 54.1471 183.998 54.2859 183.81C55.4299 182.272 56.5715 180.731 57.7105 179.187C59.2642 177.082 60.9499 175.105 62.6102 173.097C65.4078 169.719 68.4753 166.615 71.8128 163.785C74.25 161.721 77.1212 159.774 80.1854 158.804C81.0858 158.52 82.2967 158.232 83.8182 157.941C87 157.332 90.181 157.173 93.3611 157.466" stroke="#8BB3C4" stroke-width="0.507734"/>
<path d="M93.3605 157.466C96.6828 157.99 98.9642 158.447 100.205 158.834C101.413 159.212 105.407 160.687 104.409 162.566C103.934 163.46 102.586 163.477 101.665 163.465C100.353 163.444 99.0412 163.425 97.7296 163.406C97.3471 163.4 96.9841 163.499 96.6405 163.703" stroke="#757779" stroke-width="0.507734"/>
<path d="M96.6419 163.703L93.4559 164.117C93.1055 164.163 93.0979 164.242 93.433 164.356C95.2786 164.978 97.7031 164.409 97.995 167.131C98.1016 168.126 97.5584 168.826 96.7409 169.296C96.6664 169.338 96.6385 169.401 96.6571 169.484C97.1877 171.959 96.3093 173.429 93.7199 173.721C93.7004 173.723 93.6816 173.729 93.6646 173.739C93.6476 173.749 93.6327 173.762 93.6211 173.778C93.6094 173.793 93.6011 173.811 93.5967 173.83C93.5923 173.849 93.5919 173.869 93.5955 173.889C94.0093 176.018 93.3949 178.138 91.0162 178.562C89.8027 178.781 88.5884 178.998 87.3732 179.215C86.3628 179.395 85.4007 179.339 84.3776 179.319C84.2879 179.317 84.2244 179.357 84.1872 179.438C81.0206 186.289 77.3421 192.852 73.1516 199.128C72.3206 200.375 71.4371 201.6 70.5012 202.801C70.2439 203.13 70.3243 203.296 70.7424 203.299L90.7446 203.441" stroke="#8BB3C4" stroke-width="0.507734"/>
<path d="M90.7449 203.441C90.7753 203.858 90.8286 204.262 90.9048 204.655C92.6057 213.281 94.464 221.875 96.2411 230.483C99.8934 248.193 103.559 265.899 107.239 283.602C107.479 284.763 107.691 285.919 107.876 287.07C107.889 287.146 107.934 287.185 108.01 287.187L108.335 287.192C108.43 287.194 108.468 287.147 108.45 287.052C106.876 279.553 105.312 272.04 103.758 264.512C99.6878 244.771 95.6107 225.031 91.5268 205.292C91.3795 204.584 91.3135 204.007 91.3288 203.561" stroke="#757779" stroke-width="0.507734"/>
<path d="M91.3289 203.561C91.7063 203.253 91.9128 202.793 91.9484 202.183C92.2615 196.858 92.5813 191.534 92.908 186.212C92.9266 185.921 92.9994 185.732 93.1263 185.646C94.553 184.664 95.731 183.443 96.6601 181.982C96.7566 181.833 96.8911 181.777 97.0511 181.728" stroke="#8BB3C4" stroke-width="0.507734"/>
<path d="M129.078 193.627C129.112 193.495 129.196 193.442 129.332 193.467C131.964 193.98 134.467 193.807 137.397 193.307C141.51 192.607 146.163 190.629 146.699 185.894C147.245 181.076 143.343 175.666 139.86 172.731C139.583 172.498 139.07 172.414 139.187 171.868C139.405 170.859 139.71 169.577 140.101 168.022C140.46 166.589 140.608 165.526 140.545 164.834C140.37 162.891 139.227 161.127 137.623 160.005C137.391 159.844 137.313 159.628 137.389 159.355" stroke="#757779" stroke-width="0.507734"/>
<path d="M97.4087 181.414C97.2733 181.322 97.2471 181.199 97.33 181.043C99.4337 177.116 99.9203 173.017 98.7897 168.746C98.5866 167.977 98.0738 166.387 97.2513 163.975" stroke="#8BB3C4" stroke-width="0.507734"/>
<path d="M97.2506 163.975C98.5453 163.911 99.8239 163.91 101.087 163.973C101.955 164.016 104.252 163.978 104.722 163.089C106.22 160.248 101.772 158.74 99.9466 158.23C98.7027 157.883 96.9781 157.533 94.7728 157.179" stroke="#757779" stroke-width="0.507734"/>
<path d="M94.7731 157.18C94.0335 154.934 93.2347 152.767 92.3766 150.678C90.4692 146.029 88.5449 141.387 86.6037 136.753C86.3126 136.056 86.2034 135.548 86.2762 135.228" stroke="#8BB3C4" stroke-width="0.507734"/>
<path d="M86.277 135.227C86.8 135.61 87.2595 135.937 87.6555 136.21C90.2636 137.995 92.8708 139.782 95.4771 141.569C99.5864 144.385 103.689 147.213 107.785 150.051C108.081 150.257 108.335 150.48 108.546 150.718C108.576 150.753 108.614 150.779 108.657 150.793C108.7 150.808 108.747 150.811 108.791 150.802C108.836 150.793 108.878 150.772 108.912 150.742C108.947 150.712 108.973 150.673 108.988 150.63C110.133 147.235 109.996 143.719 113.423 141.569C113.663 141.418 113.735 141.21 113.639 140.945C112.309 137.329 109.272 134.834 105.419 134.349C104.616 134.248 103.81 134.171 102.999 134.121C100.572 133.968 100.455 131.295 101.524 129.691C102.283 128.551 103.687 127.459 104.37 126.606C107.29 122.961 106.17 117.36 101.743 115.55C99.1557 114.492 96.4266 114.108 93.9489 112.781C89.491 110.392 89.9301 103.728 90.1282 99.4931C90.6435 88.4346 79.9989 80.8821 69.6233 85.6091C69.4666 85.681 69.2883 85.6919 69.1232 85.6396C57.8845 82.0347 47.3896 91.4785 50.2964 103.052C51.0681 106.122 53.8404 109.224 51.2433 112.225C50.5782 112.996 49.9054 113.761 49.2251 114.52C47.0012 117.002 48.3848 119.328 49.352 121.904C50.337 124.519 48.7732 126.098 47.9202 128.119C47.2601 129.678 47.4353 131.115 47.5546 132.808" stroke="#757779" stroke-width="0.507734"/>
<path d="M47.554 132.808L47.5058 132.874C47.4669 132.927 47.4161 132.962 47.3535 132.981L34.886 136.807" stroke="#8BB3C4" stroke-width="0.507734"/>
<path d="M34.8862 136.807C28.6766 138.876 25.3408 144.451 24.1984 150.546C23.9733 151.753 23.8429 153.436 23.8074 155.595C23.7617 158.28 23.7837 160.027 23.8734 160.838C24.9549 170.622 27.7576 179.418 31.5656 188.507C32.185 189.982 32.9948 191.578 33.6955 193.124C35.1654 196.359 36.7013 199.194 38.5266 202.124C38.6037 202.249 38.6341 202.397 38.6122 202.541C38.5904 202.686 38.5177 202.818 38.4073 202.914C37.5112 203.685 36.7242 204.556 36.0083 205.574C30.9284 212.781 28.2602 221.238 26.473 229.788C25.8282 232.87 25.3027 236.604 24.7467 240.014C24.112 243.928 23.9293 247.856 23.4926 251.846C23.155 254.956 23.1423 258.084 22.9087 261.199C22.6904 264.144 22.7107 267.317 22.4746 270.384C22.307 272.549 22.2131 274.238 22.1928 275.454C22.1285 279.399 22.0989 283.345 22.104 287.291" stroke="#757779" stroke-width="0.507734"/>
<path d="M96.0088 169.271L96.1205 168.796C96.1217 168.792 96.122 168.788 96.1214 168.784C96.1209 168.78 96.1195 168.776 96.1174 168.772C96.1152 168.769 96.1124 168.766 96.109 168.763C96.1056 168.761 96.1018 168.759 96.0977 168.758L91.9724 167.791C91.9632 167.789 91.9531 167.791 91.9426 167.799C91.932 167.806 91.9212 167.817 91.9108 167.833C91.9005 167.848 91.8907 167.867 91.8821 167.888C91.8735 167.909 91.8662 167.932 91.8606 167.956L91.82 168.129C91.8091 168.176 91.8056 168.222 91.8104 168.259C91.8151 168.295 91.8277 168.319 91.8454 168.324L95.9733 169.294C95.981 169.295 95.989 169.294 95.9957 169.29C96.0023 169.285 96.007 169.279 96.0088 169.271Z" stroke="#757779" stroke-width="0.507734"/>
<path d="M92.7275 173.721C92.745 173.73 92.7642 173.735 92.7838 173.736C92.8034 173.737 92.8228 173.734 92.8409 173.726C92.8589 173.719 92.8751 173.708 92.8884 173.694C92.9017 173.68 92.9118 173.663 92.9179 173.645L92.9408 173.582C93.0017 173.413 92.9526 173.286 92.7935 173.203C91.712 172.633 90.5629 172.406 89.346 172.521C89.2868 172.526 89.2478 172.556 89.2292 172.612C89.2123 172.666 89.2301 172.715 89.2825 172.759C89.3418 172.81 89.4112 172.838 89.4907 172.843C90.6331 172.914 91.712 173.207 92.7275 173.721Z" stroke="#757779" stroke-width="0.507734"/>
<path d="M86.276 135.228C85.9866 134.652 85.4848 134.257 84.7706 134.042C84.4304 133.94 83.7763 133.795 82.8082 133.605C79.2168 132.905 75.6229 132.212 72.0264 131.526C71.8521 131.494 71.4569 131.463 70.8409 131.432" stroke="#0C3345" stroke-width="0.507734"/>
<path d="M70.84 131.432C70.5329 130.97 69.9769 130.244 69.492 130.343C69.3798 130.365 69.2771 130.41 69.1943 130.474C69.1115 130.538 69.0513 130.618 69.0198 130.706L68.1897 133.008C68.1663 133.072 68.1303 133.131 68.0836 133.182C68.037 133.232 67.9807 133.272 67.918 133.3L67.8063 133.348C67.7799 133.36 67.7507 133.364 67.7222 133.359C67.6937 133.355 67.6671 133.342 67.6457 133.323C67.6242 133.303 67.6088 133.278 67.6013 133.25C67.5937 133.223 67.5944 133.193 67.6032 133.166L70.7385 123.699C70.813 123.472 70.7351 123.331 70.505 123.275C65.9836 122.188 63.2012 118.736 61.7592 114.522C61.4698 113.674 61.1982 112.821 60.9443 111.963C60.7463 111.29 59.7816 111.018 59.1977 110.764C59.1148 110.729 59.0665 110.755 59.053 110.843C58.9007 111.795 58.5021 112.892 58.3092 113.572C56.7504 119.12 55.1798 124.665 53.5974 130.208C53.4891 130.589 53.352 130.96 53.1861 131.322C53.1506 131.4 53.0947 131.457 53.0186 131.493L51.8152 132.069" stroke="#757779" stroke-width="0.507734"/>
<path d="M51.816 132.069L47.5535 132.808" stroke="#0C3345" stroke-width="0.507734"/>
<path d="M68.7617 98.569C68.7617 98.5538 68.76 98.5318 68.7566 98.503C68.7551 98.4815 68.7464 98.4655 68.7325 98.4585C68.7185 98.4516 68.7005 98.4543 68.6823 98.4661C68.6641 98.4779 68.6473 98.4978 68.6355 98.5214C68.6237 98.5449 68.618 98.5703 68.6195 98.5919C68.7159 100.14 68.3453 101.242 67.6015 102.573C66.9998 103.649 65.9234 104.657 65.04 105.644C64.8453 105.863 64.6439 106.003 64.4358 106.066C64.3326 106.098 64.2211 106.09 64.1239 106.043C64.0267 105.995 63.9512 105.913 63.9128 105.812C63.2553 104.106 62.8948 102.852 60.9197 102.329C59.7925 102.029 58.1145 102.963 57.462 103.849C56.2536 105.484 56.736 107.5 57.8657 109.046C58.5333 109.963 59.7392 110.427 60.7724 110.915C60.918 110.982 61.0365 111.057 61.1279 111.138C61.2853 111.275 61.3733 111.389 61.3919 111.481C62.2169 115.276 64.0423 119.363 67.4568 121.488C68.2539 121.984 68.8767 122.284 69.3252 122.387C70.2874 122.61 71.3714 123.022 72.2802 123.08C74.978 123.258 77.1003 122.194 78.6472 119.889C80.1112 117.706 81.2121 115.35 81.95 112.821C82.7802 109.97 83.2524 107.079 83.8896 104.19C83.9184 104.054 83.8634 103.992 83.7246 104.002C78.6015 104.367 71.8969 103.276 68.7718 98.6021C68.765 98.5919 68.7617 98.5809 68.7617 98.569Z" stroke="#757779" stroke-width="0.507734"/>
<path d="M58.7893 105.345C60.3227 106.538 60.9345 107.777 61.4422 109.607C61.4469 109.625 61.4553 109.641 61.4669 109.655C61.4786 109.669 61.4931 109.68 61.5096 109.688C61.526 109.696 61.544 109.7 61.5622 109.7C61.5804 109.7 61.5984 109.696 61.6149 109.688L61.6961 109.65C61.8078 109.598 61.8544 109.512 61.8357 109.391C61.5616 107.674 60.7619 106.272 59.4367 105.187C59.3804 105.141 59.3155 105.107 59.2458 105.087C59.1761 105.066 59.1029 105.06 59.0305 105.068L58.8604 105.088C58.8319 105.092 58.8049 105.104 58.7831 105.123C58.7613 105.142 58.7455 105.166 58.7379 105.194C58.7302 105.222 58.731 105.251 58.7402 105.278C58.7494 105.304 58.7665 105.328 58.7893 105.345Z" stroke="#757779" stroke-width="0.507734"/>
<path d="M70.8413 131.432L73.2454 153.811C73.2478 153.827 73.245 153.844 73.2372 153.859C73.2294 153.873 73.2172 153.885 73.2022 153.893C73.1873 153.9 73.1704 153.902 73.1539 153.9C73.1375 153.897 73.1224 153.889 73.1109 153.877C66.1718 147.357 59.2243 140.873 52.2684 134.423C51.489 133.702 51.2148 133.059 51.8165 132.069" stroke="#8BB3C4" stroke-width="0.507734"/>
<path d="M94.772 157.179C94.3658 157.21 93.9766 157.221 93.6042 157.215C93.4841 157.213 93.4028 157.297 93.3605 157.466" stroke="#0C3345" stroke-width="0.507734"/>
<path d="M53.9766 184.435C53.9089 184.362 53.8328 184.333 53.7482 184.348" stroke="#0C3345" stroke-width="0.507734"/>
<path d="M34.9267 137.322C34.9537 137.18 34.9402 137.008 34.886 136.807" stroke="#0C3345" stroke-width="0.507734"/>
<path d="M97.0503 181.728C97.0672 181.569 97.1865 181.464 97.4082 181.413" stroke="#0C3345" stroke-width="0.507734"/>
<path d="M130.335 176.413C130.327 176.415 127.07 173.996 126.725 173.76C125.925 173.211 124.125 172.49 123.32 173.125C121.759 174.354 124.46 176.913 125.387 177.761C127.078 179.309 128.699 180.926 130.251 182.612C130.891 183.308 131.224 183.949 131.251 184.536C131.277 185.11 131.028 186.351 130.505 188.258C130.478 188.356 130.515 188.397 130.617 188.38C132.383 188.07 133.998 186.402 134.866 184.935C135.257 184.275 135.663 183.174 136.085 181.632C137.28 177.262 138.519 172.476 139.801 167.273C140.414 164.789 139.857 162.731 138.131 161.099C137.567 160.566 136.768 160.081 136.072 159.596C135.527 159.216 134.982 158.881 134.437 158.591C132.665 157.649 129.362 155.431 127.273 156.601C127.187 156.648 127.148 156.721 127.156 156.819C127.183 157.193 127.304 157.565 127.517 157.934C129.23 160.901 132.254 162.706 135.049 164.491C135.459 164.752 135.832 165.046 136.169 165.374C136.187 165.393 136.2 165.415 136.206 165.44C136.213 165.465 136.212 165.491 136.205 165.516C136.198 165.54 136.185 165.562 136.166 165.579C136.148 165.596 136.125 165.608 136.1 165.613C135.939 165.647 135.779 165.611 135.62 165.504C134.104 164.487 132.572 163.494 131.025 162.526C129.786 161.749 126.08 159.558 124.95 161.366C123.787 163.227 126.918 164.948 128.286 165.844C130.17 167.08 132.145 168.591 132.906 170.802C132.952 170.934 132.966 171.037 132.947 171.112C132.913 171.261 132.79 171.326 132.576 171.307C132.454 171.296 132.339 171.244 132.249 171.16C131.076 170.081 125.382 165.93 123.887 166.525C121.894 167.317 124.331 169.944 125.27 170.701C126.719 171.872 128.1 173.117 129.413 174.435C129.906 174.929 130.259 175.505 130.472 176.161C130.48 176.187 130.483 176.214 130.48 176.24C130.478 176.267 130.47 176.293 130.457 176.316C130.444 176.34 130.427 176.36 130.406 176.377C130.385 176.394 130.361 176.406 130.335 176.413Z" stroke="#757779" stroke-width="0.507734"/>
<path d="M136.281 182.813C135.466 185.732 133.468 188.228 130.457 189.01C130.372 189.032 130.309 189.081 130.266 189.157C129.746 190.101 129.515 191.754 129.281 192.815C129.278 192.831 129.277 192.847 129.28 192.862C129.283 192.878 129.289 192.893 129.298 192.906C129.306 192.92 129.318 192.931 129.331 192.94C129.345 192.949 129.36 192.954 129.375 192.957C132.825 193.554 136.547 193.132 139.896 192.18C144.757 190.797 147.243 187.235 145.795 182.216C144.755 178.601 142.155 175.25 139.233 172.917C139.213 172.901 139.19 172.89 139.164 172.884C139.139 172.879 139.113 172.88 139.089 172.886C139.064 172.893 139.041 172.906 139.022 172.923C139.003 172.94 138.988 172.961 138.979 172.985C138.896 173.204 138.822 173.439 138.756 173.691C137.952 176.738 137.127 179.778 136.281 182.813Z" stroke="#757779" stroke-width="0.507734"/>
<path d="M97.2514 163.975C96.9061 163.972 96.703 163.881 96.6421 163.704" stroke="#0C3345" stroke-width="0.507734"/>
<path d="M91.3288 203.561C91.1646 203.425 90.97 203.386 90.7449 203.441" stroke="#0C3345" stroke-width="0.507734"/>
<path d="M86.2751 135.228C85.9857 134.652 85.4839 134.257 84.7697 134.042C84.4295 133.941 83.7754 133.795 82.8073 133.605C79.2159 132.905 75.622 132.212 72.0255 131.526C71.8512 131.494 71.456 131.463 70.84 131.432C70.5328 130.97 69.9768 130.244 69.4919 130.343C69.3797 130.366 69.2771 130.411 69.1942 130.475C69.1114 130.538 69.0512 130.618 69.0197 130.706L68.1896 133.009C68.1663 133.073 68.1302 133.132 68.0835 133.182C68.0369 133.232 67.9806 133.273 67.918 133.301L67.8063 133.349C67.7798 133.361 67.7506 133.364 67.7221 133.36C67.6936 133.355 67.667 133.343 67.6456 133.323C67.6241 133.304 67.6087 133.279 67.6012 133.251C67.5937 133.223 67.5943 133.194 67.6032 133.166L70.7384 123.7C70.8129 123.473 70.735 123.331 70.5049 123.276C65.9835 122.189 63.2011 118.736 61.7591 114.522C61.4697 113.674 61.1981 112.821 60.9442 111.963C60.7462 111.291 59.7815 111.019 59.1976 110.765C59.1147 110.729 59.0665 110.756 59.0529 110.844C58.9006 111.796 58.502 112.892 58.3091 113.573C56.7503 119.121 55.1797 124.666 53.5973 130.209C53.489 130.59 53.3519 130.961 53.186 131.323C53.1505 131.401 53.0947 131.458 53.0185 131.493L51.8152 132.07L47.5527 132.808C47.4334 131.115 47.2582 129.678 47.9183 128.119C48.7713 126.099 50.3351 124.52 49.3501 121.905C48.3829 119.328 46.9993 117.003 49.2232 114.52C49.9035 113.761 50.5763 112.997 51.2414 112.225C53.8385 109.224 51.0662 106.122 50.2945 103.053C47.3877 91.4787 57.8826 82.0349 69.1213 85.6398C69.2864 85.6921 69.4647 85.6812 69.6214 85.6093C79.997 80.8823 90.6416 88.4349 90.1263 99.4933C89.9282 103.728 89.4891 110.392 93.947 112.781C96.4247 114.108 99.1538 114.492 101.741 115.55C106.168 117.36 107.288 122.961 104.368 126.606C103.685 127.459 102.281 128.551 101.522 129.691C100.454 131.295 100.57 133.968 102.997 134.121C103.808 134.172 104.614 134.248 105.417 134.349C109.27 134.834 112.307 137.33 113.637 140.945C113.733 141.21 113.661 141.419 113.421 141.569C109.994 143.72 110.131 147.236 108.986 150.63C108.971 150.673 108.945 150.712 108.911 150.742C108.876 150.772 108.834 150.793 108.79 150.802C108.745 150.811 108.699 150.808 108.656 150.793C108.613 150.779 108.574 150.753 108.544 150.719C108.333 150.48 108.079 150.257 107.783 150.051C103.687 147.213 99.5845 144.385 95.4752 141.569C92.8689 139.782 90.2617 137.996 87.6536 136.21C87.2576 135.938 86.7981 135.61 86.2751 135.228ZM68.7608 98.5692C68.7608 98.554 68.7591 98.532 68.7557 98.5032C68.7542 98.4817 68.7455 98.4656 68.7316 98.4587C68.7177 98.4518 68.6997 98.4545 68.6815 98.4663C68.6633 98.4781 68.6465 98.498 68.6347 98.5215C68.6229 98.5451 68.6171 98.5705 68.6186 98.5921C68.7151 100.141 68.3445 101.242 67.6006 102.573C66.999 103.649 65.9226 104.657 65.0391 105.645C64.8445 105.863 64.6431 106.003 64.4349 106.066C64.3318 106.098 64.2202 106.09 64.1231 106.043C64.0259 105.996 63.9503 105.913 63.9119 105.812C63.2544 104.106 62.8939 102.852 60.9188 102.329C59.7917 102.029 58.1136 102.964 57.4612 103.85C56.2528 105.485 56.7351 107.5 57.8648 109.046C58.5325 109.963 59.7384 110.427 60.7716 110.915C60.9171 110.982 61.0356 111.057 61.127 111.138C61.2844 111.275 61.3724 111.39 61.391 111.481C62.2161 115.276 64.0414 119.363 67.4559 121.488C68.2531 121.984 68.8759 122.284 69.3244 122.387C70.2865 122.61 71.3706 123.022 72.2794 123.08C74.9772 123.258 77.0995 122.194 78.6464 119.889C80.1104 117.706 81.2113 115.35 81.9492 112.821C82.7793 109.97 83.2515 107.079 83.8887 104.19C83.9175 104.054 83.8625 103.992 83.7237 104.002C78.6007 104.368 71.8961 103.276 68.771 98.6022C68.7642 98.5921 68.7608 98.5811 68.7608 98.5692Z" fill="#191C1E"/>
<path d="M68.7713 98.6022C71.8964 103.276 78.601 104.368 83.724 104.002C83.8628 103.992 83.9178 104.054 83.889 104.19C83.2518 107.079 82.7796 109.97 81.9495 112.821C81.2116 115.35 80.1107 117.706 78.6467 119.889C77.0998 122.194 74.9775 123.258 72.2797 123.08C71.3709 123.022 70.2868 122.61 69.3247 122.387C68.8762 122.284 68.2534 121.984 67.4562 121.488C64.0417 119.363 62.2164 115.276 61.3913 111.481C61.3727 111.39 61.2847 111.275 61.1273 111.138C61.0359 111.057 60.9175 110.982 60.7719 110.915C59.7387 110.427 58.5328 109.963 57.8651 109.046C56.7354 107.5 56.2531 105.485 57.4615 103.85C58.1139 102.964 59.792 102.029 60.9191 102.329C62.8942 102.852 63.2547 104.106 63.9122 105.812C63.9506 105.913 64.0262 105.996 64.1234 106.043C64.2205 106.09 64.3321 106.098 64.4352 106.066C64.6434 106.003 64.8448 105.863 65.0394 105.645C65.9229 104.657 66.9993 103.649 67.6009 102.573C68.3448 101.242 68.7154 100.141 68.6189 98.5921C68.6174 98.5705 68.6232 98.5451 68.635 98.5215C68.6468 98.4979 68.6636 98.4781 68.6818 98.4663C68.7 98.4545 68.718 98.4518 68.7319 98.4587C68.7458 98.4656 68.7545 98.4816 68.756 98.5032C68.7594 98.532 68.7611 98.554 68.7611 98.5692C68.7611 98.5811 68.7645 98.5921 68.7713 98.6022ZM58.7892 105.345C60.3225 106.538 60.9344 107.777 61.4421 109.607C61.4467 109.625 61.4552 109.641 61.4668 109.655C61.4784 109.669 61.493 109.681 61.5094 109.688C61.5259 109.696 61.5439 109.7 61.5621 109.7C61.5803 109.7 61.5982 109.696 61.6147 109.689L61.696 109.651C61.8077 109.598 61.8542 109.512 61.8356 109.392C61.5614 107.674 60.7617 106.272 59.4366 105.188C59.3803 105.142 59.3154 105.108 59.2457 105.087C59.1759 105.067 59.1027 105.06 59.0304 105.068L58.8603 105.089C58.8317 105.092 58.8048 105.104 58.783 105.123C58.7611 105.142 58.7454 105.167 58.7377 105.194C58.7301 105.222 58.7309 105.251 58.7401 105.278C58.7492 105.305 58.7663 105.328 58.7892 105.345Z" fill="white"/>
<path d="M61.4427 109.607C60.935 107.777 60.3232 106.538 58.7898 105.345C58.767 105.328 58.7499 105.305 58.7407 105.278C58.7315 105.251 58.7307 105.222 58.7383 105.194C58.746 105.167 58.7617 105.142 58.7836 105.123C58.8054 105.104 58.8324 105.092 58.8609 105.088L59.031 105.068C59.1034 105.06 59.1765 105.066 59.2463 105.087C59.316 105.107 59.3809 105.142 59.4372 105.187C60.7624 106.272 61.5621 107.674 61.8362 109.391C61.8548 109.512 61.8083 109.598 61.6966 109.65L61.6154 109.689C61.5989 109.696 61.5809 109.7 61.5627 109.7C61.5445 109.7 61.5265 109.696 61.5101 109.688C61.4936 109.68 61.4791 109.669 61.4674 109.655C61.4558 109.641 61.4474 109.625 61.4427 109.607Z" fill="#191C1E"/>
<path d="M70.8414 131.432L73.2455 153.81C73.248 153.827 73.2451 153.844 73.2373 153.858C73.2296 153.873 73.2173 153.885 73.2023 153.892C73.1874 153.9 73.1705 153.902 73.1541 153.899C73.1376 153.896 73.1226 153.888 73.111 153.876C66.172 147.357 59.2245 140.872 52.2685 134.422C51.4891 133.701 51.215 133.059 51.8166 132.069L53.02 131.493C53.0961 131.457 53.152 131.401 53.1875 131.323C53.3534 130.961 53.4905 130.589 53.5988 130.208C55.1812 124.665 56.7518 119.12 58.3105 113.572C58.5035 112.892 58.9021 111.795 59.0544 110.843C59.0679 110.755 59.1161 110.729 59.1991 110.765C59.783 111.018 60.7477 111.29 60.9457 111.963C61.1996 112.821 61.4712 113.674 61.7606 114.522C63.2026 118.736 65.985 122.189 70.5063 123.275C70.7365 123.331 70.8143 123.472 70.7399 123.699L67.6046 133.166C67.5958 133.193 67.5951 133.223 67.6026 133.251C67.6102 133.278 67.6256 133.304 67.647 133.323C67.6685 133.342 67.6951 133.355 67.7236 133.359C67.7521 133.364 67.7813 133.36 67.8077 133.349L67.9194 133.3C67.982 133.272 68.0383 133.232 68.085 133.182C68.1316 133.132 68.1677 133.073 68.1911 133.008L69.0212 130.706C69.0527 130.618 69.1128 130.538 69.1957 130.474C69.2785 130.411 69.3811 130.365 69.4934 130.343C69.9783 130.244 70.5342 130.97 70.8414 131.432Z" fill="white"/>
<path d="M70.8414 131.432C71.4574 131.463 71.8526 131.494 72.0269 131.526C75.6234 132.212 79.2173 132.905 82.8087 133.605C83.7768 133.795 84.4309 133.941 84.7711 134.042C85.4853 134.257 85.9871 134.652 86.2765 135.228C86.2037 135.548 86.3129 136.056 86.604 136.753C88.5452 141.387 90.4695 146.029 92.3769 150.678C93.235 152.766 94.0338 154.934 94.7734 157.18C94.3673 157.21 93.978 157.222 93.6056 157.215C93.4855 157.213 93.4043 157.297 93.3619 157.466C90.1818 157.174 87.0009 157.332 83.8191 157.941C82.2976 158.232 81.0866 158.52 80.1862 158.804C77.1221 159.774 74.2508 161.721 71.8137 163.785C68.4762 166.615 65.4086 169.719 62.611 173.097C60.9507 175.105 59.265 177.083 57.7114 179.187C56.5723 180.731 55.4308 182.272 54.2867 183.81C54.1479 183.998 54.0447 184.206 53.977 184.435C53.9093 184.362 53.8331 184.333 53.7485 184.348C53.9245 184.051 53.9601 183.776 53.8551 183.523C47.5457 168.175 41.2362 152.774 34.9268 137.322C34.9539 137.18 34.9403 137.008 34.8862 136.807L47.3536 132.981C47.4162 132.962 47.467 132.927 47.5059 132.874L47.5541 132.808L51.8166 132.07C51.2149 133.06 51.4891 133.702 52.2685 134.423C59.2244 140.873 66.1719 147.357 73.111 153.877C73.1225 153.889 73.1376 153.897 73.154 153.9C73.1704 153.903 73.1873 153.9 73.2023 153.893C73.2173 153.885 73.2295 153.874 73.2373 153.859C73.245 153.844 73.2479 153.827 73.2455 153.811L70.8414 131.432Z" fill="#006689"/>
<path d="M34.8862 136.807C34.9403 137.008 34.9539 137.18 34.9268 137.322C28.2577 139.878 25.1427 145.824 24.4243 152.678C24.1907 154.912 24.1874 157.539 24.4141 160.558C24.7594 165.179 25.7774 169.878 27.0264 174.346C28.1536 178.382 29.6616 182.335 31.2 186.222C32.3627 189.164 33.7438 192.051 35.0791 194.947C35.8035 196.516 37.149 198.925 39.1156 202.175C39.4693 202.759 40.4019 204.083 41.9132 206.148C45.2313 210.682 50.923 216.275 57.1097 214.183C60.9456 212.888 64.5277 209.547 67.1654 206.526C67.5428 206.093 67.9896 205.627 68.5058 205.127C68.5163 205.117 68.529 205.109 68.5429 205.105C68.5568 205.1 68.5716 205.098 68.5862 205.1C68.6007 205.102 68.6148 205.107 68.6272 205.115C68.6397 205.122 68.6502 205.133 68.6581 205.145L68.6987 205.209C68.7681 205.315 68.7639 205.419 68.686 205.518C65.8884 209.128 62.0576 212.754 57.7926 214.48C50.0293 217.623 43.147 209.253 39.4405 203.551C39.339 203.393 39.1748 203.22 38.948 203.03C38.8854 202.98 38.8338 202.989 38.7932 203.058C38.7035 203.217 38.5994 203.359 38.4809 203.482C34.8202 207.285 32.3069 212.297 30.54 217.227C28.5056 222.903 27.0247 228.723 26.0973 234.685C25.8383 236.347 25.5802 238.01 25.323 239.674C24.7492 243.403 24.4624 247.173 24.0968 250.938C23.936 252.59 23.8116 254.277 23.7236 256C23.5256 259.831 23.287 263.514 23.1626 267.49C23.0881 269.925 22.9781 272.359 22.8325 274.791C22.5812 279.015 22.6726 283.12 22.6625 287.292H22.104C22.0989 283.345 22.1285 279.399 22.1928 275.454C22.2131 274.239 22.307 272.549 22.4746 270.384C22.7107 267.317 22.6904 264.144 22.9087 261.199C23.1423 258.084 23.155 254.956 23.4926 251.847C23.9293 247.856 24.112 243.928 24.7467 240.014C25.3027 236.604 25.8282 232.87 26.473 229.788C28.2602 221.238 30.9284 212.781 36.0083 205.574C36.7242 204.556 37.5112 203.685 38.4073 202.914C38.5177 202.818 38.5904 202.686 38.6122 202.541C38.6341 202.397 38.6037 202.249 38.5266 202.124C36.7013 199.195 35.1654 196.359 33.6955 193.125C32.9949 191.579 32.185 189.982 31.5656 188.507C27.7576 179.418 24.9549 170.622 23.8734 160.838C23.7837 160.027 23.7617 158.28 23.8074 155.595C23.8429 153.436 23.9733 151.753 24.1984 150.546C25.3408 144.451 28.6766 138.876 34.8862 136.807Z" fill="#191C1E"/>
<path d="M130.335 176.412C130.36 176.405 130.385 176.393 130.406 176.377C130.427 176.36 130.444 176.339 130.457 176.316C130.47 176.292 130.478 176.267 130.48 176.24C130.483 176.213 130.48 176.186 130.472 176.161C130.258 175.504 129.906 174.929 129.413 174.435C128.1 173.116 126.719 171.871 125.27 170.7C124.331 169.944 121.893 167.316 123.886 166.524C125.382 165.93 131.076 170.081 132.249 171.16C132.339 171.244 132.454 171.295 132.576 171.307C132.789 171.326 132.913 171.261 132.947 171.112C132.965 171.037 132.952 170.934 132.906 170.802C132.145 168.591 130.17 167.08 128.286 165.844C126.917 164.948 123.787 163.226 124.95 161.366C126.08 159.558 129.786 161.749 131.025 162.526C132.572 163.494 134.104 164.486 135.62 165.504C135.779 165.61 135.939 165.647 136.1 165.613C136.125 165.608 136.148 165.596 136.166 165.579C136.185 165.562 136.198 165.54 136.205 165.515C136.212 165.491 136.212 165.465 136.206 165.44C136.2 165.415 136.187 165.392 136.168 165.374C135.832 165.046 135.458 164.751 135.049 164.491C132.254 162.706 129.23 160.901 127.517 157.933C127.303 157.564 127.183 157.193 127.156 156.819C127.148 156.721 127.045 156.54 127.132 156.493C129.221 155.323 132.665 157.649 134.437 158.591C134.982 158.88 135.527 159.215 136.072 159.596C136.768 160.081 137.567 160.566 138.131 161.099C139.857 162.731 140.414 164.789 139.801 167.273C138.518 172.476 137.28 177.262 136.085 181.632C135.663 183.174 135.257 184.275 134.866 184.935C133.998 186.402 132.383 188.07 130.616 188.38C130.515 188.397 130.478 188.356 130.505 188.258C131.028 186.35 131.276 185.11 131.251 184.536C131.224 183.949 130.891 183.307 130.251 182.612C128.699 180.926 127.077 179.309 125.387 177.76C124.46 176.912 121.759 174.353 123.32 173.125C124.125 172.49 125.925 173.211 126.725 173.759C127.07 173.996 130.327 176.415 130.335 176.412Z" fill="white"/>
<path d="M94.7722 157.179C96.9774 157.533 98.702 157.883 99.946 158.23C101.771 158.74 106.219 160.248 104.721 163.089C104.252 163.978 101.954 164.016 101.086 163.973C99.8233 163.91 98.5446 163.911 97.2499 163.975C96.9046 163.972 96.7015 163.881 96.6406 163.703C96.9842 163.499 97.3472 163.4 97.7297 163.406C99.0414 163.425 100.353 163.445 101.665 163.465C102.586 163.478 103.934 163.46 104.409 162.566C105.407 160.688 101.413 159.213 100.205 158.834C98.9644 158.447 96.6829 157.991 93.3607 157.466C93.403 157.297 93.4842 157.213 93.6044 157.215C93.9767 157.221 94.366 157.21 94.7722 157.179Z" fill="#191C1E"/>
<path d="M96.6421 163.704C96.703 163.881 96.9061 163.972 97.2514 163.975C98.0739 166.387 98.5867 167.977 98.7898 168.745C99.9204 173.017 99.4338 177.116 97.3301 181.043C97.2471 181.198 97.2734 181.322 97.4088 181.413C97.187 181.464 97.0677 181.569 97.0508 181.728C96.8909 181.776 96.7563 181.832 96.6598 181.982C95.7307 183.443 94.5527 184.664 93.126 185.645C92.9991 185.732 92.9263 185.92 92.9077 186.211C92.581 191.534 92.2612 196.858 91.9481 202.182C91.9125 202.793 91.7061 203.253 91.3286 203.561C91.1645 203.425 90.9698 203.386 90.7447 203.441L70.7425 203.299C70.3245 203.296 70.2441 203.13 70.5014 202.802C71.4373 201.6 72.3208 200.376 73.1517 199.128C77.3422 192.853 81.0208 186.289 84.1874 179.438C84.2246 179.357 84.2881 179.317 84.3778 179.319C85.4008 179.339 86.363 179.395 87.3734 179.215C88.5886 178.998 89.8029 178.781 91.0164 178.562C93.3951 178.139 94.0095 176.019 93.5957 173.889C93.5921 173.87 93.5925 173.85 93.5969 173.831C93.6013 173.812 93.6096 173.794 93.6212 173.778C93.6329 173.762 93.6477 173.749 93.6647 173.739C93.6817 173.729 93.7006 173.723 93.7201 173.721C96.3095 173.429 97.1879 171.959 96.6573 169.484C96.6387 169.401 96.6666 169.339 96.7411 169.296C97.5585 168.827 98.1018 168.126 97.9952 167.131C97.7032 164.409 95.2788 164.978 93.4332 164.356C93.0981 164.243 93.1057 164.163 93.456 164.117L96.6421 163.704Z" fill="#006689"/>
<path d="M96.0096 169.271C96.0078 169.278 96.0031 169.285 95.9965 169.289C95.9898 169.294 95.9818 169.295 95.9741 169.294L91.8462 168.324C91.8285 168.318 91.8159 168.295 91.8112 168.258C91.8064 168.222 91.8099 168.175 91.8208 168.128L91.8614 167.956C91.867 167.932 91.8743 167.909 91.8829 167.888C91.8915 167.866 91.9013 167.848 91.9116 167.832C91.922 167.817 91.9328 167.805 91.9433 167.798C91.9539 167.791 91.964 167.789 91.9731 167.791L96.0985 168.758C96.1026 168.759 96.1064 168.76 96.1098 168.763C96.1132 168.765 96.116 168.768 96.1181 168.772C96.1203 168.776 96.1217 168.78 96.1222 168.784C96.1228 168.788 96.1225 168.792 96.1213 168.796L96.0096 169.271Z" fill="#191C1E"/>
<path d="M92.7261 173.722C91.7106 173.207 90.6317 172.914 89.4893 172.843C89.4097 172.838 89.3404 172.81 89.2811 172.759C89.2287 172.715 89.2109 172.666 89.2278 172.612C89.2464 172.556 89.2854 172.526 89.3446 172.521C90.5615 172.406 91.7106 172.633 92.7921 173.204C92.9512 173.287 93.0003 173.413 92.9393 173.582L92.9165 173.645C92.9104 173.664 92.9003 173.68 92.887 173.694C92.8737 173.708 92.8575 173.719 92.8395 173.727C92.8214 173.734 92.802 173.737 92.7824 173.736C92.7628 173.735 92.7436 173.73 92.7261 173.722Z" fill="#191C1E"/>
<path d="M130.456 189.009C133.466 188.227 135.464 185.732 136.279 182.812C137.125 179.778 137.951 176.737 138.754 173.691C138.82 173.439 138.895 173.203 138.978 172.985C138.987 172.961 139.002 172.94 139.021 172.922C139.04 172.905 139.063 172.893 139.087 172.886C139.112 172.879 139.138 172.879 139.163 172.884C139.188 172.889 139.212 172.9 139.232 172.916C142.154 175.249 144.753 178.601 145.794 182.216C147.241 187.235 144.756 190.796 139.894 192.18C136.546 193.132 132.824 193.553 129.374 192.957C129.358 192.954 129.343 192.948 129.33 192.939C129.317 192.931 129.305 192.919 129.296 192.906C129.288 192.893 129.282 192.878 129.279 192.862C129.276 192.846 129.276 192.83 129.28 192.815C129.514 191.753 129.745 190.101 130.265 189.156C130.307 189.08 130.371 189.031 130.456 189.009Z" fill="white"/>
<path d="M53.7485 184.348C53.8331 184.333 53.9093 184.362 53.977 184.435C53.7028 185.347 53.3381 186.23 52.8828 187.085C52.1889 188.387 51.3131 190.06 50.2553 192.107C50.246 192.125 50.232 192.141 50.2147 192.152C50.1974 192.163 50.1774 192.17 50.1567 192.171C50.136 192.172 50.1155 192.167 50.0971 192.158C50.0787 192.148 50.0632 192.134 50.0522 192.117L50.009 192.051C49.9159 191.91 49.9058 191.763 49.9786 191.609C51.22 189.014 52.337 186.491 53.7485 184.348Z" fill="#191C1E"/>
<path d="M91.3267 203.561C91.3115 204.008 91.3775 204.585 91.5247 205.292C95.6086 225.031 99.6857 244.771 103.756 264.512C105.31 272.04 106.874 279.554 108.447 287.053C108.466 287.148 108.428 287.194 108.333 287.192L108.008 287.187C107.932 287.186 107.887 287.147 107.874 287.071C107.689 285.92 107.477 284.764 107.237 283.603C103.557 265.9 99.8913 248.193 96.239 230.484C94.462 221.875 92.6036 213.282 90.9027 204.655C90.8266 204.263 90.7733 203.858 90.7428 203.442C90.9679 203.386 91.1625 203.426 91.3267 203.561Z" fill="#191C1E"/>
<path d="M116.168 152.788C116.613 151.091 118.022 149.819 119.757 149.551L134.138 147.329C137.247 146.849 139.842 149.687 139.088 152.74L129.037 193.415C128.609 195.148 127.178 196.451 125.413 196.715L110.415 198.963C107.287 199.432 104.699 196.549 105.501 193.489L116.168 152.788Z" fill="#191C1E" stroke="#191C1E" stroke-width="0.978994"/>
<path d="M130.335 176.412C130.36 176.405 130.385 176.393 130.406 176.377C130.427 176.36 130.444 176.339 130.457 176.316C130.47 176.292 130.478 176.267 130.48 176.24C130.483 176.213 130.48 176.186 130.472 176.161C130.258 175.504 129.906 174.929 129.413 174.435C128.1 173.116 126.719 171.871 125.27 170.7C124.331 169.944 121.893 167.316 123.886 166.524C125.382 165.93 131.076 170.081 132.249 171.16C132.339 171.244 132.454 171.295 132.576 171.307C132.789 171.326 132.913 171.261 132.947 171.112C132.965 171.037 132.952 170.934 132.906 170.802C132.145 168.591 130.17 167.08 128.286 165.844C126.917 164.948 123.787 163.226 124.95 161.366C126.08 159.558 129.786 161.749 131.025 162.526C132.572 163.494 134.104 164.486 135.62 165.504C135.779 165.61 135.939 165.647 136.1 165.613C136.125 165.608 136.148 165.596 136.166 165.579C136.185 165.562 136.198 165.54 136.205 165.515C136.212 165.491 136.212 165.465 136.206 165.44C136.2 165.415 136.187 165.392 136.168 165.374C135.832 165.046 135.458 164.751 135.049 164.491C132.254 162.706 129.23 160.901 127.517 157.933C127.303 157.564 127.183 157.193 127.156 156.819C127.148 156.721 127.045 156.54 127.132 156.493C129.221 155.323 132.665 157.649 134.437 158.591C134.982 158.88 135.527 159.215 136.072 159.596C136.768 160.081 137.567 160.566 138.131 161.099C139.857 162.731 140.414 164.789 139.801 167.273C138.518 172.476 137.28 177.262 136.085 181.632C135.663 183.174 135.257 184.275 134.866 184.935C133.998 186.402 132.383 188.07 130.616 188.38C130.515 188.397 130.478 188.356 130.505 188.258C131.028 186.35 131.276 185.11 131.251 184.536C131.224 183.949 130.891 183.307 130.251 182.612C128.699 180.926 127.077 179.309 125.387 177.76C124.46 176.912 121.759 174.353 123.32 173.125C124.125 172.49 125.925 173.211 126.725 173.759C127.07 173.996 130.327 176.415 130.335 176.412Z" fill="white"/>
</g>
</g>
<defs>
<clipPath id="clip0_4050_110317">
<rect width="320" height="240" fill="white"/>
</clipPath>
<clipPath id="clip1_4050_110317">
<rect width="170.345" height="227.719" fill="white" transform="translate(-10.4171 59.5725)"/>
</clipPath>
</defs>
</svg>
