<svg width="320" height="240" viewBox="0 0 320 240" fill="none" xmlns="http://www.w3.org/2000/svg">
<path d="M173.718 82.3232L193.988 151.943L307.128 119.132L286.858 49.5115L173.718 82.3232ZM193.748 152.733C193.595 152.733 193.455 152.633 193.41 152.479L172.944 82.1814C172.917 82.0918 172.928 81.9947 172.972 81.9126C173.018 81.8304 173.094 81.7707 173.184 81.744L287 48.736C287.187 48.6827 287.383 48.7894 287.438 48.976L307.903 119.274C307.929 119.363 307.919 119.46 307.874 119.541C307.828 119.623 307.753 119.684 307.663 119.711L193.846 152.718C193.813 152.727 193.78 152.733 193.748 152.733Z" fill="#EBF2F8"/>
<path d="M190.337 141.017C190.184 141.017 190.043 140.916 189.999 140.762C189.944 140.575 190.052 140.38 190.239 140.325L304.055 107.317C304.243 107.263 304.438 107.371 304.492 107.557C304.546 107.744 304.439 107.94 304.252 107.995L190.435 141.002C190.402 141.011 190.369 141.017 190.337 141.017Z" fill="#EBF2F8"/>
<path d="M186.925 129.3C186.773 129.3 186.632 129.2 186.587 129.045C186.533 128.859 186.641 128.663 186.827 128.609L300.645 95.6011C300.832 95.5467 301.027 95.6544 301.081 95.8411C301.136 96.0288 301.028 96.224 300.841 96.2784L187.024 129.286C186.991 129.295 186.959 129.3 186.925 129.3Z" fill="#EBF2F8"/>
<path d="M183.514 117.584C183.362 117.584 183.221 117.484 183.176 117.329C183.122 117.142 183.23 116.947 183.416 116.893L297.234 83.8848C297.421 83.8304 297.616 83.9382 297.67 84.1248C297.725 84.3125 297.617 84.5078 297.43 84.5621L183.612 117.57C183.58 117.579 183.547 117.584 183.514 117.584Z" fill="#EBF2F8"/>
<path d="M180.103 105.868C179.951 105.868 179.81 105.767 179.765 105.613C179.711 105.426 179.818 105.231 180.006 105.177L293.823 72.1686C294.009 72.1152 294.204 72.2219 294.259 72.4086C294.313 72.5963 294.205 72.7915 294.019 72.8459L180.202 105.854C180.169 105.863 180.136 105.868 180.103 105.868Z" fill="#EBF2F8"/>
<path d="M176.693 94.1515C176.539 94.1515 176.399 94.0512 176.355 93.8966C176.301 93.7099 176.408 93.5147 176.595 93.4603L290.411 60.4523C290.599 60.3979 290.794 60.5056 290.848 60.6923C290.902 60.88 290.794 61.0752 290.608 61.1296L176.791 94.1376C176.758 94.1472 176.725 94.1515 176.693 94.1515Z" fill="#EBF2F8"/>
<path d="M212.718 147.231C212.565 147.231 212.424 147.131 212.379 146.977L191.913 76.6795C191.859 76.4928 191.966 76.2976 192.152 76.2432C192.34 76.1888 192.535 76.2966 192.59 76.4832L213.056 146.78C213.11 146.967 213.002 147.163 212.816 147.217C212.783 147.227 212.75 147.231 212.718 147.231Z" fill="#EBF2F8"/>
<path d="M231.687 141.73C231.535 141.73 231.394 141.63 231.349 141.475L210.883 71.1787C210.828 70.992 210.935 70.7958 211.122 70.7414C211.31 70.687 211.505 70.7947 211.559 70.9814L232.025 141.279C232.08 141.466 231.972 141.661 231.785 141.715C231.752 141.725 231.719 141.73 231.687 141.73Z" fill="#EBF2F8"/>
<path d="M250.657 136.228C250.503 136.228 250.362 136.128 250.318 135.974L229.851 65.6768C229.797 65.4902 229.905 65.295 230.091 65.2406C230.279 65.1862 230.474 65.2939 230.529 65.4806L250.995 135.777C251.049 135.965 250.942 136.16 250.755 136.214C250.722 136.224 250.689 136.228 250.657 136.228Z" fill="#EBF2F8"/>
<path d="M269.625 130.727C269.473 130.727 269.332 130.627 269.287 130.474L248.821 60.176C248.767 59.9893 248.874 59.7931 249.061 59.7387C249.249 59.6843 249.444 59.792 249.498 59.9787L269.964 130.276C270.019 130.463 269.911 130.658 269.724 130.713C269.691 130.722 269.658 130.727 269.625 130.727Z" fill="#EBF2F8"/>
<path d="M288.595 125.226C288.442 125.226 288.302 125.125 288.257 124.972L267.791 54.6741C267.736 54.4875 267.844 54.2923 268.031 54.2379C268.218 54.1835 268.412 54.2912 268.468 54.4779L288.934 124.774C288.988 124.962 288.881 125.157 288.694 125.212C288.661 125.221 288.628 125.226 288.595 125.226Z" fill="#EBF2F8"/>
<path d="M195.142 149.725C195.128 149.725 195.112 149.723 195.097 149.721C194.97 149.695 194.887 149.572 194.912 149.444L202.318 111.521C202.34 111.407 202.44 111.326 202.556 111.331L243.461 112.807L275.546 77.1712L285.51 51.5819C285.557 51.4603 285.695 51.4016 285.814 51.4475C285.936 51.4955 285.995 51.631 285.948 51.7526L275.969 77.3824C275.959 77.4091 275.944 77.4326 275.925 77.4539L243.737 113.203C243.69 113.254 243.622 113.283 243.554 113.28L202.74 111.808L195.372 149.535C195.351 149.647 195.253 149.725 195.142 149.725Z" fill="black"/>
<path d="M207.556 109.933C208.358 112.69 206.768 115.574 204.002 116.377C201.237 117.179 198.344 115.594 197.542 112.837C196.739 110.081 198.33 107.196 201.096 106.394C203.861 105.591 206.754 107.177 207.556 109.933Z" fill="white"/>
<path d="M202.55 106.421C202.09 106.421 201.624 106.485 201.161 106.62C199.881 106.991 198.824 107.837 198.183 109.003C197.545 110.162 197.398 111.501 197.767 112.771C198.533 115.399 201.3 116.916 203.937 116.151C205.217 115.78 206.274 114.933 206.915 113.769C207.553 112.608 207.7 111.269 207.331 109.999C206.699 107.831 204.708 106.421 202.55 106.421ZM202.548 116.819C200.186 116.819 198.007 115.275 197.316 112.902C196.912 111.513 197.073 110.046 197.771 108.775C198.472 107.501 199.63 106.574 201.03 106.169C203.914 105.331 206.944 106.991 207.781 109.868C208.186 111.259 208.024 112.724 207.327 113.995C206.625 115.27 205.467 116.196 204.068 116.602C203.561 116.749 203.05 116.819 202.548 116.819Z" fill="black"/>
<path d="M248.482 111.215C249.284 113.971 247.694 116.857 244.928 117.659C242.163 118.461 239.27 116.876 238.468 114.119C237.665 111.362 239.256 108.478 242.021 107.676C244.787 106.874 247.679 108.459 248.482 111.215Z" fill="white"/>
<path d="M243.476 107.703C243.016 107.703 242.55 107.767 242.087 107.901C240.807 108.272 239.749 109.119 239.109 110.284C238.471 111.444 238.324 112.783 238.693 114.053C239.459 116.682 242.225 118.197 244.863 117.433C246.143 117.061 247.2 116.215 247.841 115.051C248.479 113.89 248.626 112.551 248.256 111.281C247.625 109.114 245.634 107.703 243.476 107.703ZM243.474 118.101C241.112 118.101 238.933 116.557 238.242 114.185C237.838 112.794 237.999 111.328 238.697 110.058C239.398 108.782 240.555 107.856 241.956 107.451C244.841 106.613 247.87 108.273 248.707 111.15C249.112 112.541 248.95 114.006 248.252 115.277C247.551 116.551 246.393 117.478 244.993 117.884C244.487 118.031 243.976 118.101 243.474 118.101Z" fill="black"/>
<path d="M280.463 76.4181C281.265 79.1755 279.674 82.0597 276.908 82.8619C274.144 83.664 271.251 82.0789 270.449 79.3227C269.645 76.5664 271.237 73.6811 274.003 72.8789C276.768 72.0768 279.659 73.6619 280.463 76.4181Z" fill="white"/>
<path d="M275.457 72.9067C274.997 72.9067 274.531 72.9707 274.068 73.1051C272.788 73.4763 271.73 74.3222 271.09 75.487C270.452 76.6475 270.305 77.9862 270.674 79.2566C271.439 81.8848 274.207 83.4006 276.843 82.6358C278.123 82.2656 279.18 81.4187 279.822 80.2539C280.459 79.0934 280.607 77.7547 280.236 76.4843C279.606 74.3168 277.615 72.9067 275.457 72.9067ZM275.455 83.3046C273.093 83.3046 270.914 81.76 270.223 79.3878C269.818 77.9979 269.979 76.5312 270.678 75.2608C271.379 73.9862 272.536 73.0592 273.937 72.6539C276.821 71.8166 279.85 73.4763 280.688 76.3531C281.093 77.744 280.931 79.2096 280.233 80.48C279.531 81.7558 278.374 82.6816 276.974 83.087C276.468 83.2342 275.957 83.3046 275.455 83.3046Z" fill="black"/>
<path d="M203.567 67.4443L152.657 87.6406L138.899 53.0934L155.253 21.968L189.808 32.8971L203.567 67.4443Z" fill="white"/>
<path d="M139.156 53.1072L152.789 87.3355L203.262 67.3131L189.631 33.0869L155.369 22.2517L139.156 53.1072ZM152.657 87.8763C152.564 87.8763 152.475 87.8197 152.439 87.728L138.68 53.1808C138.655 53.1168 138.659 53.0454 138.691 52.9846L155.045 21.8592C155.098 21.7579 155.215 21.7099 155.323 21.744L189.878 32.6731C189.945 32.6944 190 32.7445 190.026 32.8107L203.784 67.3579C203.808 67.4155 203.807 67.4805 203.782 67.5371C203.758 67.5947 203.711 67.6395 203.653 67.6629L152.744 87.8592C152.715 87.8699 152.686 87.8763 152.657 87.8763Z" fill="black"/>
<path d="M172.644 63.9435C172.621 63.9435 172.598 63.9403 172.576 63.9328L141.46 54.5323C141.336 54.495 141.266 54.3638 141.303 54.239C141.34 54.1152 141.473 54.0448 141.595 54.0821L172.531 63.4294L188.173 35.4091C188.236 35.296 188.379 35.2555 188.492 35.3184C188.605 35.3814 188.647 35.5243 188.583 35.6384L172.849 63.823C172.806 63.8987 172.727 63.9435 172.644 63.9435Z" fill="black"/>
<path d="M183.334 44.4523L172.67 63.6992L151.199 57.2011L142.928 36.4331L175.062 23.6843L183.334 44.4523Z" fill="white"/>
<path d="M151.375 57.0091L172.557 63.4197L183.075 44.4363L174.931 23.9883L143.233 36.5643L151.375 57.0091ZM172.67 63.9349C172.647 63.9349 172.624 63.9317 172.601 63.9243L151.13 57.4261C151.062 57.4048 151.007 57.3547 150.98 57.2875L142.709 36.5195C142.687 36.4619 142.687 36.3968 142.711 36.3392C142.737 36.2827 142.783 36.2368 142.841 36.2144L174.976 23.4656C175.097 23.4176 175.233 23.4763 175.281 23.5968L183.552 44.3659C183.578 44.4309 183.573 44.5045 183.539 44.5664L172.875 63.8133C172.833 63.8891 172.754 63.9349 172.67 63.9349Z" fill="black"/>
<path d="M158.44 43.8251C159.057 45.375 158.298 47.1296 156.746 47.7451C155.194 48.3616 153.435 47.6043 152.818 46.0555C152.201 44.5056 152.96 42.751 154.512 42.1355C156.064 41.519 157.823 42.2763 158.44 43.8251Z" fill="#EBF2F8"/>
<path d="M166.642 40.5707C167.259 42.1206 166.501 43.8752 164.949 44.4918C163.396 45.1072 161.638 44.351 161.02 42.8011C160.404 41.2523 161.162 39.4966 162.714 38.8811C164.266 38.2646 166.025 39.0219 166.642 40.5707Z" fill="#EBF2F8"/>
<path d="M174.844 37.3174C175.462 38.8662 174.704 40.6219 173.152 41.2374C171.599 41.8528 169.841 41.0966 169.223 39.5478C168.607 37.9979 169.365 36.2422 170.917 35.6267C172.469 35.0112 174.228 35.7675 174.844 37.3174Z" fill="#EBF2F8"/>
<path d="M26.2962 84.6859H173.971C178.07 84.6859 181.394 88.0032 181.394 92.095V197.549C181.394 201.641 178.07 204.958 173.971 204.958H18.8735V92.095C18.8735 88.0032 22.1967 84.6859 26.2962 84.6859Z" fill="white"/>
<path d="M19.1084 204.722H173.971C177.935 204.722 181.159 201.504 181.159 197.549V92.0949C181.159 88.1397 177.935 84.9216 173.971 84.9216H26.2962C22.3329 84.9216 19.1084 88.1397 19.1084 92.0949V204.722ZM173.971 205.193H18.8735C18.7438 205.193 18.6387 205.087 18.6387 204.957V92.0949C18.6387 87.8805 22.0738 84.4512 26.2962 84.4512H173.971C178.194 84.4512 181.628 87.8805 181.628 92.0949V197.549C181.628 201.763 178.194 205.193 173.971 205.193Z" fill="black"/>
<path d="M28.2186 89.4155C25.9798 89.4155 24.1584 91.2331 24.1584 93.4678V195.6C24.1584 198.153 26.2387 200.228 28.7958 200.228H172.049C174.288 200.228 176.108 198.411 176.108 196.176V93.4678C176.108 91.2331 174.288 89.4155 172.049 89.4155H28.2186ZM172.049 200.698H28.7958C25.9797 200.698 23.6886 198.411 23.6886 195.6V93.4678C23.6886 90.9739 25.7208 88.9462 28.2186 88.9462H172.049C174.546 88.9462 176.579 90.9739 176.579 93.4678V196.176C176.579 198.67 174.546 200.698 172.049 200.698Z" fill="black"/>
<path d="M30.7753 216.699H199.582C206.155 216.699 211.483 211.37 211.483 204.797H18.8735C18.8735 211.37 24.2021 216.699 30.7753 216.699Z" fill="white"/>
<path d="M19.1107 205.031C19.2363 211.357 24.4206 216.464 30.7752 216.464H199.582C205.937 216.464 211.121 211.357 211.247 205.031H19.1107ZM199.582 216.933H30.7752C24.0832 216.933 18.6387 211.489 18.6387 204.797C18.6387 204.667 18.7438 204.562 18.8735 204.562H211.483C211.614 204.562 211.719 204.667 211.719 204.797C211.719 211.489 206.274 216.933 199.582 216.933Z" fill="black"/>
<path d="M135.696 127.154L119.726 98.6102L130.358 95.375L145.165 125.327L135.696 127.154Z" fill="black"/>
<path d="M132.087 101.166H119.747C117.502 101.166 115.681 99.3451 115.681 97.0998V86.2742C115.681 84.0278 117.502 82.207 119.747 82.207H132.087V101.166Z" fill="white"/>
<path d="M119.747 82.4427C117.635 82.4427 115.915 84.1611 115.915 86.2742V97.0998C115.915 99.2128 117.635 100.931 119.747 100.931H131.852V82.4427H119.747ZM132.087 101.401H119.747C117.376 101.401 115.446 99.471 115.446 97.0998V86.2742C115.446 83.9019 117.376 81.9723 119.747 81.9723H132.087C132.217 81.9723 132.322 82.0779 132.322 82.207V101.166C132.322 101.296 132.217 101.401 132.087 101.401Z" fill="black"/>
<path d="M196.756 68.3861C196.756 68.3861 195.208 59.6875 188.635 60.3904C183.836 60.9024 153.29 71.3941 137.146 77.0219C131.175 79.1029 127.176 84.7264 127.176 91.04C127.176 98.6261 132.906 104.993 140.465 105.804L189.264 111.037C189.264 111.037 194.44 110.393 196.909 102.473C199.379 94.5515 196.756 68.3861 196.756 68.3861Z" fill="white"/>
<path d="M189.364 60.5856C189.136 60.5856 188.902 60.5974 188.66 60.623C183.945 61.1275 154.41 71.2523 137.224 77.2437C131.354 79.2896 127.411 84.8331 127.411 91.04C127.411 98.5238 133.033 104.771 140.489 105.57L189.258 110.8C189.638 110.737 194.38 109.795 196.686 102.402C199.095 94.6742 196.585 69.0443 196.523 68.4192C196.468 68.1248 194.974 60.5856 189.364 60.5856ZM189.264 111.271C189.255 111.271 189.248 111.271 189.239 111.27L140.44 106.037C132.744 105.212 126.942 98.7648 126.942 91.04C126.942 84.6336 131.011 78.911 137.07 76.8C154.275 70.8022 183.848 60.6656 188.611 60.1558C195.326 59.4389 196.971 68.256 196.987 68.3456C196.988 68.351 196.99 68.3574 196.99 68.3627C197.097 69.4336 199.589 94.6667 197.134 102.542C194.648 110.515 189.51 111.243 189.292 111.27C189.283 111.271 189.273 111.271 189.264 111.271Z" fill="black"/>
<path d="M203.3 85.7387C203.3 99.7334 197.236 111.078 189.757 111.078C182.278 111.078 176.215 99.7334 176.215 85.7387C176.215 71.743 182.278 60.3979 189.757 60.3979C197.236 60.3979 203.3 71.743 203.3 85.7387Z" fill="white"/>
<path d="M189.758 60.6336C182.42 60.6336 176.45 71.8955 176.45 85.7387C176.45 99.5808 182.42 110.844 189.758 110.844C197.095 110.844 203.065 99.5808 203.065 85.7387C203.065 71.8955 197.095 60.6336 189.758 60.6336ZM189.758 111.313C182.161 111.313 175.98 99.84 175.98 85.7387C175.98 71.6363 182.161 60.1632 189.758 60.1632C197.354 60.1632 203.535 71.6363 203.535 85.7387C203.535 99.84 197.354 111.313 189.758 111.313Z" fill="black"/>
<path d="M180.937 96.2464C180.814 96.2464 180.71 96.1504 180.703 96.0256C180.695 95.8965 180.793 95.7845 180.922 95.7771C184.486 95.5552 187.859 93.2192 189.315 89.9659C190.771 86.7115 190.262 82.6464 188.05 79.8507C186.314 77.6565 183.558 76.2645 180.675 76.1269C180.546 76.1216 180.446 76.0107 180.452 75.8816C180.457 75.7515 180.569 75.6512 180.697 75.6576C183.714 75.8016 186.6 77.2597 188.419 79.5584C190.737 82.4896 191.269 86.7488 189.744 90.1579C188.218 93.5659 184.686 96.0128 180.951 96.2453C180.947 96.2464 180.942 96.2464 180.937 96.2464Z" fill="black"/>
<path d="M193.876 105.472C193.832 105.472 193.79 105.46 193.75 105.436C193.64 105.366 193.608 105.221 193.678 105.111C196.525 100.618 198.395 95.4859 199.088 90.271C200.022 83.2352 198.83 75.8422 195.731 69.4539C195.285 68.5344 194.835 67.7344 194.355 67.008C194.283 66.9003 194.313 66.7542 194.422 66.6827C194.53 66.6112 194.676 66.6411 194.747 66.7488C195.238 67.4923 195.699 68.3104 196.154 69.2491C199.292 75.7184 200.499 83.2064 199.553 90.3328C198.852 95.615 196.958 100.812 194.074 105.362C194.03 105.434 193.954 105.472 193.876 105.472Z" fill="black"/>
<path d="M116.054 200.463L116.728 158.464C116.728 158.464 129.034 165.884 140.977 166.123C159.174 166.487 159.9 144.816 154.649 133.862L150.346 124.51C150.346 124.51 134.337 116.431 125.864 123.5L129.865 134.594L113.522 121.948C109.359 118.727 104.323 116.833 99.0653 116.515C88.8509 115.899 70.8882 115.415 55.0723 118.067C49.5862 118.987 44.9122 122.55 42.5984 127.6C38.3705 136.827 31.2482 152.716 26.4331 165.296C23.2047 173.731 27.4204 183.292 35.9357 186.341C36.4669 186.531 36.982 186.682 37.4736 186.785L36.5497 200.463H116.054Z" fill="#006689"/>
<path d="M48.2171 165.669C48.1077 165.669 48.0098 165.593 47.9872 165.482C47.9614 165.355 48.0435 165.23 48.1705 165.204C51.7924 164.468 55.5994 163.226 60.1515 161.294C60.2708 161.244 60.4088 161.299 60.4595 161.419C60.5102 161.538 60.4545 161.676 60.335 161.727C55.7532 163.67 51.9176 164.922 48.2642 165.665C48.2483 165.668 48.2326 165.669 48.2171 165.669Z" fill="black"/>
<path d="M46.2173 188.209C43.4604 188.209 40.7442 187.885 38.1277 187.229C38.0018 187.198 37.9254 187.07 37.9569 186.944C37.9884 186.818 38.1156 186.742 38.2419 186.773C45.9328 188.7 54.5091 187.724 62.3909 184.026C64.0565 183.244 65.7338 182.365 67.5184 181.338C67.6307 181.273 67.7744 181.311 67.839 181.424C67.9037 181.536 67.8651 181.68 67.7525 181.745C65.9566 182.778 64.2681 183.663 62.5904 184.45C57.2891 186.938 51.6746 188.209 46.2173 188.209Z" fill="black"/>
<path d="M51.8962 164.814C51.8768 164.814 51.8572 164.812 51.8376 164.806C51.7119 164.774 51.6364 164.646 51.6687 164.521L54.7801 152.438C54.8125 152.313 54.9398 152.237 55.0661 152.27C55.1916 152.302 55.2672 152.43 55.2349 152.556L52.1235 164.638C52.0962 164.743 52.0008 164.814 51.8962 164.814Z" fill="black"/>
<path d="M104.207 155.715C103.59 154.906 102.573 154.526 101.612 154.187C102.671 154.224 103.455 153.909 103.706 153.095C103.958 152.283 103.442 151.726 102.763 151.211C102.084 150.695 101.224 150.491 100.386 150.337C91.3607 148.686 82.1377 151.635 73.7491 155.345C69.2345 157.342 64.7872 159.58 60.2421 161.508C62.3007 167.956 65.0253 175.342 67.6339 181.538C73.1724 178.351 78.3565 174.529 83.6598 170.942C86.9927 168.687 90.8658 166.422 94.8018 167.269C95.8183 167.488 96.9895 167.882 97.8108 167.245C98.597 166.635 98.5298 165.351 97.9228 164.564C97.3169 163.777 96.3441 163.375 95.4033 163.05C94.4636 162.724 93.4759 162.422 92.7388 161.756C94.8593 161.99 96.9788 162.224 99.0993 162.458C99.5399 162.507 100.006 162.551 100.409 162.366C101.363 161.926 101.312 160.426 100.555 159.698C99.798 158.971 98.6706 158.818 97.6241 158.729C96.5767 158.64 95.4578 158.551 94.6311 157.906C97.238 158.112 99.8449 158.319 102.452 158.526C102.937 158.564 103.451 158.596 103.883 158.374C104.79 157.908 104.823 156.526 104.207 155.715Z" fill="white"/>
<path d="M100.696 154.393C100.683 154.393 100.67 154.391 100.657 154.389C98.8263 154.076 96.9575 153.879 95.1026 153.804C94.9725 153.798 94.8722 153.69 94.8775 153.559C94.8829 153.43 94.9895 153.329 95.1218 153.334C96.997 153.41 98.8861 153.61 100.736 153.926C100.864 153.949 100.95 154.07 100.928 154.197C100.908 154.313 100.809 154.393 100.696 154.393Z" fill="black"/>
<path d="M116.922 157.735C116.829 157.735 116.74 157.679 116.704 157.586C116.083 155.99 116.239 154.084 117.11 152.61C117.983 151.136 119.581 150.08 121.28 149.853C121.409 149.836 121.526 149.926 121.544 150.054C121.561 150.183 121.471 150.302 121.342 150.319C119.782 150.527 118.315 151.497 117.514 152.849C116.714 154.202 116.571 155.952 117.142 157.415C117.189 157.537 117.129 157.673 117.008 157.719C116.98 157.731 116.951 157.735 116.922 157.735Z" fill="black"/>
<path d="M128.808 131.663C128.808 131.663 143.688 134.322 152.055 128.223L150.346 124.51C150.346 124.51 152.555 122.33 150.318 121.531C150.318 121.531 152.399 117.391 148.784 117.146C148.784 117.146 151.189 111.745 145.633 112.77C145.633 112.77 148.971 106.677 142.746 108.15C137.822 109.316 136.793 110.916 136.793 110.916C136.793 110.916 139.542 104.128 136.098 104.83C135.016 105.051 133.361 105.763 131.615 106.849C126.002 110.337 123.625 117.291 125.864 123.5L128.808 131.663Z" fill="white"/>
<path d="M133.656 143.948C133.562 143.948 133.473 143.891 133.437 143.797L125.645 123.584C123.373 117.285 125.832 110.165 131.491 106.65C133.171 105.605 134.875 104.839 136.051 104.599C136.763 104.454 137.3 104.593 137.647 105.01C138.525 106.067 137.833 108.653 137.353 110.073C138.161 109.478 139.743 108.62 142.693 107.922C144.539 107.485 145.778 107.661 146.373 108.443C147.232 109.57 146.452 111.594 146.047 112.467C147.49 112.276 148.503 112.538 149.061 113.246C149.939 114.361 149.384 116.221 149.117 116.944C149.947 117.061 150.532 117.409 150.858 117.981C151.51 119.121 150.898 120.796 150.633 121.406C151.131 121.635 151.431 121.964 151.524 122.386C151.717 123.253 150.931 124.221 150.626 124.556L152.045 127.641C152.1 127.759 152.049 127.898 151.93 127.952C151.813 128.006 151.673 127.955 151.619 127.837L150.133 124.608C150.091 124.518 150.111 124.413 150.181 124.342C150.476 124.05 151.212 123.147 151.065 122.486C150.995 122.171 150.717 121.923 150.239 121.753C150.176 121.73 150.124 121.681 150.1 121.618C150.074 121.556 150.077 121.486 150.107 121.426C150.118 121.406 151.117 119.381 150.45 118.212C150.167 117.716 149.601 117.436 148.768 117.379C148.691 117.374 148.621 117.332 148.582 117.266C148.543 117.201 148.538 117.12 148.569 117.05C148.58 117.026 149.601 114.69 148.691 113.536C148.193 112.905 147.178 112.724 145.675 113.002C145.587 113.019 145.496 112.981 145.443 112.909C145.389 112.835 145.383 112.737 145.427 112.658C145.442 112.63 146.907 109.919 146 108.727C145.526 108.107 144.45 107.989 142.801 108.38C138.068 109.499 137 111.03 136.991 111.045C136.923 111.146 136.791 111.18 136.684 111.123C136.578 111.067 136.531 110.94 136.576 110.829C137.058 109.636 138.125 106.321 137.286 105.31C137.055 105.033 136.681 104.95 136.145 105.06C135.02 105.289 133.373 106.032 131.738 107.049C126.267 110.448 123.89 117.333 126.085 123.42L133.875 143.629C133.922 143.749 133.862 143.886 133.74 143.933C133.713 143.943 133.684 143.948 133.656 143.948Z" fill="black"/>
<path d="M132.373 121.075L138.477 132.881C139.519 134.898 141.938 135.779 144.037 134.908C146.302 133.968 147.348 131.353 146.354 129.115L145.955 128.215C145.955 128.215 141.446 129.031 143.214 126.016C143.214 126.016 138.109 126.624 140.632 122.642C140.632 122.642 139.378 123.057 138.27 122.553C136.647 121.817 135.335 119.758 138.697 116.865C136.098 117.991 133.656 117.542 133.656 117.542C133.656 117.542 133.001 119.815 132.373 121.075Z" fill="black"/>
<path d="M136.635 118.23C136.551 118.23 136.471 118.186 136.428 118.108C136.367 117.994 136.408 117.851 136.522 117.789C139.177 116.348 141.836 114.828 144.426 113.271C144.537 113.204 144.681 113.241 144.748 113.351C144.815 113.463 144.779 113.607 144.667 113.674C142.072 115.233 139.408 116.756 136.746 118.202C136.711 118.221 136.673 118.23 136.635 118.23Z" fill="black"/>
<path d="M138.214 124.372C138.13 124.372 138.049 124.326 138.006 124.247C137.946 124.132 137.99 123.99 138.105 123.93C141.618 122.079 145.063 120.007 148.346 117.775C148.454 117.701 148.599 117.729 148.673 117.837C148.745 117.945 148.718 118.091 148.611 118.163C145.313 120.406 141.852 122.486 138.324 124.346C138.289 124.364 138.251 124.372 138.214 124.372Z" fill="black"/>
<path d="M141.343 127.222C141.259 127.222 141.179 127.179 141.137 127.101C141.074 126.987 141.115 126.844 141.228 126.782L148.873 122.576C148.986 122.514 149.129 122.555 149.192 122.669C149.254 122.782 149.213 122.925 149.099 122.988L141.456 127.194C141.419 127.213 141.381 127.222 141.343 127.222Z" fill="black"/>
<path d="M134.114 118.112C134.11 118.112 134.105 118.112 134.102 118.112C133.106 118.06 132.421 117.073 132.357 116.189C132.214 114.186 133.669 112.342 136.682 110.71C136.795 110.649 136.938 110.691 137 110.804C137.062 110.918 137.019 111.061 136.905 111.123C134.069 112.659 132.696 114.353 132.826 116.155C132.875 116.841 133.386 117.604 134.126 117.643C134.256 117.65 134.355 117.76 134.348 117.89C134.342 118.015 134.239 118.112 134.114 118.112Z" fill="black"/>
<path d="M93.83 90.4576C93.83 90.4576 109.711 82.7125 97.2583 74.2475C84.8069 65.7824 83.3915 78.7477 79.3931 79.2907C70.9916 80.4309 65.6781 96.5813 82.8219 101.264C99.9655 105.947 93.83 90.4576 93.83 90.4576Z" fill="black"/>
<path d="M76.7665 85.5542C76.7665 85.5542 74.7614 66.7424 62.2494 76.1088C49.7375 85.4741 46.3689 69.3846 39.1505 81.151C31.932 92.9184 26.398 85.8742 20.142 89.5563C13.0104 93.7547 14.4895 104.249 20.9861 106.41C27.4827 108.571 14.3102 118.635 26.8791 120.295C37.9887 121.763 35.2205 130.062 43.8023 129.261C51.7896 128.516 48.6146 119.254 52.9457 116.373C62.4802 110.029 49.8979 105.967 59.0413 103.325C68.1846 100.684 59.362 92.3584 67.6231 93.5595C73.8731 94.4672 76.7665 85.5542 76.7665 85.5542Z" fill="black"/>
<path d="M83.4824 96.9664L73.4966 117.148C73.4966 117.148 70.3701 129.001 87.6946 128.1C96.3239 127.651 98.2706 120.319 91.845 117.294L89.5485 116.643L95.4109 100.901L83.4824 96.9664Z" fill="white"/>
<path d="M73.4963 117.383C73.462 117.383 73.4269 117.375 73.3938 117.359C73.2772 117.302 73.2287 117.162 73.2854 117.045L84.4154 94.1771C84.4719 94.0597 84.6124 94.0118 84.7293 94.0683C84.846 94.1248 84.8944 94.2656 84.8377 94.3819L73.7077 117.251C73.6671 117.334 73.5836 117.383 73.4963 117.383Z" fill="black"/>
<path d="M89.2008 118.195C89.173 118.195 89.1464 118.191 89.1197 118.181C88.9981 118.137 88.9352 118.002 88.98 117.881L95.1069 101.049L83.4088 97.1894C83.2856 97.1488 83.2187 97.0166 83.2593 96.8928C83.2998 96.7702 83.4323 96.703 83.556 96.7435L95.4845 100.678C95.5442 100.699 95.5944 100.742 95.6221 100.799C95.6498 100.857 95.653 100.923 95.6306 100.982L89.4205 118.041C89.3864 118.137 89.2957 118.195 89.2008 118.195Z" fill="black"/>
<path d="M101.439 90.4992C101.873 92.863 101.884 95.3515 101.083 97.6182C100.283 99.8848 98.5991 101.905 96.3496 102.763C94.3997 103.507 92.1682 103.329 90.2418 102.526C88.3154 101.723 86.6759 100.335 85.3372 98.736C83.2801 99.4656 80.7742 98.6144 79.5894 96.784C78.9059 95.7291 78.6654 94.3243 79.2235 93.1979C79.7817 92.0704 81.2506 91.3963 82.3894 91.9339C83.0385 92.24 83.5001 92.864 84.1613 93.1435C84.8983 93.4539 85.7778 93.2704 86.4424 92.8246C87.1058 92.3798 87.5837 91.7056 87.9634 91.0027C89.1623 88.7904 89.5197 86.1366 88.9479 83.6875C89.0023 83.919 90.2354 84.2678 90.4541 84.3424C91.0066 84.5291 91.5762 84.6656 92.1522 84.7552C93.2893 84.9312 94.4551 84.9195 95.5879 84.7232C96.1629 84.624 96.7293 84.4768 97.2797 84.2816C97.717 84.127 98.2834 83.7152 98.7485 83.7099C99.7213 83.6992 100.01 85.4688 100.246 86.1536C100.734 87.5755 101.167 89.0198 101.439 90.4992Z" fill="white"/>
<path d="M85.3371 98.5003C85.4054 98.5003 85.4717 98.5301 85.5171 98.5845C86.9821 100.334 88.6024 101.587 90.3325 102.308C92.3218 103.138 94.484 103.223 96.2664 102.544C98.3144 101.762 100.033 99.8912 100.863 97.5403C101.574 95.5243 101.69 93.1691 101.207 90.5419C100.974 89.2736 100.598 87.904 100.023 86.2293C99.9816 86.1067 99.9378 85.9509 99.8888 85.776C99.684 85.0464 99.3757 83.9445 98.757 83.9445C98.7549 83.9445 98.7528 83.9445 98.7506 83.9445C98.5032 83.9477 98.1885 84.1077 97.8824 84.2624C97.6989 84.3563 97.5261 84.4437 97.3586 84.5035C96.8018 84.6997 96.2205 84.8523 95.6285 84.9547C94.4616 85.1563 93.2797 85.168 92.116 84.9877C91.5229 84.896 90.9384 84.7531 90.3794 84.5643C90.3496 84.5547 90.3005 84.5397 90.2376 84.5195C89.8258 84.3915 89.5176 84.2848 89.2904 84.1899C89.701 86.5312 89.3021 89.0251 88.1704 91.1147C87.6861 92.0085 87.1784 92.6133 86.5725 93.0197C85.7849 93.5477 84.8258 93.6779 84.07 93.36C83.6954 93.2021 83.3875 92.9483 83.0898 92.704C82.8251 92.4864 82.5751 92.2805 82.2893 92.1461C81.3208 91.6896 79.9599 92.24 79.4339 93.3013C78.955 94.2688 79.0935 95.5861 79.7867 96.6571C80.908 98.3893 83.3118 99.2043 85.2586 98.5141C85.2843 98.5056 85.3109 98.5003 85.3371 98.5003ZM93.6989 103.468C92.5234 103.468 91.3085 103.225 90.1512 102.742C88.3922 102.009 86.7474 100.753 85.2605 99.0091C83.1466 99.6736 80.5972 98.7733 79.3923 96.912C78.5989 95.6864 78.4535 94.2229 79.013 93.0933C79.6569 91.7931 81.2816 91.152 82.4896 91.7216C82.8282 91.8816 83.1129 92.1152 83.388 92.3413C83.6722 92.5749 83.9407 92.7958 84.2524 92.927C84.8643 93.184 85.6533 93.0709 86.3112 92.6293C86.852 92.2677 87.3117 91.7152 87.7576 90.8907C88.9256 88.7349 89.2765 86.128 88.7197 83.7408C88.6898 83.6139 88.7688 83.488 88.8946 83.4581C89.0077 83.4325 89.1197 83.4923 89.1645 83.5947C89.2381 83.664 89.5133 83.8016 90.3784 84.0715C90.4445 84.0917 90.4978 84.1088 90.5298 84.1195C91.0632 84.2997 91.621 84.4352 92.1885 84.5237C93.301 84.6955 94.4317 84.6848 95.5485 84.4917C96.1138 84.3936 96.6706 84.2485 97.2018 84.0608C97.3405 84.0117 97.5005 83.9296 97.6701 83.8432C98.0232 83.664 98.389 83.4784 98.7464 83.4752C99.7245 83.4624 100.098 84.7787 100.341 85.6491C100.387 85.8144 100.429 85.9616 100.468 86.0768C101.05 87.7739 101.432 89.1648 101.669 90.4565C102.167 93.1659 102.045 95.6021 101.305 97.696C100.431 100.176 98.6088 102.153 96.4338 102.982C95.5837 103.307 94.6546 103.468 93.6989 103.468Z" fill="black"/>
<path d="M81.8624 94.9067C83.0097 94.8502 84.1595 95.5392 84.6477 96.5771L81.8624 94.9067Z" fill="white"/>
<path d="M84.6477 96.8117C84.5595 96.8117 84.4751 96.7616 84.435 96.6773C83.9849 95.7205 82.9321 95.0891 81.8741 95.1413C81.7486 95.1467 81.6343 95.0485 81.6279 94.9184C81.6213 94.7893 81.7211 94.6795 81.8507 94.6731C83.0939 94.6112 84.3313 95.3525 84.8601 96.4768C84.9153 96.5941 84.8649 96.7339 84.7476 96.7893C84.7152 96.8043 84.6812 96.8117 84.6477 96.8117Z" fill="black"/>
<path d="M117.748 200.698H35.0047C34.8749 200.698 34.7698 200.593 34.7698 200.463C34.7698 200.334 34.8749 200.228 35.0047 200.228H117.748C117.877 200.228 117.983 200.334 117.983 200.463C117.983 200.593 117.877 200.698 117.748 200.698Z" fill="black"/>
<path d="M68.6246 24.1014L109.026 52.0225L106.508 40.7414L68.6246 24.1014Z" fill="white"/>
<path d="M70.7769 25.3035L108.665 51.488L106.305 40.9088L70.7769 25.3035ZM109.026 52.2571C108.979 52.2571 108.932 52.2432 108.893 52.2155L68.4912 24.2944C68.3915 24.2251 68.3606 24.0928 68.4197 23.9861C68.4784 23.8805 68.6077 23.8379 68.7192 23.8859L106.603 40.527C106.672 40.5568 106.722 40.6176 106.738 40.6901L109.255 51.9712C109.275 52.0651 109.237 52.1622 109.157 52.2166C109.118 52.2432 109.072 52.2571 109.026 52.2571Z" fill="black"/>
<path d="M119.254 30.7477L65.9266 21.9925L92.5906 56.9077L106.139 43.4784L109.026 52.0224V40.7061L119.254 30.7477Z" fill="white"/>
<path d="M66.4723 22.32L92.6141 56.5536L105.974 43.312C106.032 43.2544 106.115 43.2309 106.194 43.2501C106.273 43.2682 106.337 43.3258 106.362 43.4037L108.791 50.593V40.7061C108.791 40.6432 108.817 40.5824 108.862 40.5376L118.756 30.9045L66.4723 22.32ZM92.5896 57.1434C92.5843 57.1434 92.5789 57.1424 92.5736 57.1424C92.5064 57.1381 92.4445 57.104 92.4029 57.0506L65.7399 22.1354C65.6815 22.0586 65.6758 21.9541 65.7253 21.872C65.7748 21.7888 65.8705 21.745 65.9647 21.761L119.291 30.5162C119.379 30.5301 119.451 30.593 119.478 30.6773C119.505 30.7616 119.481 30.8544 119.417 30.9162L109.261 40.8053V52.0224C109.261 52.1365 109.177 52.2346 109.063 52.2538C108.95 52.272 108.84 52.2058 108.803 52.097L106.038 43.9104L92.756 57.0752C92.7112 57.1189 92.6515 57.1434 92.5896 57.1434Z" fill="black"/>
<path d="M109.026 40.9408C108.995 40.9408 108.963 40.9344 108.932 40.9216L65.9684 22.3339C65.8493 22.2827 65.7945 22.144 65.846 22.0245C65.8975 21.9061 66.0355 21.8507 66.1548 21.9029L109.119 40.4907C109.238 40.5419 109.292 40.6805 109.241 40.7989C109.203 40.8885 109.116 40.9408 109.026 40.9408Z" fill="black"/>
<path d="M106.139 43.7131C106.102 43.7131 106.065 43.7045 106.03 43.6853L65.9512 22.3253C65.8368 22.2645 65.7935 22.1227 65.8544 22.0075C65.9155 21.8933 66.0575 21.8496 66.1721 21.9104L106.25 43.2715C106.364 43.3323 106.408 43.4741 106.347 43.5893C106.305 43.6683 106.224 43.7131 106.139 43.7131Z" fill="black"/>
<path d="M169.026 161.97L214.932 159.683L189.798 193.978L180.331 178.821L172.299 181.083L174.46 171.392L169.026 161.97Z" fill="white"/>
<path d="M180.331 178.587C180.41 178.587 180.487 178.627 180.53 178.698L189.814 193.558L214.451 159.942L169.42 162.186L174.664 171.275C174.693 171.325 174.703 171.386 174.69 171.442L172.614 180.75L180.267 178.595C180.289 178.59 180.31 178.587 180.331 178.587ZM189.798 194.212C189.796 194.212 189.793 194.212 189.789 194.212C189.712 194.209 189.64 194.167 189.6 194.101L180.226 179.095L172.363 181.309C172.283 181.331 172.198 181.31 172.137 181.253C172.077 181.197 172.052 181.113 172.07 181.031L174.211 171.429L168.822 162.087C168.781 162.016 168.78 161.93 168.819 161.857C168.858 161.786 168.932 161.74 169.014 161.735L214.92 159.449C215.009 159.444 215.096 159.492 215.139 159.572C215.183 159.652 215.175 159.749 215.122 159.822L189.988 194.116C189.943 194.177 189.873 194.212 189.798 194.212Z" fill="black"/>
<path d="M169.026 161.97L214.932 159.683L179.641 170.453L169.026 161.97Z" fill="white"/>
<path d="M169.656 162.174L179.691 170.193L213.05 160.013L169.656 162.174ZM179.641 170.689C179.588 170.689 179.537 170.671 179.494 170.637L168.879 162.154C168.803 162.093 168.772 161.99 168.802 161.898C168.832 161.805 168.916 161.74 169.014 161.735L214.92 159.449C215.04 159.444 215.143 159.526 215.163 159.643C215.184 159.76 215.114 159.873 215.001 159.908L179.71 170.678C179.687 170.685 179.664 170.689 179.641 170.689Z" fill="black"/>
<path d="M183.735 174.946L214.932 159.683L189.798 193.978L183.735 174.946Z" fill="white"/>
<path d="M184.02 175.068L189.882 193.466L214.18 160.313L184.02 175.068ZM189.798 194.212C189.786 194.212 189.773 194.211 189.761 194.209C189.673 194.195 189.602 194.133 189.575 194.049L183.511 175.018C183.476 174.907 183.527 174.786 183.632 174.735L214.829 159.472C214.927 159.425 215.043 159.45 215.112 159.533C215.181 159.616 215.186 159.735 215.122 159.822L189.988 194.116C189.943 194.177 189.873 194.212 189.798 194.212Z" fill="black"/>
<path d="M282.985 205.47L219.012 184.254L233.465 140.842L273.566 124.452L297.439 162.058L282.985 205.47Z" fill="white"/>
<path d="M219.31 184.106L282.837 205.173L297.181 162.089L273.473 124.745L233.654 141.018L219.31 184.106ZM282.985 205.705C282.962 205.705 282.936 205.701 282.912 205.693L218.938 184.477C218.88 184.458 218.831 184.415 218.803 184.36C218.774 184.304 218.77 184.239 218.79 184.18L233.242 140.767C233.265 140.702 233.314 140.65 233.377 140.624L273.477 124.236C273.582 124.192 273.703 124.23 273.764 124.326L297.637 161.932C297.675 161.99 297.684 162.064 297.662 162.131L283.208 205.545C283.176 205.643 283.085 205.705 282.985 205.705Z" fill="black"/>
<path d="M256.826 177.746C256.749 177.746 256.674 177.707 256.629 177.639L234.783 144.191C234.711 144.083 234.742 143.937 234.851 143.867C234.96 143.795 235.105 143.826 235.176 143.935L256.919 177.225L293.925 163.182C294.048 163.136 294.182 163.197 294.229 163.318C294.275 163.439 294.213 163.574 294.093 163.621L256.91 177.73C256.882 177.741 256.854 177.746 256.826 177.746Z" fill="black"/>
<path d="M282.173 167.824L256.857 177.523L241.792 154.432L250.48 128.334L290.862 141.726L282.173 167.824Z" fill="white"/>
<path d="M242.05 154.399L256.95 177.235L281.986 167.645L290.565 141.875L250.629 128.63L242.05 154.399ZM256.857 177.758C256.779 177.758 256.705 177.719 256.661 177.651L241.594 154.56C241.555 154.5 241.545 154.426 241.569 154.357L250.257 128.259C250.298 128.137 250.431 128.07 250.554 128.111L290.936 141.503C290.995 141.522 291.044 141.565 291.072 141.62C291.099 141.676 291.105 141.741 291.085 141.799L282.395 167.899C282.374 167.965 282.323 168.018 282.257 168.044L256.942 177.742C256.914 177.753 256.885 177.758 256.857 177.758Z" fill="black"/>
<path d="M259.224 147.557C258.577 149.504 256.469 150.558 254.519 149.911C252.568 149.264 251.512 147.162 252.161 145.215C252.808 143.267 254.915 142.213 256.866 142.861C258.817 143.507 259.873 145.611 259.224 147.557Z" fill="#006689"/>
<path d="M269.532 150.976C268.884 152.923 266.777 153.977 264.826 153.329C262.875 152.683 261.819 150.58 262.468 148.633C263.116 146.686 265.223 145.632 267.174 146.279C269.124 146.926 270.18 149.028 269.532 150.976Z" fill="#006689"/>
<path d="M279.84 154.394C279.191 156.341 277.084 157.395 275.134 156.748C273.184 156.101 272.128 153.998 272.775 152.051C273.424 150.105 275.53 149.051 277.481 149.697C279.432 150.345 280.488 152.447 279.84 154.394Z" fill="#006689"/>
</svg>
