<svg width="320" height="240" viewBox="0 0 320 240" fill="none" xmlns="http://www.w3.org/2000/svg">
<g clip-path="url(#clip0_4446_115141)">
<path d="M21.1385 234.272L21.2592 178.672H296.92L297 234.272H21.1385Z" fill="white"/>
<path d="M296.817 178.565H21.0572C20.9345 178.565 20.835 178.467 20.835 178.343C20.835 178.221 20.9345 178.122 21.0572 178.122H296.817C296.941 178.122 297.04 178.221 297.04 178.343C297.04 178.467 296.941 178.565 296.817 178.565Z" fill="#191C1E"/>
<path d="M217.563 232.26C217.474 232.26 217.39 232.206 217.356 232.119L196.209 178.425C196.164 178.311 196.221 178.181 196.334 178.137C196.449 178.093 196.578 178.148 196.622 178.262L217.77 231.956C217.815 232.07 217.759 232.199 217.645 232.244C217.617 232.255 217.59 232.26 217.563 232.26Z" fill="#191C1E"/>
<path d="M297.064 232.043C297.002 232.043 296.941 232.017 296.897 231.967L250.158 178.49C250.076 178.398 250.086 178.257 250.179 178.177C250.271 178.096 250.412 178.105 250.494 178.198L297.232 231.675C297.312 231.766 297.302 231.906 297.209 231.988C297.167 232.025 297.116 232.043 297.064 232.043Z" fill="#191C1E"/>
<path d="M21.0567 192.26C21.0049 192.26 20.9526 192.242 20.9105 192.205C20.8182 192.125 20.8089 191.985 20.8897 191.892L32.8723 178.198C32.9532 178.105 33.0935 178.096 33.1857 178.177C33.2781 178.257 33.2874 178.398 33.2068 178.49L21.2239 192.184C21.1799 192.235 21.1185 192.26 21.0567 192.26Z" fill="#191C1E"/>
<path d="M141.174 232.187C141.052 232.187 140.952 232.087 140.952 231.964L140.933 178.344C140.933 178.221 141.032 178.122 141.154 178.122C141.277 178.122 141.377 178.221 141.377 178.344L141.395 231.964C141.395 232.087 141.297 232.187 141.174 232.187Z" fill="#191C1E"/>
<path d="M64.3632 232.251C64.3357 232.251 64.308 232.246 64.2808 232.235C64.167 232.19 64.1115 232.06 64.157 231.947L85.4402 178.702C85.4858 178.588 85.6147 178.532 85.7289 178.578C85.8427 178.623 85.8982 178.753 85.8526 178.866L64.5695 232.111C64.5348 232.198 64.4514 232.251 64.3632 232.251Z" fill="#191C1E"/>
<path d="M124.056 126.021C123.981 126.021 123.908 125.983 123.866 125.914C123.803 125.809 123.836 125.673 123.941 125.609L216.945 69.0692C217.014 69.0273 217.102 69.0254 217.172 69.0654L297.175 115.264C297.282 115.324 297.318 115.46 297.257 115.566C297.194 115.673 297.059 115.709 296.952 115.648L217.064 69.5166L124.171 125.989C124.136 126.01 124.095 126.021 124.056 126.021Z" fill="#191C1E"/>
<path d="M225.127 84.0729C225.102 84.0729 225.075 84.0683 225.052 84.0592L211.778 79.2272L197.676 81.4335C197.553 81.4519 197.44 81.3693 197.42 81.2484C197.403 81.126 197.486 81.0128 197.607 80.9944L211.766 78.7804C211.803 78.7743 211.841 78.7773 211.876 78.7911L225.131 83.6154L236.03 80.211C236.146 80.1728 236.273 80.2385 236.309 80.3564C236.345 80.4727 236.281 80.5981 236.163 80.6348L225.194 84.0622C225.171 84.0699 225.15 84.0729 225.127 84.0729Z" fill="#191C1E"/>
<path d="M236.674 79.7394C236.602 79.7394 236.53 79.7034 236.488 79.6371C236.421 79.5339 236.451 79.3965 236.554 79.3303L269.254 58.3727C269.324 58.327 269.414 58.327 269.486 58.3689L297.316 74.8796C297.423 74.9425 297.457 75.0777 297.394 75.1844C297.332 75.2892 297.196 75.3235 297.092 75.2606L269.378 58.8204L236.794 79.7042C236.756 79.7282 236.714 79.7394 236.674 79.7394Z" fill="#191C1E"/>
<path d="M278.94 75.2916C278.901 75.2916 278.863 75.2823 278.828 75.262L266.537 68.0131L250.068 71.1776C249.948 71.1979 249.832 71.1222 249.81 71.0002C249.786 70.8802 249.865 70.7638 249.985 70.7416L266.535 67.5605C266.587 67.5513 266.643 67.5605 266.691 67.5882L278.94 74.8131L287.689 69.6979C287.796 69.6351 287.931 69.672 287.994 69.7773C288.055 69.8826 288.02 70.0193 287.915 70.0803L279.053 75.262C279.018 75.2823 278.979 75.2916 278.94 75.2916Z" fill="#191C1E"/>
<path d="M21.0481 139.368C20.9782 139.368 20.9096 139.335 20.8663 139.273C20.7955 139.174 20.8195 139.034 20.9198 138.964L77.5483 99.038C77.6323 98.9795 77.7457 98.9846 77.8228 99.0524L115.91 132.441C116.003 132.522 116.011 132.663 115.931 132.755C115.85 132.846 115.71 132.856 115.618 132.776L77.6613 99.5017L21.1758 139.326C21.1368 139.354 21.0923 139.368 21.0481 139.368Z" fill="#006689"/>
<path d="M38.6816 126.021C38.559 126.021 38.4596 125.921 38.4596 125.799V97.8971C38.4596 97.774 38.559 97.6748 38.6816 97.6748C38.8044 97.6748 38.9038 97.774 38.9038 97.8971V125.799C38.9038 125.921 38.8044 126.021 38.6816 126.021Z" fill="#191C1E"/>
<path d="M34.6609 101.281C34.604 101.281 34.547 101.259 34.5036 101.215C34.4172 101.129 34.4172 100.989 34.5041 100.901L38.5233 96.8907C38.6102 96.8045 38.7502 96.8045 38.837 96.8907L42.8562 100.901C42.9431 100.989 42.9431 101.129 42.8566 101.215C42.7699 101.303 42.6293 101.303 42.5425 101.216L38.6802 97.3615L34.8176 101.216C34.7744 101.259 34.7177 101.281 34.6609 101.281Z" fill="#191C1E"/>
<path d="M34.6603 107.331C34.6036 107.331 34.5465 107.309 34.5031 107.266C34.4166 107.179 34.4166 107.039 34.5035 106.952L38.5228 102.941C38.6097 102.854 38.7497 102.854 38.8364 102.941L42.8556 106.952C42.9426 107.039 42.9426 107.179 42.856 107.266C42.7693 107.354 42.6288 107.353 42.542 107.267L38.6796 103.412L34.8172 107.267C34.7738 107.309 34.7172 107.331 34.6603 107.331Z" fill="#191C1E"/>
<path d="M34.6603 113.38C34.6036 113.38 34.5465 113.358 34.5031 113.315C34.4166 113.228 34.4166 113.087 34.5035 113L38.5228 108.99C38.6097 108.903 38.7497 108.903 38.8364 108.99L42.8556 113C42.9426 113.087 42.9426 113.228 42.856 113.315C42.7693 113.402 42.6288 113.402 42.542 113.315L38.6796 109.461L34.8172 113.315C34.7738 113.358 34.7172 113.38 34.6603 113.38Z" fill="#191C1E"/>
<path d="M34.6603 119.429C34.6036 119.429 34.5465 119.407 34.5031 119.363C34.4166 119.277 34.4166 119.136 34.5035 119.05L38.5228 115.038C38.6097 114.952 38.7497 114.952 38.8364 115.038L42.8556 119.05C42.9426 119.136 42.9426 119.277 42.856 119.363C42.7693 119.451 42.6288 119.45 42.542 119.364L38.6796 115.509L34.8172 119.364C34.7738 119.407 34.7172 119.429 34.6603 119.429Z" fill="#191C1E"/>
<path d="M28.2236 133.47C28.1011 133.47 28.0016 133.371 28.0016 133.248L27.998 111.742C27.998 111.62 28.0974 111.52 28.2202 111.52C28.3426 111.52 28.4422 111.62 28.4422 111.742L28.4457 133.248C28.4457 133.37 28.3463 133.47 28.2236 133.47Z" fill="#191C1E"/>
<path d="M32.2388 115.127C32.1819 115.127 32.1254 115.106 32.082 115.062L28.2195 111.208L24.3571 115.062C24.2702 115.149 24.1294 115.149 24.043 115.061C23.9564 114.975 23.9566 114.834 24.0433 114.748L28.0627 110.737C28.1494 110.651 28.2895 110.651 28.3762 110.737L32.3956 114.748C32.4825 114.834 32.4825 114.975 32.396 115.061C32.3527 115.106 32.2956 115.127 32.2388 115.127Z" fill="#191C1E"/>
<path d="M32.2388 121.176C32.1819 121.176 32.1254 121.154 32.082 121.111L28.2195 117.257L24.3571 121.111C24.2702 121.198 24.1294 121.198 24.043 121.111C23.9564 121.024 23.9566 120.883 24.0433 120.796L28.0627 116.786C28.1494 116.699 28.2895 116.699 28.3762 116.786L32.3956 120.796C32.4825 120.883 32.4825 121.024 32.396 121.111C32.3527 121.154 32.2956 121.176 32.2388 121.176Z" fill="#191C1E"/>
<path d="M32.2388 127.224C32.1819 127.224 32.1254 127.203 32.082 127.16L28.2195 123.306L24.3571 127.16C24.2702 127.247 24.1294 127.247 24.043 127.159C23.9564 127.072 23.9566 126.932 24.0433 126.845L28.0627 122.834C28.1494 122.748 28.2895 122.748 28.3762 122.834L32.3956 126.845C32.4825 126.932 32.4825 127.072 32.396 127.159C32.3527 127.203 32.2956 127.224 32.2388 127.224Z" fill="#191C1E"/>
<path d="M263.652 110.386C263.53 110.386 263.429 110.287 263.429 110.164V89.2256C263.429 89.1033 263.53 89.0031 263.652 89.0031C263.774 89.0031 263.875 89.1033 263.875 89.2256V110.164C263.875 110.287 263.774 110.386 263.652 110.386Z" fill="#191C1E"/>
<path d="M260.256 91.6869C260.192 91.6869 260.129 91.6594 260.086 91.6078C260.006 91.5132 260.018 91.3722 260.113 91.2948L263.512 88.4533C263.594 88.3845 263.715 88.3845 263.797 88.4533L267.194 91.2948C267.289 91.3722 267.301 91.5132 267.222 91.6078C267.144 91.7007 267.003 91.7145 266.911 91.6353L263.653 88.9126L260.399 91.6353C260.357 91.6697 260.307 91.6869 260.256 91.6869Z" fill="#191C1E"/>
<path d="M260.256 95.9714C260.192 95.9714 260.129 95.9442 260.086 95.8918C260.006 95.7977 260.018 95.6575 260.113 95.5787L263.512 92.7383C263.594 92.6695 263.715 92.6695 263.797 92.7383L267.194 95.5787C267.289 95.6575 267.301 95.7977 267.222 95.8918C267.144 95.9857 267.003 95.9986 266.911 95.9198L263.653 93.1975L260.399 95.9198C260.357 95.9545 260.307 95.9714 260.256 95.9714Z" fill="#191C1E"/>
<path d="M260.256 100.255C260.192 100.255 260.129 100.228 260.086 100.176C260.006 100.082 260.018 99.9415 260.113 99.8629L263.512 97.0219C263.594 96.953 263.715 96.953 263.797 97.0219L267.194 99.8629C267.289 99.9415 267.301 100.082 267.222 100.176C267.144 100.27 267.003 100.282 266.911 100.204L263.653 97.4819L260.399 100.204C260.357 100.238 260.307 100.255 260.256 100.255Z" fill="#191C1E"/>
<path d="M267.052 104.54C267.002 104.54 266.952 104.523 266.911 104.488L263.653 101.766L260.399 104.488C260.304 104.567 260.165 104.554 260.086 104.46C260.006 104.366 260.018 104.226 260.113 104.147L263.512 101.307C263.594 101.238 263.715 101.238 263.797 101.307L267.194 104.147C267.289 104.226 267.301 104.366 267.222 104.46C267.177 104.513 267.115 104.54 267.052 104.54Z" fill="#191C1E"/>
<path d="M275.489 103.29C275.365 103.29 275.267 103.191 275.267 103.068V77.789C275.267 77.665 275.365 77.5658 275.489 77.5658C275.611 77.5658 275.71 77.665 275.71 77.789V103.068C275.71 103.191 275.611 103.29 275.489 103.29Z" fill="#191C1E"/>
<path d="M272.393 80.7228C272.341 80.7228 272.287 80.7049 272.246 80.6655C272.153 80.5849 272.146 80.4434 272.228 80.3521L275.324 76.912C275.41 76.8189 275.572 76.8189 275.656 76.912L278.752 80.3521C278.834 80.4434 278.827 80.5849 278.736 80.6655C278.644 80.7478 278.505 80.7407 278.422 80.6493L275.491 77.392L272.56 80.6493C272.515 80.6995 272.454 80.7228 272.393 80.7228Z" fill="#191C1E"/>
<path d="M272.393 85.9127C272.341 85.9127 272.287 85.893 272.246 85.8554C272.153 85.773 272.146 85.6333 272.228 85.542L275.324 82.1002C275.41 82.0071 275.572 82.0071 275.656 82.1002L278.752 85.542C278.834 85.6333 278.827 85.773 278.736 85.8554C278.644 85.9378 278.505 85.9306 278.422 85.8393L275.491 82.5819L272.56 85.8393C272.515 85.8876 272.454 85.9127 272.393 85.9127Z" fill="#191C1E"/>
<path d="M272.393 91.1011C272.341 91.1011 272.287 91.0821 272.246 91.044C272.153 90.962 272.146 90.8216 272.228 90.7304L275.324 87.2897C275.41 87.1959 275.572 87.1959 275.656 87.2897L278.752 90.7304C278.834 90.8216 278.827 90.962 278.736 91.044C278.644 91.1258 278.505 91.1189 278.422 91.0275L275.491 87.7703L272.56 91.0275C272.515 91.0762 272.454 91.1011 272.393 91.1011Z" fill="#191C1E"/>
<path d="M278.587 96.29C278.526 96.29 278.465 96.2652 278.422 96.2165L275.491 92.9595L272.56 96.2165C272.477 96.3079 272.336 96.315 272.246 96.233C272.153 96.151 272.146 96.0104 272.228 95.9194L275.324 92.4789C275.41 92.3852 275.572 92.3852 275.656 92.4789L278.752 95.9194C278.834 96.0104 278.827 96.151 278.736 96.233C278.693 96.2711 278.641 96.29 278.587 96.29Z" fill="#191C1E"/>
<path d="M287.801 109.716C287.678 109.716 287.58 109.616 287.58 109.494V88.9436C287.58 88.8207 287.678 88.7214 287.801 88.7214C287.923 88.7214 288.023 88.8207 288.023 88.9436V109.494C288.023 109.616 287.923 109.716 287.801 109.716Z" fill="#191C1E"/>
<path d="M291.741 92.2682C291.683 92.2682 291.626 92.2464 291.583 92.2032L287.801 88.4267L284.021 92.2032C283.933 92.2897 283.794 92.2899 283.707 92.203C283.62 92.1164 283.62 91.9756 283.707 91.8888L287.644 87.9556C287.732 87.8692 287.872 87.8692 287.958 87.9556L291.898 91.8888C291.984 91.9756 291.984 92.1162 291.898 92.203C291.855 92.2464 291.797 92.2682 291.741 92.2682Z" fill="#191C1E"/>
<path d="M291.741 98.1992C291.683 98.1992 291.626 98.1775 291.583 98.1345L287.801 94.3579L284.021 98.1345C283.933 98.2207 283.794 98.2209 283.707 98.1343C283.62 98.0473 283.62 97.9067 283.707 97.8199L287.644 93.8869C287.732 93.8006 287.872 93.8006 287.958 93.8869L291.898 97.8199C291.984 97.9067 291.984 98.0473 291.898 98.1343C291.855 98.1775 291.797 98.1992 291.741 98.1992Z" fill="#191C1E"/>
<path d="M291.741 104.131C291.683 104.131 291.626 104.109 291.583 104.066L287.801 100.289L284.021 104.066C283.933 104.152 283.794 104.152 283.707 104.066C283.62 103.979 283.62 103.838 283.707 103.751L287.644 99.8182C287.732 99.7319 287.872 99.7319 287.958 99.8182L291.898 103.751C291.984 103.838 291.984 103.979 291.898 104.066C291.855 104.109 291.797 104.131 291.741 104.131Z" fill="#191C1E"/>
<path d="M136.875 61.6897H75.967C75.8442 61.6897 75.7448 61.5906 75.7448 61.4674C75.7448 61.3441 75.8442 61.245 75.967 61.245H136.453C135.902 60.4883 134.405 58.6198 132.084 57.2403C128.129 54.8883 123.784 54.9928 119.171 57.5523C119.073 57.6059 118.951 57.5805 118.885 57.4907C118.818 57.401 112.029 48.4352 102.93 48.3361C102.879 48.3361 102.828 48.3361 102.776 48.3361C97.3902 48.3361 92.2574 51.4166 87.516 57.4948C87.4407 57.5912 87.301 57.6086 87.2044 57.5336C87.1076 57.4586 87.0905 57.3179 87.166 57.2215C91.9953 51.0296 97.247 47.8914 102.775 47.8914C102.83 47.8914 102.883 47.8914 102.937 47.8927C111.588 47.9878 118.167 55.8674 119.122 57.0728C124.978 53.8945 129.53 55.2004 132.326 56.8679C135.376 58.6855 136.997 61.2423 137.064 61.3495C137.107 61.4178 137.108 61.5049 137.07 61.5745C137.03 61.6455 136.955 61.6897 136.875 61.6897Z" fill="#191C1E"/>
<path d="M70.7129 79.7808H24.5142C24.3916 79.7808 24.2922 79.6809 24.2922 79.5578C24.2922 79.4359 24.3916 79.336 24.5142 79.336H70.2992C69.8263 78.661 68.6116 77.0978 66.735 75.8672C63.4639 73.7203 59.835 73.5424 55.9487 75.3396C55.8908 75.3664 55.8245 75.3664 55.767 75.3408C55.7089 75.3164 55.6642 75.2665 55.6446 75.2068C55.6208 75.1349 53.1836 68.0509 43.8628 68.0509C39.6432 68.0509 34.0021 70.1466 30.8243 76.0292C30.7662 76.1364 30.6317 76.1779 30.5231 76.1194C30.4155 76.0609 30.3752 75.9256 30.4335 75.8184C33.7041 69.764 39.5153 67.6062 43.8628 67.6062C52.5421 67.6062 55.4602 73.5789 55.9783 74.8376C65.4751 70.6169 70.85 79.3543 70.9035 79.4445C70.9446 79.5127 70.9457 79.598 70.9062 79.6674C70.8667 79.7369 70.793 79.7808 70.7129 79.7808Z" fill="#191C1E"/>
<path d="M250.091 182.705C250.091 185.345 244.636 187.485 237.906 187.485C231.175 187.485 225.72 185.345 225.72 182.705C225.72 180.065 231.175 177.925 237.906 177.925C244.636 177.925 250.091 180.065 250.091 182.705Z" fill="#191C1E"/>
<path d="M247.815 174.751C247.815 180.066 243.507 184.374 238.192 184.374C232.878 184.374 228.569 180.066 228.569 174.751V37.7709C228.569 32.4563 232.878 28.1479 238.192 28.1479C243.507 28.1479 247.815 32.4563 247.815 37.7709V174.751Z" fill="white"/>
<path d="M237.836 185.919C232.506 185.919 228.332 183.513 228.332 180.44V7.52705C228.332 7.36719 228.427 7.23846 228.545 7.23846C228.664 7.23846 228.758 7.36719 228.758 7.52705V180.44C228.758 183.097 232.915 185.343 237.836 185.343C242.756 185.343 246.913 183.097 246.913 180.44V7.52705C246.913 7.36719 247.01 7.23846 247.126 7.23846C247.245 7.23846 247.34 7.36719 247.34 7.52705V180.44C247.34 183.513 243.166 185.919 237.836 185.919Z" fill="#191C1E"/>
<path d="M60.6732 180.367L60.937 192.505C61.5085 219.479 83.7872 236.088 110.392 231.42L180.541 221.076C189.992 219.148 196.281 210.174 194.861 200.644C193.486 191.42 185.331 184.741 176.005 185.202L109.237 184.802L60.6732 180.367Z" fill="white"/>
<path d="M60.9004 180.612L61.1589 192.5C61.4222 204.932 66.4027 215.753 75.1827 222.971C84.4938 230.623 96.9843 233.547 110.354 231.202L180.509 220.856C189.831 218.953 196.043 210.089 194.64 200.677C193.276 191.524 185.267 184.967 176.016 185.424L109.234 185.025L60.9004 180.612ZM101.557 232.429C97.908 232.429 94.3462 232.015 90.9036 231.186C84.8745 229.735 79.4902 227.086 74.9007 223.314C66.0189 216.014 60.9811 205.074 60.7148 192.51L60.4509 180.373C60.4496 180.309 60.475 180.249 60.5213 180.205C60.5677 180.163 60.63 180.141 60.6931 180.147L109.256 184.582L176.006 184.98C185.477 184.512 193.683 191.231 195.08 200.611C196.518 210.257 190.151 219.341 180.585 221.294L110.424 231.64C107.424 232.166 104.464 232.429 101.557 232.429Z" fill="#191C1E"/>
<path d="M131.134 94.0822C131.134 94.0822 128.662 117.312 119.727 115.575C112.828 114.232 106.634 107.847 106.636 107.292C106.638 106.739 109.356 92.6608 109.356 92.6608L131.134 94.0822Z" fill="white"/>
<path d="M106.86 107.278C107.13 108.062 113.144 114.068 119.77 115.357C121.077 115.611 122.322 115.311 123.469 114.463C128.755 110.557 130.648 96.2788 130.888 94.2884L109.538 92.8951C108.463 98.4675 106.902 106.697 106.86 107.278ZM120.667 115.89C120.344 115.89 120.017 115.857 119.686 115.793C112.941 114.48 106.412 108.107 106.415 107.292C106.418 106.733 108.86 94.0614 109.139 92.6189C109.16 92.5091 109.263 92.4377 109.372 92.4388L131.149 93.8609C131.21 93.8641 131.266 93.8929 131.304 93.9388C131.344 93.9857 131.362 94.0454 131.356 94.1061C131.284 94.7746 129.546 110.525 123.732 114.82C122.77 115.531 121.743 115.89 120.667 115.89Z" fill="#191C1E"/>
<path d="M119.3 109.527L110.578 124.356L94.545 116.727L109.014 95.322L119.3 109.527Z" fill="white"/>
<path d="M110.578 124.578C110.547 124.578 110.514 124.571 110.484 124.557L94.4499 116.928C94.3911 116.9 94.3481 116.848 94.3313 116.786C94.3145 116.723 94.326 116.657 94.3628 116.604L108.831 95.1973C108.899 95.0965 109.038 95.0692 109.14 95.1385C109.242 95.2067 109.268 95.3443 109.199 95.4461L94.8741 116.638L110.491 124.069L119.109 109.415C119.171 109.31 119.308 109.274 119.414 109.336C119.519 109.398 119.554 109.534 119.492 109.64L110.77 124.469C110.728 124.538 110.655 124.578 110.578 124.578Z" fill="#191C1E"/>
<path d="M121.506 98.609C121.506 98.609 124.563 98.1595 122.177 102.661L121.506 98.609Z" fill="white"/>
<path d="M122.176 102.883C122.141 102.883 122.105 102.875 122.072 102.858C121.964 102.8 121.922 102.666 121.98 102.557C123.062 100.518 122.958 99.6189 122.681 99.2232C122.33 98.7234 121.545 98.8286 121.537 98.8296C121.416 98.8461 121.304 98.7626 121.286 98.641C121.268 98.5204 121.352 98.4081 121.474 98.3896C121.516 98.3834 122.533 98.2432 123.043 98.9656C123.552 99.688 123.327 100.966 122.373 102.766C122.333 102.84 122.256 102.883 122.176 102.883Z" fill="#191C1E"/>
<path d="M213.626 182.399L220.78 135.769C221.038 134.079 219.595 132.577 217.573 132.418L155.7 127.538C154.241 127.423 152.89 128.482 152.67 129.902L147.057 166.504C146.839 167.924 147.816 169.305 149.25 169.59L213.626 182.399Z" fill="white"/>
<path d="M213.628 182.621C213.616 182.621 213.605 182.62 213.595 182.618C213.472 182.6 213.389 182.487 213.408 182.365L220.561 135.734C220.662 135.079 220.479 134.418 220.048 133.873C219.491 133.17 218.583 132.72 217.558 132.639L155.685 127.76C154.347 127.656 153.093 128.63 152.892 129.935L147.277 166.537C147.078 167.84 147.983 169.111 149.296 169.373C149.415 169.396 149.494 169.513 149.47 169.633C149.445 169.754 149.33 169.833 149.208 169.807C147.667 169.501 146.602 168.003 146.839 166.47L152.454 129.867C152.688 128.338 154.149 127.192 155.719 127.316L217.593 132.197C218.741 132.287 219.762 132.798 220.396 133.597C220.904 134.24 221.12 135.023 220.999 135.802L213.847 182.433C213.83 182.542 213.735 182.621 213.628 182.621Z" fill="#191C1E"/>
<path d="M217.124 135.361L155.318 130.05C155.272 130.046 155.229 130.079 155.223 130.122L149.567 166.984C149.56 167.028 149.593 167.071 149.638 167.079L210.185 178.685C210.404 178.726 210.606 178.61 210.634 178.425L217.223 135.463C217.232 135.412 217.188 135.366 217.124 135.361Z" fill="#F0F1F3"/>
<path d="M178.439 186.913L120.7 173.691L121.377 171.191L213.616 182.446C213.262 183.962 211.956 185.109 210.206 185.401C209.967 185.44 209.718 185.473 209.46 185.499L184.87 187.406C182.943 187.602 180.683 187.428 178.439 186.913Z" fill="white"/>
<path d="M178.488 186.696C180.703 187.203 182.962 187.378 184.848 187.185L209.443 185.277C209.688 185.253 209.935 185.221 210.172 185.181C211.733 184.92 212.924 183.955 213.336 182.635L121.54 171.435L120.975 173.526L178.488 186.696ZM183.277 187.705C181.734 187.705 180.049 187.509 178.389 187.13L120.65 173.907C120.592 173.894 120.541 173.857 120.51 173.805C120.479 173.753 120.471 173.691 120.486 173.633L121.162 171.133C121.192 171.026 121.293 170.956 121.403 170.971L213.645 182.226C213.707 182.233 213.763 182.267 213.799 182.318C213.835 182.37 213.848 182.434 213.834 182.496C213.455 184.116 212.08 185.313 210.244 185.619C209.999 185.66 209.741 185.693 209.482 185.72L184.887 187.628C184.375 187.68 183.835 187.705 183.277 187.705Z" fill="#191C1E"/>
<path d="M181.557 184.482L121.378 171.191L141.779 168.135L213.624 182.437L181.557 184.482Z" fill="white"/>
<path d="M122.595 171.233L181.572 184.259L211.913 182.324L141.772 168.361L122.595 171.233ZM181.555 184.705C181.539 184.705 181.523 184.703 181.507 184.7L121.328 171.408C121.223 171.385 121.15 171.291 121.154 171.184C121.157 171.076 121.237 170.987 121.343 170.971L141.746 167.917C141.771 167.913 141.796 167.914 141.821 167.918L213.665 182.22C213.774 182.241 213.851 182.341 213.844 182.452C213.835 182.564 213.746 182.652 213.636 182.66L181.569 184.705C181.565 184.705 181.56 184.705 181.555 184.705Z" fill="#191C1E"/>
<path d="M170.465 180.395L138.649 173.507L150.502 171.69L184.589 178.651L170.465 180.395Z" fill="#F0F1F3"/>
<path d="M163.456 187.93C163.456 187.93 174.533 188.566 176.819 188.811C183.462 189.522 188.857 182.503 191.03 183.489C191.761 183.82 192.622 184.902 193.425 184.906C194.978 184.914 195.895 181.007 193.04 179.426C193.04 179.426 194.45 175.941 190.156 174.758C190.156 174.758 191.751 171.137 187.048 170.262C187.048 170.262 188.92 168.284 186.172 166.959C182.704 165.288 174.278 168.619 170.31 169.148C168.195 169.429 161.781 168.829 161.781 168.829L163.456 187.93Z" fill="white"/>
<path d="M163.66 187.72C165.143 187.805 174.743 188.366 176.841 188.59C180.691 189.002 184.206 186.705 186.769 185.028C188.717 183.755 190.123 182.835 191.122 183.287C191.428 183.426 191.735 183.67 192.06 183.928C192.527 184.299 193.01 184.681 193.426 184.685C193.426 184.685 193.428 184.685 193.429 184.685C193.908 184.685 194.362 184.167 194.564 183.397C194.89 182.147 194.512 180.495 192.932 179.621C192.834 179.567 192.793 179.448 192.834 179.344C192.839 179.331 193.345 178.038 192.744 176.831C192.315 175.964 191.423 175.339 190.097 174.973C190.035 174.955 189.984 174.912 189.957 174.855C189.927 174.796 189.927 174.728 189.953 174.67C189.958 174.657 190.519 173.34 189.906 172.18C189.452 171.326 188.477 170.754 187.007 170.48C186.927 170.466 186.861 170.409 186.836 170.331C186.811 170.253 186.831 170.169 186.887 170.11C186.893 170.103 187.576 169.363 187.426 168.555C187.325 168.013 186.87 167.544 186.075 167.159C183.744 166.036 178.899 167.298 175.006 168.31C173.239 168.77 171.571 169.204 170.339 169.368C168.444 169.621 163.274 169.186 162.026 169.075L163.66 187.72ZM177.764 189.083C177.444 189.083 177.12 189.067 176.794 189.032C174.541 188.791 163.553 188.158 163.443 188.152C163.333 188.146 163.243 188.06 163.234 187.95L161.56 168.85C161.554 168.784 161.578 168.718 161.626 168.672C161.672 168.626 161.736 168.603 161.802 168.609C161.866 168.615 168.216 169.203 170.28 168.928C171.484 168.768 173.141 168.337 174.895 167.88C179.064 166.795 183.791 165.565 186.268 166.759C187.199 167.209 187.737 167.787 187.864 168.477C187.989 169.159 187.677 169.771 187.442 170.117C188.858 170.443 189.82 171.068 190.299 171.977C190.853 173.024 190.601 174.137 190.446 174.613C191.776 175.023 192.684 175.704 193.144 176.638C193.697 177.754 193.444 178.89 193.309 179.327C194.961 180.337 195.351 182.137 194.993 183.51C194.736 184.494 194.122 185.128 193.429 185.128C193.427 185.128 193.426 185.128 193.423 185.128C192.853 185.125 192.309 184.694 191.784 184.276C191.481 184.035 191.196 183.808 190.939 183.692C190.163 183.34 188.702 184.294 187.012 185.4C184.606 186.975 181.381 189.083 177.764 189.083Z" fill="#191C1E"/>
<path d="M193.08 179.73C193.046 179.73 193.011 179.721 192.979 179.704C192.951 179.69 190.283 178.342 186.106 179.438C185.987 179.469 185.865 179.398 185.835 179.28C185.805 179.161 185.874 179.04 185.993 179.009C190.348 177.866 193.07 179.251 193.184 179.31C193.293 179.368 193.335 179.501 193.278 179.61C193.239 179.685 193.16 179.73 193.08 179.73Z" fill="#191C1E"/>
<path d="M183.165 175.266C183.059 175.266 182.965 175.189 182.946 175.08C182.926 174.959 183.008 174.845 183.129 174.824C185.764 174.38 190.105 174.568 190.288 174.577C190.411 174.582 190.506 174.686 190.499 174.809C190.494 174.931 190.39 175.031 190.267 175.021C190.223 175.019 185.79 174.825 183.202 175.263C183.191 175.265 183.177 175.266 183.165 175.266Z" fill="#191C1E"/>
<path d="M181.15 171.678C181.061 171.678 180.976 171.623 180.943 171.535C180.898 171.42 180.956 171.292 181.072 171.248C184.66 169.894 187.001 169.996 187.099 170.001C187.222 170.007 187.315 170.111 187.309 170.234C187.303 170.356 187.2 170.453 187.077 170.445C187.053 170.441 184.721 170.346 181.229 171.664C181.202 171.674 181.176 171.678 181.15 171.678Z" fill="#191C1E"/>
<path d="M131.6 187.512C131.6 187.512 127.866 192.239 120.988 192.692C113.934 193.156 109.212 185.898 109.212 185.898C109.212 185.898 108.971 202.09 78.3814 209.848C67.91 212.503 56.657 209.848 56.657 209.848C56.657 209.848 54.3942 186.295 55.7744 173.948C58.6408 148.301 66.5535 129.17 77.3446 118.651C90.8659 105.47 103.044 106.871 117.701 123.813C125.231 132.515 140.857 164.721 140.857 164.721L165.932 167.767L167.954 188.862C163.21 189.135 150.522 188.787 142.533 188.836C138.554 188.86 134.958 188.511 131.6 187.512Z" fill="#006689"/>
<path d="M131.505 187.707C131.483 187.707 131.462 187.704 131.441 187.698C126.313 186.172 122.279 183.299 119.106 178.915C119.102 178.908 119.097 178.902 119.094 178.895L105.831 155.66C105.77 155.553 105.807 155.417 105.913 155.356C106.02 155.295 106.155 155.332 106.217 155.439L119.473 178.664C122.584 182.961 126.54 185.777 131.568 187.271C131.685 187.307 131.753 187.431 131.717 187.548C131.689 187.644 131.6 187.707 131.505 187.707Z" fill="#191C1E"/>
<path d="M130.589 82.598C135.464 84.1128 138.477 94.4618 124.077 98.2056C124.077 98.2056 122.744 95.5621 120.033 97.1835C117.32 98.8049 119.384 104.054 119.384 104.054C119.384 104.054 78.6163 138.469 89.8248 150.63C96.2111 157.56 61.2481 152.651 55.7584 134.187C49.9204 114.55 60.0929 102.192 68.5387 97.8823C84.3581 89.8084 91.2871 91.9178 103.67 82.8337C109.764 78.3627 123.522 73.1585 130.589 82.598Z" fill="#191C1E"/>
<path d="M268.119 163.007C267.598 162.431 267.072 161.822 266.851 161.078C266.628 160.335 266.794 159.418 267.438 158.984C267.895 158.678 268.507 158.659 268.944 158.327C269.542 157.874 269.619 156.97 269.339 156.276C269.058 155.581 268.507 155.04 267.993 154.494C266.6 153.012 265.381 151.302 264.83 149.345C264.279 147.388 264.471 145.15 265.681 143.517C266.894 141.883 269.221 141.044 271.088 141.857C272.465 142.458 273.366 143.776 274.195 145.028C276.279 148.188 278.374 151.362 279.956 154.801C281.539 158.239 282.601 161.979 282.504 165.763C282.47 167.139 282.27 168.547 281.608 169.755C280.946 170.963 279.755 171.945 278.381 172.066C276.161 172.261 275.311 169.934 273.899 168.698C271.864 166.917 269.932 165.014 268.119 163.007Z" fill="white"/>
<path d="M268.286 162.858C270.094 164.858 272.03 166.765 274.049 168.531C274.483 168.911 274.866 169.391 275.236 169.856C276.104 170.943 276.928 171.968 278.364 171.844C279.562 171.739 280.732 170.898 281.415 169.647C281.967 168.642 282.243 167.406 282.284 165.756C282.37 162.379 281.52 158.725 279.756 154.893C278.178 151.463 276.06 148.253 274.011 145.15C273.277 144.038 272.362 142.653 271.001 142.06C269.32 141.327 267.064 142.025 265.862 143.648C264.771 145.119 264.466 147.227 265.045 149.284C265.519 150.963 266.536 152.617 268.157 154.341L268.304 154.496C268.783 155.001 269.277 155.525 269.547 156.191C269.847 156.938 269.783 157.971 269.081 158.503C268.821 158.699 268.523 158.794 268.233 158.887C267.988 158.965 267.757 159.039 267.565 159.168C266.99 159.554 266.879 160.388 267.064 161.014C267.269 161.695 267.759 162.275 268.286 162.858ZM278.12 172.299C276.617 172.299 275.739 171.199 274.889 170.133C274.513 169.663 274.16 169.219 273.755 168.865C271.725 167.088 269.774 165.167 267.955 163.155C267.394 162.533 266.87 161.911 266.639 161.141C266.414 160.384 266.528 159.328 267.316 158.8C267.561 158.636 267.834 158.548 268.099 158.464C268.364 158.379 268.614 158.299 268.812 158.149C269.338 157.751 269.373 156.947 269.133 156.358C268.897 155.769 268.431 155.278 267.981 154.802L267.834 154.645C266.164 152.868 265.111 151.153 264.619 149.405C264.002 147.216 264.334 144.965 265.505 143.384C266.848 141.571 269.288 140.828 271.179 141.652C272.662 142.299 273.615 143.744 274.381 144.905C276.439 148.022 278.567 151.246 280.161 154.707C281.952 158.6 282.816 162.322 282.729 165.767C282.684 167.491 282.391 168.791 281.805 169.861C281.05 171.239 279.747 172.169 278.403 172.287C278.307 172.295 278.211 172.299 278.12 172.299Z" fill="#191C1E"/>
<path d="M292.423 164.817C294.214 162.081 294.366 158.052 292.006 155.786C291.041 154.859 289.606 153.99 289.768 152.663C289.831 152.145 290.149 151.694 290.491 151.3C291.719 149.89 293.369 148.917 294.72 147.625C296.07 146.332 297.158 144.487 296.745 142.665C296.389 141.095 294.941 139.921 293.369 139.574C291.795 139.227 290.135 139.6 288.676 140.28C284.291 142.32 281.562 146.958 280.641 151.702C279.719 156.446 280.346 161.34 281.078 166.117C281.244 167.189 281.43 168.3 282.045 169.195C284.544 172.828 290.899 167.149 292.423 164.817Z" fill="white"/>
<path d="M292.129 139.665C290.837 139.665 289.633 140.08 288.768 140.481C284.828 142.314 281.871 146.525 280.858 151.745C279.949 156.425 280.547 161.198 281.298 166.083C281.45 167.071 281.622 168.19 282.227 169.069C282.723 169.79 283.418 170.156 284.293 170.156C284.304 170.156 284.316 170.156 284.329 170.156C287.038 170.125 290.99 166.604 292.236 164.697C293.891 162.167 294.2 158.202 291.853 155.947C291.662 155.764 291.456 155.586 291.237 155.396C290.378 154.654 289.403 153.813 289.547 152.636C289.622 152.029 290.001 151.526 290.323 151.155C291.051 150.32 291.929 149.629 292.781 148.963C293.383 148.489 294.008 147.999 294.566 147.465C295.316 146.746 297.01 144.845 296.526 142.714C296.21 141.319 294.922 140.144 293.32 139.791C292.92 139.703 292.52 139.665 292.129 139.665ZM284.291 170.6C283.262 170.6 282.445 170.17 281.862 169.321C281.199 168.357 281.01 167.134 280.859 166.151C280.103 161.225 279.499 156.411 280.421 151.66C281.462 146.301 284.512 141.971 288.581 140.079C289.77 139.526 291.575 138.951 293.417 139.358C295.181 139.747 296.606 141.056 296.961 142.616C297.494 144.968 295.678 147.014 294.873 147.786C294.299 148.334 293.666 148.832 293.055 149.312C292.218 149.966 291.357 150.643 290.658 151.446C290.378 151.769 290.047 152.203 289.987 152.69C289.873 153.633 290.713 154.359 291.527 155.06C291.74 155.245 291.961 155.436 292.161 155.626C294.674 158.041 294.364 162.257 292.609 164.94C291.363 166.843 287.314 170.566 284.333 170.6C284.319 170.6 284.306 170.6 284.291 170.6Z" fill="#191C1E"/>
<path d="M285.777 167.548C285.717 167.548 285.655 167.523 285.612 167.475C285.53 167.385 285.537 167.244 285.627 167.161C287.889 165.108 287.848 161.558 287.623 159.624C287.521 158.738 287.36 157.837 287.206 156.965C286.879 155.13 286.542 153.233 286.707 151.338C286.952 148.52 288.727 145.468 291.648 145.088C291.768 145.072 291.88 145.158 291.895 145.28C291.912 145.401 291.826 145.513 291.704 145.529C289.019 145.879 287.38 148.735 287.148 151.376C286.989 153.213 287.322 155.081 287.642 156.887C287.799 157.766 287.96 158.673 288.065 159.573C288.299 161.592 288.334 165.303 285.927 167.491C285.883 167.529 285.829 167.548 285.777 167.548Z" fill="#191C1E"/>
<path d="M284.546 157.367C283.856 155.785 282.82 154.258 282.822 152.532C282.828 150.033 284.94 148.14 286.433 146.133C289.108 142.538 289.97 137.513 288.121 133.434C286.269 129.354 281.528 126.626 277.148 127.584C275.561 127.931 273.997 128.798 273.246 130.238C272.384 131.896 272.759 133.912 273.317 135.695C273.876 137.478 274.607 139.294 274.388 141.15C273.999 144.441 270.779 146.785 270.104 150.029C269.403 153.399 271.612 156.645 273.904 159.214C275.194 160.662 276.559 162.076 277.615 163.711C278.827 165.585 278.97 167.258 279.392 169.366C279.842 171.611 281.354 171.87 282.828 170.258C284.222 168.733 285.014 166.56 285.36 164.555C285.773 162.147 285.527 159.614 284.546 157.367Z" fill="white"/>
<path d="M278.929 127.616C278.347 127.616 277.767 127.677 277.198 127.801C275.455 128.183 274.088 129.108 273.446 130.341C272.575 132.01 273.035 134.044 273.531 135.629C273.611 135.885 273.695 136.141 273.779 136.398C274.283 137.942 274.804 139.538 274.61 141.176C274.4 142.954 273.386 144.467 272.404 145.932C271.535 147.229 270.635 148.572 270.324 150.074C269.599 153.557 272.116 156.875 274.071 159.067C274.288 159.312 274.51 159.556 274.731 159.801C275.806 160.989 276.917 162.218 277.804 163.591C278.842 165.197 279.112 166.649 279.422 168.33C279.482 168.651 279.543 168.982 279.612 169.323C279.804 170.276 280.202 170.883 280.737 171.032C281.286 171.186 281.987 170.848 282.665 170.109C284.29 168.331 284.913 165.843 285.142 164.518C285.557 162.094 285.274 159.586 284.344 157.456C284.175 157.07 283.982 156.679 283.796 156.3C283.208 155.112 282.601 153.884 282.601 152.532C282.605 150.491 283.946 148.857 285.241 147.278C285.585 146.86 285.938 146.428 286.256 146.001C289.021 142.286 289.672 137.389 287.919 133.526C286.309 129.976 282.583 127.616 278.929 127.616ZM281.015 171.513C280.879 171.513 280.747 171.496 280.618 171.46C279.913 171.264 279.402 170.536 279.175 169.41C279.108 169.066 279.047 168.735 278.985 168.411C278.682 166.776 278.422 165.365 277.43 163.832C276.563 162.49 275.464 161.275 274.402 160.099C274.181 159.854 273.959 159.609 273.738 159.363C271.72 157.099 269.125 153.664 269.889 149.983C270.218 148.396 271.141 147.018 272.036 145.685C273.031 144.199 273.972 142.795 274.169 141.124C274.35 139.584 273.846 138.034 273.356 136.535C273.271 136.277 273.187 136.019 273.107 135.762C272.585 134.094 272.106 131.948 273.051 130.136C273.755 128.786 275.231 127.776 277.103 127.367C281.442 126.418 286.372 129.042 288.323 133.343C290.142 137.351 289.471 142.424 286.614 146.266C286.288 146.702 285.931 147.138 285.585 147.56C284.339 149.079 283.05 150.65 283.046 152.533C283.044 153.781 283.628 154.962 284.194 156.103C284.381 156.487 284.579 156.883 284.752 157.278C285.715 159.488 286.009 162.085 285.579 164.592C285.343 165.966 284.694 168.547 282.992 170.409C282.33 171.133 281.641 171.513 281.015 171.513Z" fill="#191C1E"/>
<path d="M280.96 169.404C280.907 169.404 280.857 169.386 280.813 169.349C280.72 169.269 280.711 169.129 280.793 169.036C282.451 167.128 282.264 164.239 281.536 162.172C281.009 160.675 280.187 159.271 279.391 157.913C278.948 157.159 278.491 156.378 278.086 155.586C276.649 152.776 276.263 150.301 276.934 148.228C277.376 146.871 278.26 145.733 279.115 144.632C279.669 143.918 280.241 143.18 280.684 142.395C282.344 139.436 282.093 135.466 280.074 132.74C280 132.641 280.021 132.502 280.119 132.43C280.219 132.356 280.357 132.377 280.43 132.475C282.551 135.338 282.814 139.506 281.071 142.612C280.613 143.426 280.03 144.178 279.466 144.905C278.596 146.024 277.773 147.082 277.358 148.366C276.722 150.322 277.1 152.684 278.482 155.384C278.881 156.165 279.335 156.94 279.774 157.688C280.581 159.065 281.414 160.488 281.955 162.024C282.725 164.21 282.912 167.276 281.127 169.327C281.084 169.378 281.022 169.404 280.96 169.404Z" fill="#191C1E"/>
<path d="M266.38 168.658H293.977L292.097 189.737H268.259L266.38 168.658Z" fill="#006689"/>
<path d="M293.396 172.299H266.982C266.862 172.299 266.76 172.2 266.76 172.077C266.76 171.954 266.862 171.855 266.982 171.855H293.396C293.518 171.855 293.618 171.954 293.618 172.077C293.618 172.2 293.518 172.299 293.396 172.299Z" fill="white"/>
<path d="M193.697 117.234H165.713C164.082 117.234 162.759 115.911 162.759 114.28V69.3409C162.759 67.7095 164.082 66.3869 165.713 66.3869H193.697C195.33 66.3869 196.653 67.7095 196.653 69.3409V114.28C196.653 115.911 195.33 117.234 193.697 117.234Z" fill="white"/>
<path d="M165.713 66.6081C164.206 66.6081 162.98 67.8342 162.98 69.3398V114.28C162.98 115.785 164.206 117.011 165.713 117.011H193.697C195.202 117.011 196.429 115.785 196.429 114.28V69.3398C196.429 67.8342 195.202 66.6081 193.697 66.6081H165.713ZM193.697 117.456H165.713C163.961 117.456 162.535 116.031 162.535 114.28V69.3398C162.535 67.5895 163.961 66.1637 165.713 66.1637H193.697C195.448 66.1637 196.873 67.5895 196.873 69.3398V114.28C196.873 116.031 195.448 117.456 193.697 117.456Z" fill="#191C1E"/>
<path d="M193.406 70.3231H166.076C165.947 70.3231 165.841 73.7983 165.841 78.1643C165.841 82.4858 165.947 86.0051 166.076 86.0051H193.406C193.537 86.0051 193.641 82.4858 193.641 78.1643C193.641 73.7983 193.537 70.3231 193.406 70.3231Z" fill="#E1E2E5"/>
<path d="M192.419 89.6036H184.372C184.25 89.6036 184.151 89.5039 184.151 89.3815C184.151 89.2591 184.25 89.1594 184.372 89.1594H192.419C192.542 89.1594 192.641 89.2591 192.641 89.3815C192.641 89.5039 192.542 89.6036 192.419 89.6036Z" fill="#191C1E"/>
<path d="M181.468 89.6037H166.591C166.47 89.6037 166.369 89.5045 166.369 89.3814C166.369 89.2584 166.47 89.1592 166.591 89.1592H181.468C181.591 89.1592 181.69 89.2584 181.69 89.3814C181.69 89.5045 181.591 89.6037 181.468 89.6037Z" fill="#191C1E"/>
<path d="M192.419 93.6938H166.59C166.467 93.6938 166.368 93.5954 166.368 93.4717C166.368 93.3493 166.467 93.2496 166.59 93.2496H192.419C192.542 93.2496 192.641 93.3493 192.641 93.4717C192.641 93.5954 192.542 93.6938 192.419 93.6938Z" fill="#191C1E"/>
<path d="M192.419 102.724H184.372C184.25 102.724 184.151 102.626 184.151 102.502C184.151 102.38 184.25 102.281 184.372 102.281H192.419C192.542 102.281 192.641 102.38 192.641 102.502C192.641 102.626 192.542 102.724 192.419 102.724Z" fill="#191C1E"/>
<path d="M181.468 102.725H166.591C166.47 102.725 166.369 102.626 166.369 102.503C166.369 102.38 166.47 102.28 166.591 102.28H181.468C181.591 102.28 181.69 102.38 181.69 102.503C181.69 102.626 181.591 102.725 181.468 102.725Z" fill="#191C1E"/>
<path d="M192.419 106.815H166.59C166.467 106.815 166.368 106.716 166.368 106.593C166.368 106.471 166.467 106.371 166.59 106.371H192.419C192.542 106.371 192.641 106.471 192.641 106.593C192.641 106.716 192.542 106.815 192.419 106.815Z" fill="#191C1E"/>
<path d="M192.42 110.907H174.529C174.406 110.907 174.307 110.807 174.307 110.685C174.307 110.561 174.406 110.463 174.529 110.463H192.42C192.543 110.463 192.642 110.561 192.642 110.685C192.642 110.807 192.543 110.907 192.42 110.907Z" fill="#191C1E"/>
<path d="M171.766 110.906H166.591C166.469 110.906 166.369 110.806 166.369 110.684C166.369 110.561 166.469 110.462 166.591 110.462H171.766C171.888 110.462 171.987 110.561 171.987 110.684C171.987 110.806 171.888 110.906 171.766 110.906Z" fill="#191C1E"/>
<path d="M153.957 124.665C153.833 124.665 153.734 124.566 153.734 124.444V59.1642C153.734 59.0409 153.833 58.9417 153.957 58.9417H175.094C175.216 58.9417 175.315 59.0409 175.315 59.1642C175.315 59.2863 175.216 59.3855 175.094 59.3855H154.178V124.444C154.178 124.566 154.08 124.665 153.957 124.665Z" fill="#191C1E"/>
</g>
<defs>
<clipPath id="clip0_4446_115141">
<rect width="320" height="240" fill="white"/>
</clipPath>
</defs>
</svg>
