<svg width="321" height="240" viewBox="0 0 321 240" fill="none" xmlns="http://www.w3.org/2000/svg">
<path d="M141.924 132.076L145.217 134.77C147.812 128.384 154.377 113.876 159.885 106.931C165.393 99.986 175.152 92.4624 179.343 89.5688C180.44 91.3648 181.977 95.6754 179.343 98.5491C176.708 101.423 175.451 102.94 175.152 103.339C176.549 102.94 179.343 102.8 179.343 105.434C181.438 106.631 185.33 109.924 184.132 113.516C185.23 114.015 187.006 115.911 185.33 119.503C185.33 121.599 184.431 126.089 180.839 127.286L164.375 164.704C161.581 170.691 152.102 181.168 136.536 175.181C132.246 173.186 122.048 166.68 115.582 156.622L141.924 132.076Z" fill="white"/>
<path d="M145.217 134.77L141.924 132.076L115.582 156.622C122.048 166.68 132.246 173.186 136.536 175.181C152.102 181.168 161.581 170.691 164.375 164.704L180.839 127.286M145.217 134.77C147.812 128.384 154.377 113.876 159.885 106.931C165.393 99.986 175.152 92.4624 179.343 89.5688C180.44 91.3648 181.977 95.6754 179.343 98.5491C176.708 101.423 175.451 102.94 175.152 103.339C176.549 102.94 179.343 102.8 179.343 105.434M145.217 134.77L140.428 146.744M179.343 105.434C179.343 108.727 180.241 113.217 172.158 119.503M179.343 105.434C181.438 106.631 185.33 109.924 184.132 113.516M172.158 119.503C168.267 122.197 166.471 117.707 167.968 115.911C168.443 115.341 169.49 114.62 170.69 113.816M172.158 119.503C170.482 122.856 173.456 122.896 175.152 122.497C175.435 122.327 175.754 122.126 176.1 121.898M162.879 106.931C173.655 103.937 176.05 105.434 176.349 108.128C176.554 109.967 173.271 112.085 170.69 113.816M170.69 113.816C170.182 113.317 168.446 112.319 165.573 112.319M184.132 113.516C185.23 114.015 187.006 115.911 185.33 119.503M184.132 113.516C183.071 116.701 178.795 120.12 176.1 121.898M185.33 119.503C185.33 121.599 184.431 126.089 180.839 127.286M185.33 119.503C183.937 122.487 180.659 123.612 178.445 123.907M176.1 121.898C175.182 123.814 176.482 124.093 177.247 123.993C177.585 123.993 177.993 123.968 178.445 123.907M180.839 127.286C177.247 128.484 177.746 125.533 178.445 123.907" stroke="#191C1E" stroke-width="0.59869"/>
<path d="M36.8542 120.401C43.0805 109.146 59.2053 104.735 66.4893 103.937C78.4632 101.443 103.728 96.2141 108.996 95.2562C114.265 94.2983 119.773 98.6488 121.868 100.944L144.918 129.98L114.385 157.221L111.092 152.431L99.4173 194.639H36.8542L59.0057 157.221L20.9889 158.418C23.683 150.435 30.6278 131.657 36.8542 120.401Z" fill="#006689"/>
<path d="M105.105 83.5819C104.626 76.6371 102.111 67.9162 100.914 64.4238C87.2638 60.8317 84.6495 70.7101 85.0486 76.0983C81.7558 74.3022 74.9308 71.7877 73.9729 76.0983C73.0149 80.4089 77.7646 82.8835 80.2591 83.5819L72.7755 101.842L65.8905 104.237C66.0901 106.033 69.6623 110.164 82.3545 112.319C95.0468 114.474 98.7187 103.438 98.5192 97.3518L90.7362 98.8485L92.2329 93.4603C96.7231 93.0612 105.584 90.5267 105.105 83.5819Z" fill="white"/>
<path d="M89.2395 104.237L90.7362 98.8485M90.7362 98.8485L92.2329 93.4603C96.7231 93.0612 105.584 90.5267 105.105 83.5819C104.626 76.6371 102.111 67.9162 100.914 64.4238C87.2638 60.8317 84.6495 70.7101 85.0486 76.0983C81.7558 74.3022 74.9308 71.7877 73.9729 76.0983C73.0149 80.4089 77.7646 82.8835 80.2591 83.5819L72.7755 101.842L65.8905 104.237C66.0901 106.033 69.6623 110.164 82.3545 112.319C95.0468 114.474 98.7187 103.438 98.5192 97.3518L90.7362 98.8485Z" stroke="#191C1E" stroke-width="0.59869"/>
<path d="M71.8782 63.8248C71.1598 66.2195 74.7719 71.6078 76.6677 74.0025C78.2642 73.5036 81.577 73.5834 82.056 77.894C82.6546 83.2822 86.5461 91.0652 88.6415 92.2625C90.737 93.4599 106.303 98.8481 106.602 88.9697C106.842 81.067 103.908 76.0979 103.908 76.0979C100.555 77.5348 94.1295 79.9894 91.9343 80.8874C89.2402 79.2909 84.5704 74.7808 87.4442 69.5123C91.0363 62.9267 102.711 66.5189 102.711 63.8248C102.711 61.6695 101.114 58.9355 100.316 57.8379C101.314 56.84 104.507 56.6405 104.507 53.9464C104.507 50.0549 100.316 47.0614 97.3226 47.0614C94.3291 47.0614 93.1317 52.1503 91.9343 50.6536C90.9764 49.4562 89.34 49.3564 88.6415 49.4562C82.4152 52.3299 78.4638 59.4344 77.2664 62.6274C75.7697 62.0287 72.5966 61.43 71.8782 63.8248Z" fill="#191C1E"/>
<path d="M97.1137 130.796C97.4149 129.78 98.3492 129.082 99.4097 129.082H118.362C119.963 129.082 121.113 130.622 120.658 132.157L110.103 167.779C109.802 168.796 108.868 169.494 107.807 169.494H88.8551C87.2543 169.494 86.1042 167.953 86.559 166.419L97.1137 130.796Z" fill="#191C1E"/>
<path d="M16.4986 185.659C12.9064 175.122 17.9953 163.108 20.9888 158.418L55.1141 157.221C66.3751 149.997 76.4265 145.38 81.3377 143.456C82.4037 143.038 83.5338 142.851 84.6787 142.856C91.8631 142.884 103.86 143.088 105.404 143.75C107.08 144.469 104.107 146.444 102.411 147.342C104.207 147.043 108.218 146.983 109.894 149.138C111.879 151.69 102.047 151.557 101.257 151.535C101.827 151.575 106.391 152.221 108.996 154.826C111.152 156.981 104.905 157.063 101.513 156.835C103.114 156.993 104.497 157.564 104.207 159.017C103.728 161.412 92.4324 162.21 86.8447 162.31C66.9682 181.468 49.6261 191.246 43.4396 193.741C35.956 195.437 20.0907 196.196 16.4986 185.659Z" fill="white"/>
<path d="M55.1141 157.221C66.3751 149.997 76.4265 145.38 81.3377 143.456C82.4037 143.038 83.5338 142.851 84.6787 142.856C91.8631 142.884 103.86 143.088 105.404 143.75C107.08 144.469 104.107 146.444 102.411 147.342C104.207 147.043 108.218 146.983 109.894 149.138C111.99 151.833 100.914 151.533 101.213 151.533C101.513 151.533 106.302 152.132 108.996 154.826C111.152 156.981 104.905 157.063 101.513 156.835M55.1141 157.221C42.4219 165.363 33.2619 170.791 30.2684 172.487M55.1141 157.221L20.9888 158.418C17.9953 163.108 12.9064 175.122 16.4986 185.659C20.0907 196.196 35.956 195.437 43.4396 193.741C49.6261 191.246 66.9682 181.468 86.8447 162.31C92.4325 162.21 103.728 161.412 104.207 159.017C104.497 157.564 103.114 156.993 101.513 156.835M98.5191 156.921C99.3436 156.804 100.474 156.732 101.513 156.835" stroke="#191C1E" stroke-width="0.59869"/>
<g filter="url(#filter0_i_4446_115703)">
<path d="M203.489 27.7346C203.885 23.4212 207.503 20.1207 211.835 20.1207H311.745C316.678 20.1207 320.544 24.3586 320.092 29.2701L303.075 214.265C302.678 218.579 299.06 221.879 294.728 221.879H194.818C189.885 221.879 186.019 217.641 186.471 212.73L203.489 27.7346Z" fill="white"/>
</g>
<path d="M211.835 20.42H311.745C316.502 20.42 320.229 24.5066 319.794 29.2427L302.776 214.238C302.394 218.397 298.905 221.58 294.728 221.58H194.818C190.061 221.58 186.334 217.493 186.769 212.757L203.787 27.762C204.169 23.6027 207.658 20.42 211.835 20.42Z" stroke="#191C1E" stroke-width="0.59869"/>
<g filter="url(#filter1_i_4446_115703)">
<path d="M214.381 25.8083H303.536C307.235 25.8083 310.135 28.9874 309.795 32.6714L293.353 211.081C293.055 214.316 290.342 216.79 287.093 216.79H197.939C194.24 216.79 191.34 213.611 191.679 209.927L208.122 31.5176C208.42 28.2831 211.133 25.8083 214.381 25.8083Z" stroke="#191C1E" stroke-width="0.59869"/>
</g>
<rect x="246.696" y="30.8969" width="22.1515" height="1.79607" rx="0.898036" fill="#191C1E"/>
<path d="M215.174 45.6657C215.279 44.093 216.585 42.8708 218.161 42.8708H235.715C237.446 42.8708 238.816 44.3352 238.701 46.0627L237.508 64.0234C237.403 65.5961 236.097 66.8184 234.521 66.8184H216.968C215.236 66.8184 213.866 65.354 213.981 63.6264L215.174 45.6657Z" fill="#006689"/>
<path d="M223.831 51.9762C224.434 51.7559 225.057 51.4733 225.699 51.1284C226.341 50.7836 226.93 50.3765 227.466 49.9071H228.702L226.302 59.8645H224.564L226.388 52.2923C226.082 52.4935 225.718 52.6898 225.296 52.8814C224.885 53.0634 224.477 53.2215 224.075 53.3556L223.831 51.9762Z" fill="white"/>
<path d="M212.779 78.5939C212.884 77.0212 214.19 75.7989 215.766 75.7989H233.319C235.051 75.7989 236.421 77.2633 236.306 78.9909L235.113 96.9516C235.008 98.5243 233.702 99.7465 232.126 99.7465H214.572C212.841 99.7465 211.471 98.2821 211.585 96.5546L212.779 78.5939Z" fill="#F0F1F3"/>
<path d="M209.186 111.522C209.291 109.949 210.597 108.727 212.173 108.727H229.727C231.458 108.727 232.828 110.192 232.714 111.919L231.52 129.88C231.416 131.452 230.109 132.675 228.533 132.675H210.98C209.248 132.675 207.878 131.21 207.993 129.483L209.186 111.522Z" fill="#F0F1F3"/>
<path d="M206.792 144.45C206.896 142.877 208.203 141.655 209.779 141.655H227.332C229.064 141.655 230.434 143.119 230.319 144.846L229.125 162.807C229.021 164.38 227.715 165.602 226.139 165.602H208.585C206.854 165.602 205.483 164.138 205.598 162.41L206.792 144.45Z" fill="#006689"/>
<path d="M204.997 177.261C205.101 175.688 206.407 174.466 207.983 174.466H225.537C227.268 174.466 228.639 175.93 228.524 177.658L227.33 195.619C227.226 197.191 225.92 198.414 224.343 198.414H206.79C205.059 198.414 203.688 196.949 203.803 195.222L204.997 177.261Z" fill="#F0F1F3"/>
<path d="M245.706 45.6659C245.811 44.0932 247.117 42.8709 248.693 42.8709H266.247C267.978 42.8709 269.348 44.3353 269.234 46.0629L268.04 64.0236C267.936 65.5963 266.629 66.8186 265.053 66.8186H247.5C245.768 66.8186 244.398 65.3542 244.513 63.6266L245.706 45.6659Z" fill="#F0F1F3"/>
<path d="M243.312 78.5939C243.416 77.0212 244.723 75.7989 246.299 75.7989H263.852C265.584 75.7989 266.954 77.2633 266.839 78.9909L265.645 96.9516C265.541 98.5243 264.235 99.7465 262.659 99.7465H245.105C243.374 99.7465 242.004 98.2821 242.118 96.5546L243.312 78.5939Z" fill="#006689"/>
<path d="M255.151 89.2577C255.151 88.7979 255.032 88.4674 254.792 88.2662C254.562 88.0555 254.232 87.9501 253.801 87.9501C253.207 87.9501 252.632 88.0746 252.077 88.3237C252 88.5728 251.938 88.8218 251.89 89.0709C251.851 89.3199 251.832 89.5546 251.832 89.7749C251.832 90.3018 251.938 90.7328 252.148 91.0681C252.369 91.4034 252.723 91.571 253.212 91.571C253.509 91.571 253.777 91.5087 254.016 91.3842C254.265 91.2597 254.471 91.092 254.634 90.8813C254.797 90.6706 254.921 90.4263 255.008 90.1485C255.103 89.8707 255.151 89.5738 255.151 89.2577ZM257.508 84.1856C256.224 84.2047 255.151 84.449 254.289 84.9184C253.437 85.3877 252.814 86.087 252.421 87.0162C252.68 86.8916 252.977 86.7911 253.312 86.7144C253.647 86.6282 253.983 86.5851 254.318 86.5851C255.113 86.5851 255.731 86.815 256.172 87.2748C256.612 87.725 256.833 88.3381 256.833 89.114C256.833 89.66 256.746 90.1725 256.574 90.6514C256.401 91.1208 256.148 91.5327 255.812 91.8871C255.487 92.232 255.089 92.505 254.62 92.7061C254.15 92.9073 253.624 93.0079 253.039 93.0079C252.608 93.0079 252.215 92.936 251.861 92.7923C251.507 92.6486 251.2 92.4427 250.941 92.1745C250.692 91.8967 250.496 91.5614 250.352 91.1687C250.218 90.7759 250.151 90.3257 250.151 89.818C250.151 88.8984 250.309 88.0124 250.625 87.1598C250.941 86.3073 251.401 85.5554 252.005 84.904C252.608 84.2526 253.355 83.7353 254.246 83.3522C255.137 82.9594 256.167 82.7631 257.335 82.7631C257.383 82.7631 257.441 82.7631 257.508 82.7631C257.575 82.7631 257.647 82.7679 257.723 82.7774L257.508 84.1856Z" fill="white"/>
<path d="M219.171 150.789C218.874 151.048 218.562 151.34 218.237 151.665C217.921 151.982 217.6 152.317 217.274 152.671C216.958 153.026 216.647 153.39 216.34 153.763C216.043 154.127 215.77 154.491 215.521 154.855H218.194L219.171 150.789ZM221.326 148.691L219.846 154.855H220.952L220.607 156.263H219.501L218.926 158.649H217.26L217.82 156.263H213.481L213.768 155.028C214.055 154.587 214.415 154.094 214.846 153.548C215.286 152.992 215.765 152.427 216.283 151.852C216.809 151.278 217.36 150.717 217.935 150.171C218.51 149.616 219.075 149.122 219.63 148.691H221.326Z" fill="white"/>
<path d="M239.719 111.522C239.824 109.949 241.13 108.727 242.706 108.727H260.26C261.991 108.727 263.361 110.191 263.247 111.919L262.053 129.879C261.948 131.452 260.642 132.674 259.066 132.674H241.513C239.781 132.674 238.411 131.21 238.526 129.482L239.719 111.522Z" fill="#F0F1F3"/>
<path d="M237.325 144.45C237.429 142.877 238.735 141.655 240.312 141.655H257.865C259.596 141.655 260.967 143.119 260.852 144.847L259.658 162.807C259.554 164.38 258.248 165.602 256.671 165.602H239.118C237.387 165.602 236.016 164.138 236.131 162.41L237.325 144.45Z" fill="#F0F1F3"/>
<path d="M235.529 177.261C235.633 175.688 236.939 174.466 238.516 174.466H256.069C257.8 174.466 259.171 175.93 259.056 177.658L257.862 195.619C257.758 197.191 256.452 198.414 254.876 198.414H237.322C235.591 198.414 234.22 196.949 234.335 195.222L235.529 177.261Z" fill="#F0F1F3"/>
<path d="M276.24 45.6657C276.345 44.093 277.651 42.8708 279.227 42.8708H296.78C298.512 42.8708 299.882 44.3352 299.767 46.0627L298.574 64.0234C298.469 65.5961 297.163 66.8184 295.587 66.8184H278.033C276.302 66.8184 274.932 65.354 275.046 63.6264L276.24 45.6657Z" fill="#F0F1F3"/>
<path d="M273.845 78.5939C273.95 77.0212 275.256 75.7989 276.832 75.7989H294.386C296.117 75.7989 297.487 77.2633 297.373 78.9909L296.179 96.9516C296.075 98.5243 294.768 99.7465 293.192 99.7465H275.639C273.907 99.7465 272.537 98.2821 272.652 96.5546L273.845 78.5939Z" fill="#F0F1F3"/>
<path d="M270.253 111.522C270.357 109.949 271.664 108.727 273.24 108.727H290.793C292.525 108.727 293.895 110.192 293.78 111.919L292.587 129.88C292.482 131.452 291.176 132.675 289.6 132.675H272.046C270.315 132.675 268.945 131.21 269.059 129.483L270.253 111.522Z" fill="#F0F1F3"/>
<path d="M267.858 144.45C267.962 142.877 269.268 141.655 270.845 141.655H288.398C290.129 141.655 291.5 143.119 291.385 144.846L290.191 162.807C290.087 164.38 288.781 165.602 287.204 165.602H269.651C267.92 165.602 266.549 164.138 266.664 162.41L267.858 144.45Z" fill="#F0F1F3"/>
<path d="M266.062 177.261C266.166 175.688 267.472 174.466 269.049 174.466H286.602C288.333 174.466 289.704 175.93 289.589 177.658L288.395 195.619C288.291 197.191 286.985 198.414 285.408 198.414H267.855C266.124 198.414 264.753 196.949 264.868 195.222L266.062 177.261Z" fill="#006689"/>
<circle cx="179.044" cy="91.3649" r="7.18428" fill="#006689"/>
<rect x="185.63" y="90.1676" width="28.1385" height="1.19738" rx="0.59869" fill="#191C1E"/>
<path d="M273.024 189.352C273.024 188.719 273.21 188.15 273.584 187.642C273.957 187.134 274.518 186.67 275.265 186.248C274.997 186.028 274.786 185.774 274.633 185.487C274.489 185.19 274.417 184.85 274.417 184.466C274.417 184.064 274.489 183.676 274.633 183.303C274.786 182.919 275.011 182.579 275.308 182.282C275.605 181.985 275.969 181.751 276.4 181.578C276.831 181.396 277.334 181.305 277.909 181.305C278.33 181.305 278.704 181.368 279.03 181.492C279.365 181.607 279.643 181.77 279.863 181.981C280.093 182.191 280.265 182.436 280.38 182.713C280.505 182.991 280.567 183.288 280.567 183.604C280.567 184.15 280.414 184.672 280.107 185.17C279.801 185.659 279.269 186.09 278.512 186.464C278.848 186.694 279.125 186.971 279.346 187.297C279.576 187.613 279.691 188.035 279.691 188.561C279.691 188.983 279.609 189.385 279.446 189.768C279.283 190.152 279.039 190.487 278.713 190.774C278.397 191.062 278 191.291 277.521 191.464C277.052 191.627 276.501 191.708 275.868 191.708C275.447 191.708 275.064 191.651 274.719 191.536C274.374 191.43 274.072 191.277 273.814 191.076C273.565 190.875 273.368 190.631 273.225 190.343C273.091 190.046 273.024 189.716 273.024 189.352ZM277.995 188.648C277.995 188.226 277.847 187.886 277.55 187.627C277.262 187.369 276.884 187.139 276.415 186.938C275.849 187.187 275.423 187.508 275.136 187.9C274.848 188.293 274.705 188.696 274.705 189.107C274.705 189.471 274.815 189.764 275.035 189.984C275.255 190.195 275.595 190.3 276.055 190.3C276.314 190.3 276.558 190.262 276.788 190.185C277.028 190.099 277.234 189.984 277.406 189.84C277.588 189.697 277.732 189.524 277.837 189.323C277.942 189.122 277.995 188.897 277.995 188.648ZM276.055 184.337C276.055 184.691 276.161 184.988 276.371 185.228C276.592 185.458 276.903 185.659 277.305 185.831C277.823 185.582 278.22 185.295 278.498 184.969C278.776 184.634 278.915 184.256 278.915 183.834C278.915 183.528 278.819 183.264 278.627 183.044C278.445 182.824 278.134 182.713 277.693 182.713C277.454 182.713 277.234 182.757 277.032 182.843C276.831 182.919 276.659 183.034 276.515 183.188C276.371 183.331 276.256 183.504 276.17 183.705C276.094 183.896 276.055 184.107 276.055 184.337Z" fill="white"/>
<path d="M141.924 194.34H0.932861V73.7036H51.971" stroke="#191C1E" stroke-width="0.59869" stroke-linecap="round"/>
<path d="M34.1457 53.7668C33.7569 53.3367 33.3641 52.8818 33.1988 52.3261C33.0322 51.7711 33.1568 51.0866 33.6377 50.7627C33.9791 50.5338 34.4356 50.5194 34.762 50.2717C35.2091 49.9336 35.266 49.258 35.0573 48.74C34.8474 48.2211 34.4356 47.8167 34.0522 47.4093C33.0119 46.3023 32.1016 45.0257 31.6898 43.5641C31.278 42.1024 31.4216 40.4314 32.3251 39.2113C33.2314 37.9913 34.9693 37.3648 36.3632 37.9718C37.3913 38.4206 38.0645 39.4048 38.6836 40.3402C40.24 42.6996 41.8046 45.0703 42.9858 47.6382C44.1683 50.2062 44.9608 52.9993 44.889 55.8248C44.8632 56.8528 44.7142 57.9041 44.2198 58.8063C43.7254 59.7084 42.8354 60.442 41.81 60.5323C40.152 60.6777 39.5167 58.9396 38.4628 58.0171C36.9429 56.6864 35.5003 55.2654 34.1457 53.7668Z" fill="white"/>
<path d="M34.27 53.6551C35.6201 55.1484 37.0666 56.5732 38.574 57.8919C38.8979 58.1758 39.184 58.5342 39.4605 58.8814C40.1085 59.6932 40.7239 60.4583 41.7962 60.3657C42.6909 60.2874 43.5652 59.6593 44.0749 58.7255C44.487 57.9747 44.693 57.0515 44.7242 55.8194C44.7879 53.2973 44.1535 50.5683 42.8359 47.7065C41.6579 45.1453 40.0759 42.7482 38.5455 40.431C37.9978 39.6004 37.3146 38.5664 36.2979 38.1228C35.0427 37.5761 33.3577 38.0972 32.4603 39.3089C31.6456 40.4076 31.4179 41.9816 31.8503 43.5179C32.2041 44.7718 32.9632 46.0069 34.1738 47.2945L34.2835 47.4106C34.6414 47.7878 35.0101 48.1786 35.2121 48.6764C35.4358 49.2337 35.3883 50.0057 34.8637 50.4025C34.6699 50.5494 34.4476 50.6202 34.2307 50.6894C34.0477 50.7481 33.8755 50.8032 33.7318 50.8996C33.3021 51.188 33.2194 51.8108 33.3577 52.2777C33.5109 52.7868 33.8769 53.2198 34.27 53.6551ZM41.6145 60.7053C40.4921 60.7053 39.836 59.8838 39.2016 59.0878C38.921 58.7369 38.6566 58.4054 38.3543 58.1412C36.8388 56.8142 35.3816 55.3796 34.0233 53.8772C33.6044 53.4125 33.2126 52.948 33.0405 52.3725C32.8724 51.8078 32.9578 51.0193 33.5461 50.6247C33.7291 50.502 33.9325 50.4364 34.1304 50.3739C34.3283 50.3099 34.5154 50.2504 34.6631 50.1381C35.0562 49.8415 35.082 49.2405 34.903 48.8007C34.7268 48.361 34.3784 47.9942 34.0423 47.6387L33.9324 47.522C32.6853 46.1943 31.8991 44.9141 31.5317 43.6083C31.0708 41.9733 31.3189 40.2924 32.1932 39.1116C33.1964 37.7583 35.0183 37.2033 36.4308 37.8186C37.5383 38.3013 38.25 39.3805 38.822 40.2481C40.3592 42.5758 41.948 44.9834 43.1382 47.568C44.4761 50.4755 45.1214 53.2552 45.0563 55.8276C45.0224 57.1148 44.8042 58.0862 44.3663 58.8852C43.8024 59.9139 42.8291 60.6082 41.826 60.6963C41.7541 60.7023 41.6823 60.7053 41.6145 60.7053Z" fill="#191C1E"/>
<path d="M52.2953 55.1189C53.6327 53.0751 53.7464 50.0665 51.984 48.3743C51.2634 47.6823 50.1918 47.033 50.3126 46.042C50.3595 45.6549 50.5969 45.3182 50.8527 45.0239C51.7694 43.971 53.0017 43.2443 54.0108 42.2797C55.0185 41.3142 55.8314 39.9361 55.523 38.5752C55.2572 37.4027 54.1757 36.5262 53.0017 36.2671C51.8263 36.008 50.5869 36.2867 49.4968 36.7942C46.2221 38.3177 44.184 41.7818 43.4961 45.3244C42.8082 48.8668 43.2758 52.5222 43.823 56.0896C43.9467 56.8901 44.086 57.72 44.545 58.388C46.4112 61.1012 51.1568 56.8599 52.2953 55.1189Z" fill="white"/>
<path d="M52.0774 36.3351C51.1127 36.3351 50.2135 36.6446 49.5675 36.9444C46.6251 38.3134 44.4169 41.4583 43.6599 45.3563C42.9812 48.8512 43.428 52.4155 43.9886 56.0642C44.1024 56.8015 44.2305 57.6375 44.6829 58.2941C45.0529 58.8325 45.5722 59.106 46.2253 59.106C46.2338 59.106 46.2424 59.106 46.2523 59.106C48.2756 59.0826 51.2265 56.4528 52.1571 55.0287C53.3935 53.1393 53.624 50.1783 51.8711 48.4944C51.7288 48.358 51.5751 48.2247 51.4115 48.0832C50.7698 47.5288 50.0413 46.9008 50.1495 46.0219C50.2049 45.5686 50.4881 45.1928 50.7285 44.9156C51.2721 44.2922 51.928 43.7762 52.564 43.2785C53.0136 42.9245 53.4803 42.5586 53.8972 42.1602C54.4578 41.6232 55.7227 40.2037 55.3613 38.6117C55.1251 37.5701 54.1633 36.6928 52.9667 36.4293C52.6679 36.3637 52.3691 36.3351 52.0774 36.3351ZM46.2239 59.4372C45.4555 59.4372 44.8451 59.1165 44.4098 58.4823C43.9146 57.7624 43.7738 56.8489 43.6614 56.1147C43.0965 52.4359 42.6455 48.8407 43.3341 45.293C44.111 41.2911 46.3889 38.0575 49.4281 36.6439C50.3159 36.2313 51.6633 35.802 53.0392 36.1055C54.3568 36.3962 55.421 37.3737 55.6857 38.5387C56.0841 40.2956 54.7281 41.8236 54.1263 42.3997C53.698 42.8093 53.2256 43.1806 52.7689 43.5391C52.1443 44.0278 51.5011 44.5332 50.979 45.1333C50.7698 45.3744 50.5222 45.6982 50.4781 46.0619C50.3928 46.766 51.0202 47.3083 51.6278 47.8323C51.7871 47.9702 51.9522 48.1125 52.1016 48.2549C53.9783 50.0585 53.7464 53.207 52.4359 55.2102C51.5054 56.6314 48.4819 59.4117 46.2552 59.4372C46.2452 59.4372 46.2352 59.4372 46.2239 59.4372Z" fill="#191C1E"/>
<path d="M47.3316 57.158C47.2869 57.158 47.2408 57.1393 47.2087 57.1031C47.1472 57.036 47.1528 56.9306 47.2198 56.8689C48.9091 55.3355 48.8784 52.6848 48.7107 51.2403C48.6339 50.5785 48.5137 49.906 48.3991 49.2545C48.1546 47.884 47.9031 46.4674 48.026 45.0524C48.2091 42.9475 49.5351 40.6687 51.7162 40.3848C51.8056 40.3727 51.8895 40.4367 51.9006 40.5278C51.9132 40.6183 51.8489 40.7019 51.7581 40.714C49.7531 40.9752 48.5291 43.1087 48.3558 45.0809C48.237 46.4524 48.4857 47.8478 48.7247 49.1966C48.842 49.8524 48.9622 50.5302 49.0405 51.202C49.2151 52.7097 49.2417 55.4817 47.4434 57.1151C47.4113 57.1437 47.3707 57.158 47.3316 57.158Z" fill="#191C1E"/>
<path d="M46.4129 49.5544C45.8979 48.3728 45.1245 47.2326 45.1259 45.9441C45.1301 44.0773 46.7073 42.6637 47.8221 41.1651C49.82 38.4804 50.4642 34.7278 49.0828 31.6816C47.6999 28.6347 44.1596 26.5969 40.8886 27.3123C39.703 27.5721 38.5354 28.219 37.9745 29.2945C37.3303 30.5325 37.6107 32.0386 38.0272 33.37C38.4451 34.7014 38.9908 36.0577 38.8269 37.4434C38.5368 39.9014 36.1321 41.6516 35.6282 44.0743C35.1047 46.5911 36.7541 49.0152 38.466 50.934C39.4295 52.0154 40.4485 53.0713 41.2371 54.2919C42.1423 55.6919 42.2492 56.9413 42.5644 58.5152C42.9004 60.1916 44.0291 60.3851 45.1301 59.1817C46.1714 58.043 46.7628 56.4201 47.021 54.9224C47.3293 53.124 47.146 51.2322 46.4129 49.5544Z" fill="white"/>
<path d="M42.2188 27.3365C41.784 27.3365 41.3506 27.3817 40.9255 27.4743C39.6239 27.7596 38.6028 28.451 38.1236 29.3713C37.4735 30.6177 37.8166 32.1366 38.1875 33.3204C38.2472 33.5117 38.3097 33.703 38.3722 33.8949C38.7487 35.0479 39.1377 36.2401 38.9932 37.4631C38.8362 38.7907 38.0791 39.921 37.3457 41.0146C36.6969 41.9838 36.0246 42.9862 35.7926 44.1082C35.2508 46.7094 37.1303 49.1869 38.5903 50.8242C38.7529 51.0071 38.9182 51.1894 39.0835 51.3725C39.8864 52.2596 40.7157 53.1775 41.3784 54.2024C42.1535 55.4021 42.3549 56.4866 42.5869 57.742C42.6314 57.9815 42.6772 58.2284 42.7286 58.4829C42.8717 59.1946 43.169 59.648 43.569 59.7594C43.9788 59.8746 44.5025 59.6223 45.0082 59.0704C46.2223 57.7427 46.6877 55.8841 46.8585 54.8945C47.1683 53.0849 46.9571 51.212 46.2626 49.6207C46.1362 49.3331 45.9917 49.0409 45.8528 48.7577C45.4138 47.8706 44.9609 46.9533 44.9609 45.9435C44.9637 44.4192 45.9653 43.1993 46.9321 42.0199C47.1891 41.7082 47.4531 41.3851 47.6906 41.0665C49.7549 38.2923 50.2411 34.6352 48.9325 31.7502C47.7295 29.0986 44.9471 27.3365 42.2188 27.3365ZM43.776 60.1187C43.6746 60.1187 43.576 60.1059 43.4801 60.0788C42.9536 59.9327 42.5716 59.3889 42.4022 58.5485C42.3521 58.2917 42.3063 58.044 42.2605 57.8021C42.034 56.5815 41.8395 55.5271 41.0991 54.3825C40.4518 53.3801 39.6308 52.4727 38.8376 51.5946C38.6723 51.4115 38.507 51.2285 38.3417 51.0448C36.8345 49.3542 34.8966 46.7893 35.4675 44.0404C35.7134 42.8551 36.4024 41.8257 37.0706 40.8301C37.8138 39.7209 38.5167 38.6725 38.664 37.4239C38.7987 36.274 38.4222 35.1166 38.0569 33.9975C37.993 33.8046 37.9305 33.6118 37.8708 33.4198C37.4804 32.1742 37.1234 30.5717 37.8291 29.2184C38.3542 28.21 39.4572 27.4562 40.8546 27.1505C44.0955 26.4418 47.7767 28.4013 49.234 31.6131C50.5925 34.6066 50.0911 38.3954 47.9573 41.2646C47.7142 41.59 47.4475 41.9153 47.1891 42.2308C46.2584 43.3649 45.2957 44.5383 45.293 45.9442C45.2916 46.8765 45.7278 47.7585 46.1501 48.6108C46.2904 48.897 46.4376 49.193 46.5668 49.4882C47.2864 51.1382 47.5059 53.0782 47.185 54.9503C47.0086 55.9759 46.5237 57.9038 45.2527 59.2941C44.7581 59.8347 44.2441 60.1187 43.776 60.1187Z" fill="#191C1E"/>
<path d="M43.7364 58.5441C43.6971 58.5441 43.6591 58.5305 43.6266 58.5034C43.5574 58.4432 43.5506 58.3385 43.6117 58.2692C44.8497 56.8444 44.71 54.6869 44.1663 53.143C43.773 52.0255 43.1587 50.9772 42.5648 49.9629C42.2339 49.3996 41.8922 48.8166 41.5898 48.2247C40.5172 46.1267 40.2284 44.2779 40.7301 42.7302C41.0596 41.7166 41.72 40.8664 42.3587 40.0448C42.7723 39.5116 43.1994 38.9604 43.5303 38.3737C44.7697 36.1642 44.5826 33.1994 43.0747 31.1638C43.0191 31.09 43.0353 30.9861 43.1086 30.9319C43.1832 30.8768 43.2862 30.8927 43.3404 30.9658C44.9243 33.1037 45.1209 36.2162 43.8191 38.5357C43.4774 39.1441 43.0421 39.7052 42.6204 40.2482C41.9709 41.084 41.3566 41.8741 41.0461 42.8328C40.5714 44.2936 40.8535 46.0574 41.8854 48.0741C42.1838 48.657 42.5228 49.236 42.8509 49.7949C43.453 50.8229 44.0754 51.8854 44.4795 53.0331C45.0545 54.665 45.1941 56.9551 43.8612 58.4868C43.8286 58.5245 43.7825 58.5441 43.7364 58.5441Z" fill="#191C1E"/>
<path d="M32.8457 57.9869H53.4555L52.0516 73.7284H34.2496L32.8457 57.9869Z" fill="#006689"/>
<defs>
<filter id="filter0_i_4446_115703" x="186.435" y="20.1207" width="133.693" height="201.759" filterUnits="userSpaceOnUse" color-interpolation-filters="sRGB">
<feFlood flood-opacity="0" result="BackgroundImageFix"/>
<feBlend mode="normal" in="SourceGraphic" in2="BackgroundImageFix" result="shape"/>
<feColorMatrix in="SourceAlpha" type="matrix" values="0 0 0 0 0 0 0 0 0 0 0 0 0 0 0 0 0 0 127 0" result="hardAlpha"/>
<feOffset dx="-5.98691"/>
<feComposite in2="hardAlpha" operator="arithmetic" k2="-1" k3="1"/>
<feColorMatrix type="matrix" values="0 0 0 0 0 0 0 0 0 0 0 0 0 0 0 0 0 0 1 0"/>
<feBlend mode="normal" in2="shape" result="effect1_innerShadow_4446_115703"/>
</filter>
<filter id="filter1_i_4446_115703" x="191.353" y="25.5089" width="118.769" height="191.581" filterUnits="userSpaceOnUse" color-interpolation-filters="sRGB">
<feFlood flood-opacity="0" result="BackgroundImageFix"/>
<feBlend mode="normal" in="SourceGraphic" in2="BackgroundImageFix" result="shape"/>
<feColorMatrix in="SourceAlpha" type="matrix" values="0 0 0 0 0 0 0 0 0 0 0 0 0 0 0 0 0 0 127 0" result="hardAlpha"/>
<feOffset dx="-5.98691" dy="2.39476"/>
<feComposite in2="hardAlpha" operator="arithmetic" k2="-1" k3="1"/>
<feColorMatrix type="matrix" values="0 0 0 0 0 0 0 0 0 0 0 0 0 0 0 0 0 0 1 0"/>
<feBlend mode="normal" in2="shape" result="effect1_innerShadow_4446_115703"/>
</filter>
</defs>
</svg>
