<svg width="320" height="240" viewBox="0 0 320 240" fill="none" xmlns="http://www.w3.org/2000/svg">
<path d="M110.271 36.2868C105.767 33.1205 99.8835 32.2687 94.4733 33.2738C89.0573 34.2783 84.0803 37.0063 79.7646 40.4229C75.0841 44.1263 70.6373 48.8747 64.7197 49.6597C60.2672 50.2503 55.9002 48.4334 51.5845 47.1952C44.6748 45.2141 36.7561 44.8218 30.753 48.7789C26.6881 51.4573 23.9744 55.8852 22.7373 60.5909C19.9894 71.0255 24.3735 82.57 32.3321 89.8582C40.2907 97.1464 51.2994 100.5 62.0858 100.698C72.8721 100.895 83.5217 98.1703 93.6923 94.5587C98.7833 92.7498 103.886 90.6621 108.053 87.2198C112.135 83.8453 115.254 78.9584 115.425 73.6753C115.732 72.3663 115.59 70.908 115.259 69.5836C114.74 67.5427 113.828 65.5861 113.646 63.4887C113.252 59.0305 116.166 54.9639 116.827 50.5377C117.642 45.0926 114.775 39.4537 110.271 36.2868Z" fill="#191C1E"/>
<path d="M57.7752 131.528H108.101C111.958 106.54 119.602 74.2969 113.832 67.7258C113.832 67.7258 97.6123 69.414 82.2671 72.1431C66.9847 74.8602 54.8844 86.5737 51.628 101.749C50.7996 105.608 26.7133 104.725 24.9137 108.961C24.4338 110.086 25.3423 112.205 26.9305 114.712C33.6148 125.242 45.3036 131.528 57.7752 131.528Z" fill="white"/>
<path d="M113.722 67.9887C112.147 68.1559 96.7498 69.8212 82.3057 72.3893C67.074 75.0983 55.1295 86.6433 51.8709 101.801C51.4258 103.873 45.6562 104.591 38.9791 105.422C32.8956 106.18 26.0017 107.038 25.1399 109.058C24.866 109.705 24.9859 111.188 27.1374 114.578C33.7744 125.035 45.2281 131.279 57.7775 131.279H107.89C108.729 125.829 109.767 119.951 110.772 114.263C114.333 94.0686 118.014 73.1905 113.722 67.9887ZM108.101 131.778H57.7775C51.5913 131.778 45.4678 130.226 40.0634 127.289C34.6248 124.335 30.0079 120.033 26.7207 114.846C24.8717 111.937 24.204 109.979 24.6834 108.863C25.6536 106.577 32.0966 105.776 38.9163 104.926C44.8629 104.186 51.0092 103.42 51.3801 101.696C52.9952 94.1987 56.756 87.4206 62.2632 82.095C67.776 76.7647 74.6756 73.2385 82.2201 71.8973C97.4061 69.1974 113.642 67.4945 113.802 67.4774C113.882 67.4683 113.962 67.5002 114.013 67.5613C118.596 72.7745 115.035 92.9694 111.262 114.35C110.247 120.109 109.197 126.064 108.346 131.567C108.329 131.688 108.226 131.778 108.101 131.778Z" fill="#191C1E"/>
<path d="M69.4376 94.3073L97.7593 105.587L109.137 85.4075L113.83 67.7253C119.487 67.2147 124.381 71.6252 124.456 77.3033C124.582 87.2748 124.427 102.633 122.778 115.699C121.279 127.57 109.735 135.466 98.1269 132.571C87.0073 129.799 72.8321 124.337 60.1042 113.571L69.4376 94.3073Z" fill="white"/>
<path d="M102.951 133.414C101.313 133.414 99.676 133.216 98.0617 132.814C87.9674 130.297 73.1622 124.949 59.9369 113.762C59.8507 113.688 59.8219 113.565 59.8736 113.462L69.2153 94.1991C69.267 94.0807 69.4106 94.0273 69.5313 94.0761L97.648 105.275L108.914 85.2855C108.983 85.1648 109.133 85.1217 109.259 85.1907C109.374 85.2585 109.42 85.4107 109.351 85.5313L97.9812 105.71C97.918 105.819 97.7859 105.866 97.6652 105.819L69.56 94.6265L60.4079 113.506C73.5241 124.544 88.18 129.835 98.1823 132.328C103.652 133.692 109.454 132.647 114.108 129.462C118.756 126.279 121.824 121.252 122.524 115.669C124.15 102.782 124.334 87.6944 124.202 77.3072C124.168 74.6328 123.053 72.1733 121.071 70.3814C119.083 68.5889 116.521 67.7346 113.849 67.9747C113.717 67.988 113.597 67.8863 113.579 67.7484C113.568 67.6111 113.671 67.4893 113.809 67.4767C116.573 67.2262 119.342 68.1506 121.404 70.0103C123.467 71.8694 124.667 74.5265 124.702 77.3009C124.834 87.7036 124.65 102.816 123.024 115.731C122.3 121.456 119.152 126.61 114.389 129.874C110.994 132.201 106.995 133.414 102.951 133.414Z" fill="#191C1E"/>
<path d="M105.519 109.21C105.485 109.21 105.457 109.204 105.423 109.192L69.3451 94.5394C69.2157 94.4876 69.1538 94.3419 69.2101 94.2135C69.2607 94.0858 69.407 94.0244 69.5308 94.0762L105.614 108.729C105.738 108.78 105.8 108.926 105.749 109.054C105.71 109.151 105.614 109.21 105.519 109.21Z" fill="#191C1E"/>
<path d="M56.6193 120.209H17.7028L2.87866 72.493H41.7952L56.6193 120.209Z" fill="#EBF2F8"/>
<path d="M69.4389 94.3076L45.4178 84.1553L46.5637 87.8407C46.5637 87.8407 29.7586 84.1315 28.5478 85.7315C27.337 87.332 35.6288 89.385 35.8828 89.4266C36.1369 89.4682 25.8289 87.3504 24.9587 89.4266C24.083 91.5028 36.672 93.5503 36.672 93.5503C36.672 93.5503 26.2235 92.4541 26.3479 93.7843C26.4722 95.1146 28.0451 96.1556 31.5532 96.4054C31.5532 96.4054 31.2559 98.5924 34.6612 99.6258C38.0719 100.659 51.2069 103.825 51.2069 103.825L60.104 113.57C65.6768 107.252 68.0984 100.801 69.4389 94.3076Z" fill="white"/>
<path d="M29.6367 93.3794C27.8687 93.3794 26.7115 93.5081 26.5926 93.7671C26.7224 95.0869 28.485 95.9374 31.567 96.157C31.6373 96.1618 31.7022 96.1948 31.74 96.2483C31.7887 96.3019 31.8049 96.3711 31.7995 96.4397C31.7887 96.5187 31.594 98.4338 34.7355 99.3871C38.0932 100.407 51.1348 103.551 51.2645 103.583C51.3132 103.594 51.3564 103.62 51.3889 103.657L60.0941 113.196C64.7495 107.857 67.5503 102.058 69.1507 94.4581L45.8143 84.5958L46.7984 87.7664C46.8254 87.8519 46.8038 87.9444 46.7443 88.0103C46.6848 88.0757 46.5929 88.1044 46.5064 88.0849C40.0722 86.6645 29.5556 84.8094 28.7446 85.8827C28.6743 85.9816 28.658 86.0698 28.7013 86.1779C29.1609 87.3593 34.4814 88.8581 35.7358 89.142C35.8763 89.1701 35.9575 89.1874 35.9629 89.1906C36.0872 89.2312 36.1575 89.3604 36.1305 89.4875C36.098 89.614 35.9737 89.6951 35.8439 89.674C35.8385 89.6729 35.7952 89.6627 35.7141 89.6438C33.8379 89.2182 25.8464 87.9589 25.1868 89.5248C25.1597 89.587 25.1381 89.6756 25.2138 89.8097C26.0249 91.2745 33.7893 92.8284 36.709 93.3037C36.8442 93.3253 36.9361 93.4491 36.9199 93.5838C36.8982 93.7179 36.7793 93.813 36.6441 93.799C33.9839 93.52 31.4805 93.3794 29.6367 93.3794ZM60.0995 113.821C60.0292 113.821 59.9643 113.792 59.9157 113.74L51.0753 104.051C50.0047 103.792 37.8337 100.849 34.5895 99.8656C31.686 98.9853 31.3237 97.2919 31.2912 96.6371C26.9765 96.2764 26.1817 94.7171 26.0952 93.8082C26.0898 93.7017 26.106 93.5422 26.2574 93.394C26.8468 92.8128 29.6421 92.8095 32.2266 92.9463C29.1122 92.2531 25.4139 91.2085 24.7759 90.052C24.6461 89.8141 24.6245 89.5643 24.7272 89.3301C25.2841 88.0054 28.9554 88.1633 31.9563 88.5332C30.2477 87.9292 28.5499 87.1511 28.2363 86.3666C28.1282 86.093 28.166 85.8216 28.3498 85.581C29.5394 84.0065 42.6026 86.7224 46.1928 87.5048L45.1763 84.2303C45.1492 84.1373 45.1763 84.0362 45.2466 83.9708C45.3223 83.9053 45.425 83.8875 45.5115 83.9253L69.5346 94.078C69.6427 94.1245 69.7076 94.2423 69.6806 94.3586C68.0531 102.247 65.155 108.224 60.2887 113.737C60.24 113.79 60.1752 113.821 60.1049 113.821C60.0995 113.821 60.0995 113.821 60.0995 113.821Z" fill="#191C1E"/>
<path d="M37.9173 97.4996C37.9069 97.4996 37.8964 97.4991 37.886 97.4975L31.515 96.6535C31.3794 96.6357 31.2856 96.5096 31.3013 96.373C31.3221 96.2359 31.4473 96.141 31.5828 96.1582L37.9485 97.0023C38.0893 97.02 38.1832 97.1456 38.1675 97.2827C38.1467 97.4084 38.0424 97.4996 37.9173 97.4996Z" fill="#191C1E"/>
<path d="M89.1517 59.6752L86.6378 71.3998C86.6378 71.3998 80.5385 72.1842 80.314 74.7171C80.0896 77.25 96.7716 83.3477 103 72.3598L89.1517 59.6752Z" fill="white"/>
<path d="M89.3072 60.1539L86.888 71.4516C86.8656 71.5554 86.7814 71.6334 86.6747 71.6475C85.0302 71.8591 80.7363 72.8267 80.5679 74.7385C80.5062 75.3851 82.2012 76.63 85.0358 77.5141C90.7721 79.3012 98.8042 79.0211 102.683 72.408L89.3072 60.1539ZM91.1202 78.9554C88.948 78.9554 86.7926 78.5844 84.8898 77.9912C82.4875 77.2441 79.9617 75.8936 80.0627 74.6947C80.2873 72.2161 85.395 71.3309 86.4334 71.176L88.9087 59.6218C88.9311 59.5348 88.9928 59.4635 89.0826 59.4366C89.1668 59.4091 89.2567 59.4299 89.324 59.4899L103.171 72.1751C103.255 72.2537 103.278 72.3811 103.222 72.4827C100.505 77.2727 95.7564 78.9549 91.1202 78.9554Z" fill="#191C1E"/>
<path d="M85.5645 75.694C85.5425 75.694 85.5204 75.6912 85.4983 75.6852C85.3605 75.6499 85.2833 75.5126 85.3219 75.3798L86.4024 71.3341C86.4354 71.2007 86.5733 71.1219 86.7056 71.1572C86.8379 71.193 86.9206 71.3297 86.8875 71.4637L85.8015 75.5082C85.774 75.6201 85.6748 75.694 85.5645 75.694Z" fill="#191C1E"/>
<path d="M89.1567 59.6738C89.1567 59.6738 92.9301 61.9531 94.4032 59.0052C95.0094 57.7956 95.236 56.4188 95.2927 55.2154C95.3947 53.2777 96.6695 51.5978 98.5052 50.9837L109.44 47.3361C109.44 47.3361 111.888 68.8562 103.803 72.4936C95.7176 76.131 90.0236 63.6466 90.0236 63.6466C90.0236 63.6466 82.3748 65.3916 83.0944 58.4075C83.542 54.0035 88.2502 54.0908 89.1567 59.6738Z" fill="white"/>
<path d="M90.0257 63.3966C90.1221 63.3966 90.2127 63.4521 90.2524 63.5428C90.3091 63.6658 95.9363 75.7593 103.7 72.2651C111.01 68.9778 109.48 50.308 109.225 47.6718L98.5883 51.2209C96.8316 51.8063 95.6416 53.3788 95.5452 55.2273C95.4715 56.7381 95.1599 58.0466 94.6272 59.117C94.2305 59.9075 93.6412 60.4204 92.8818 60.6414C91.1421 61.1457 89.1134 59.9393 89.0284 59.8883C88.9661 59.8497 88.9208 59.7863 88.9094 59.7137C88.4334 56.7704 86.9204 55.4988 85.6227 55.5288C84.4156 55.5645 83.5202 56.7035 83.3389 58.4325C83.1519 60.2753 83.5486 61.645 84.5176 62.5041C86.4217 64.1877 89.9351 63.4113 89.9691 63.4028C89.9917 63.3988 90.0087 63.3966 90.0257 63.3966ZM100.855 73.4008C98.4296 73.4008 95.9986 72.1212 93.6979 69.6023C91.6011 67.3033 90.2297 64.6382 89.8841 63.9304C89.0737 64.08 86.0306 64.5084 84.1889 62.8786C83.0896 61.9068 82.6363 60.3937 82.8459 58.3815C83.0499 56.3885 84.1323 55.072 85.6113 55.029C87.0904 54.9814 88.8357 56.3567 89.3854 59.5148C89.7934 59.7387 91.4141 60.5467 92.7458 60.1608C93.3691 59.9801 93.8509 59.5534 94.1795 58.8932C94.6839 57.8856 94.9785 56.644 95.0466 55.2024C95.1542 53.147 96.4803 51.3977 98.4296 50.7466L109.361 47.0989C109.435 47.0745 109.514 47.0847 109.576 47.1255C109.639 47.1657 109.684 47.2326 109.69 47.3074C109.792 48.1937 112.064 69.0515 103.904 72.7213C102.895 73.1752 101.875 73.4008 100.855 73.4008Z" fill="#191C1E"/>
<path d="M88.7446 62.7198C88.6562 62.7198 88.5622 62.6668 88.5236 62.5762C87.9489 61.3556 86.8991 60.3897 85.6337 59.925C85.5011 59.8775 85.4348 59.7339 85.4845 59.604C85.5343 59.4747 85.6779 59.4084 85.805 59.4554C87.1919 59.9648 88.3467 61.0252 88.9767 62.364C89.0319 62.4889 88.9766 62.6381 88.8551 62.6961C88.8219 62.7127 88.7833 62.7198 88.7446 62.7198Z" fill="#191C1E"/>
<path d="M202.22 128.216H298.972V37.0026H202.22V128.216Z" fill="white"/>
<path d="M298.972 128.466H291.434C291.291 128.466 291.182 128.354 291.182 128.216C291.182 128.078 291.291 127.966 291.434 127.966H298.727V37.252H202.471V101.576C202.471 101.713 202.362 101.826 202.219 101.826C202.083 101.826 201.974 101.713 201.974 101.576V37.0019C201.974 36.8643 202.083 36.7525 202.219 36.7525H298.972C299.108 36.7525 299.224 36.8643 299.224 37.0019V128.216C299.224 128.354 299.108 128.466 298.972 128.466Z" fill="#191C1E"/>
<path d="M202.222 128.216V105.63C202.222 105.63 222.697 72.4445 248.331 75.6119L265.507 74.5643C265.507 74.5643 285.095 83.2831 290.296 88.9634C299.354 98.8491 292.763 138.141 272.002 141.734C259.264 143.937 252.052 127.812 252.052 127.812L202.222 128.216Z" fill="#006689"/>
<path d="M229.674 127.452C229.514 127.452 229.367 127.349 229.316 127.189C226.849 119.309 224.734 111.217 223.034 103.136C222.996 102.934 223.123 102.734 223.328 102.692C223.526 102.648 223.73 102.779 223.769 102.982C225.469 111.039 227.571 119.108 230.032 126.964C230.096 127.162 229.987 127.373 229.789 127.435C229.751 127.446 229.712 127.452 229.674 127.452Z" fill="white"/>
<path d="M272.529 122.877C272.39 122.877 272.263 122.801 272.197 122.676C269.549 117.616 267 112.416 264.632 107.222C264.545 107.033 264.632 106.811 264.818 106.725C265.011 106.64 265.23 106.722 265.317 106.911C267.572 111.861 269.988 116.816 272.503 121.649C272.696 121.655 272.855 121.804 272.869 121.998L272.902 122.475C272.915 122.652 272.802 122.814 272.629 122.862C272.596 122.872 272.563 122.877 272.529 122.877Z" fill="white"/>
<path d="M265.924 74.5178L265.547 71.8922H244.753L244.27 75.9281C244.131 77.0859 244.554 78.2403 245.401 79.0404L249.183 82.6095L264.033 77.6056C265.322 77.1692 266.122 75.8699 265.924 74.5178Z" fill="white"/>
<path d="M244.272 76.1781C244.259 76.1781 244.252 76.1774 244.239 76.1768C244.107 76.1602 244.008 76.0359 244.021 75.8984L244.51 71.8629C244.523 71.7372 244.629 71.6427 244.755 71.6427H265.544C265.67 71.6427 265.776 71.7339 265.795 71.8569L266.172 74.482C266.192 74.6189 266.1 74.7452 265.961 74.765C265.822 74.7862 265.696 74.6903 265.676 74.5541L265.326 72.1426H244.98L244.517 75.9579C244.504 76.0849 244.398 76.1781 244.272 76.1781Z" fill="#191C1E"/>
<path d="M251.852 127.369C251.721 127.369 251.597 127.305 251.525 127.189C249.293 123.537 247.635 119.579 246.591 115.427C246.545 115.226 246.663 115.023 246.865 114.972C247.067 114.923 247.27 115.044 247.322 115.245C248.347 119.323 249.978 123.211 252.171 126.798C252.276 126.975 252.224 127.205 252.041 127.314C251.982 127.351 251.917 127.369 251.852 127.369Z" fill="white"/>
<path d="M246.749 114.002C246.749 114.002 244.024 101.645 244.05 97.4643C244.05 97.4643 238.691 91.5582 237.272 89.4985C237.272 89.4985 234.045 89.146 234.434 87.1252C234.824 85.1044 236.282 85.1928 236.282 85.1928C236.282 85.1928 236.124 82.0507 239.074 82.6097C239.074 82.6097 238.189 79.5474 241.265 80.5249C241.265 80.5249 240.777 78.9132 239.437 77.2507C237.833 75.2556 235.365 73.0659 235.794 71.8924C236.071 71.1401 237.101 70.8457 239.338 72.1056C242.816 74.0651 247.706 78.6545 249.884 81.328C252.399 84.4213 264.126 105.551 264.126 105.551C264.126 105.551 259.586 113.95 246.749 114.002Z" fill="white"/>
<path d="M264.127 105.801C264.041 105.801 263.956 105.755 263.909 105.672C263.791 105.461 252.159 84.5264 249.683 81.4851C247.683 79.0241 242.805 74.345 239.213 72.323C237.55 71.3856 236.764 71.443 236.447 71.5598C236.243 71.6351 236.104 71.7724 236.031 71.979C235.761 72.7091 237.101 74.2057 238.276 75.526C238.738 76.0422 239.213 76.5756 239.629 77.0945C240.983 78.7746 241.484 80.384 241.504 80.452C241.531 80.5405 241.511 80.6368 241.438 80.7029C241.379 80.7675 241.28 80.79 241.194 80.7629C240.626 80.584 239.874 80.448 239.497 80.8184C239.062 81.2415 239.22 82.2047 239.319 82.54C239.339 82.6232 239.319 82.7137 239.26 82.7777C239.2 82.8417 239.114 82.8721 239.029 82.8549C238.256 82.7097 237.655 82.8206 237.24 83.1857C236.474 83.855 236.527 85.1668 236.527 85.1806C236.533 85.2513 236.507 85.3206 236.454 85.3701C236.401 85.4202 236.329 85.4447 236.263 85.442C236.21 85.4434 235.021 85.407 234.678 87.1723C234.606 87.5519 234.678 87.8767 234.889 88.1645C235.536 89.0458 237.279 89.2478 237.292 89.2498C237.431 89.2649 237.53 89.3884 237.517 89.5257C237.504 89.6623 237.378 89.7587 237.24 89.7468C237.16 89.7383 235.266 89.5198 234.487 88.4622C234.19 88.0608 234.091 87.5948 234.19 87.0779C234.513 85.4064 235.543 85.0413 236.031 84.9634C236.051 84.4928 236.177 83.4484 236.91 82.8087C237.378 82.4014 237.999 82.2344 238.758 82.3103C238.679 81.8211 238.632 80.963 239.147 80.4599C239.524 80.0968 240.098 79.9958 240.864 80.1589C240.626 79.578 240.118 78.4993 239.24 77.4081C238.831 76.8991 238.362 76.3703 237.906 75.8587C236.447 74.2275 235.187 72.8187 235.563 71.8067C235.688 71.4641 235.932 71.2166 236.276 71.0905C236.989 70.8291 238.058 71.0971 239.464 71.8873C243.102 73.939 248.046 78.6789 250.073 81.1702C252.575 84.2452 263.863 104.566 264.345 105.429C264.411 105.55 264.372 105.703 264.246 105.769C264.207 105.791 264.167 105.801 264.127 105.801Z" fill="#191C1E"/>
<path d="M246.751 98.6466C245.776 98.6466 244.815 98.3575 244.009 97.8176C243.892 97.7403 243.866 97.5851 243.938 97.4707C244.016 97.3564 244.172 97.3252 244.289 97.4019C245.094 97.9417 246.075 98.2016 247.043 98.1366C247.173 98.1353 247.297 98.2321 247.31 98.3692C247.316 98.5069 247.212 98.6265 247.076 98.6356C246.965 98.6434 246.861 98.6466 246.751 98.6466Z" fill="#191C1E"/>
<path d="M237.648 90.1483C237.571 90.1483 237.487 90.1103 237.442 90.0401L236.328 88.4356C236.251 88.3229 236.277 88.167 236.392 88.0878C236.508 88.0093 236.663 88.0376 236.74 88.1509L237.854 89.7555C237.931 89.8695 237.906 90.0253 237.79 90.1039C237.745 90.1335 237.693 90.1483 237.648 90.1483Z" fill="#191C1E"/>
<path d="M238.107 86.3009C238.043 86.3009 237.985 86.2764 237.933 86.2275C237.483 85.7746 236.851 85.4937 236.213 85.4564C236.072 85.4486 235.969 85.3308 235.975 85.1929C235.982 85.0544 236.104 84.9513 236.239 84.9578C236.999 85.0016 237.747 85.3353 238.288 85.8738C238.384 85.9717 238.384 86.1296 238.288 86.2275C238.236 86.2764 238.172 86.3009 238.107 86.3009Z" fill="#191C1E"/>
<path d="M240.6 83.9484C240.542 83.9484 240.484 83.9277 240.432 83.8857C239.941 83.4531 239.386 83.1083 238.779 82.8603C238.65 82.8087 238.592 82.6621 238.644 82.5349C238.695 82.4071 238.844 82.3464 238.966 82.398C239.625 82.6666 240.232 83.0411 240.768 83.5106C240.865 83.6016 240.878 83.7592 240.787 83.8631C240.736 83.9193 240.665 83.9484 240.6 83.9484Z" fill="#191C1E"/>
<path d="M242.855 81.765C242.81 81.765 242.771 81.7547 242.732 81.732L240.778 80.6248C240.662 80.5569 240.616 80.4042 240.688 80.2838C240.752 80.1635 240.908 80.1214 241.031 80.19L242.978 81.2978C243.095 81.3658 243.14 81.5185 243.069 81.6388C243.024 81.7197 242.939 81.765 242.855 81.765Z" fill="#191C1E"/>
<path d="M258.882 61.3011V72.5237L248.242 75.9657V66.5774C248.242 66.5774 256.064 60.5576 258.882 61.3011Z" fill="white"/>
<path d="M248.492 66.7008V75.6216L258.634 72.341V61.5047C255.987 61.1138 249.378 66.0341 248.492 66.7008ZM248.242 76.2155C248.189 76.2155 248.143 76.199 248.098 76.1675C248.032 76.1202 247.992 76.0453 247.992 75.9652V66.5767C247.992 66.4985 248.032 66.4256 248.091 66.3783C248.413 66.1293 256.046 60.2933 258.943 61.0586C259.055 61.0875 259.134 61.1867 259.134 61.3004V72.523C259.134 72.6307 259.061 72.7273 258.956 72.7608L248.321 76.203C248.295 76.2115 248.268 76.2155 248.242 76.2155Z" fill="#191C1E"/>
<path d="M267.9 57.7934C269.546 55.8195 270.283 52.956 269.261 50.5964C268.663 49.1999 267.528 48.114 266.572 46.9339C264.873 44.8464 263.679 42.4091 262.318 40.0866C260.957 37.7642 259.377 35.4855 257.154 33.9762C254.506 32.1827 251.047 31.6498 247.987 32.5637C244.921 33.4784 242.319 35.8221 241.091 38.7718C240.235 40.8234 240.069 43.2886 241.211 45.1955C242.492 47.3341 245.027 48.2846 247.151 49.5835C250.078 51.371 252.375 53.961 254.771 56.377C255.946 57.5671 257.154 58.7353 258.481 59.7561C259.158 60.2745 259.862 60.7524 260.605 61.1759C261.515 61.6996 261.873 61.5781 262.855 61.1965C264.76 60.4571 266.579 59.3771 267.9 57.7934Z" fill="#191C1E"/>
<path d="M257.737 54.3188C257.876 53.1049 258.483 52.0019 259.084 50.9358C255.848 48.9312 252.493 47.1274 249.038 45.537C247.129 44.6585 244.857 45.7266 244.382 47.7747C244.071 49.1162 243.622 50.4385 243.147 51.7317C242.209 54.3195 241.185 56.935 241.059 59.6846C240.927 62.4349 241.892 65.4091 244.177 66.9394C245.498 67.8225 247.123 68.1422 248.715 68.166C251.766 68.2102 254.969 67.0933 256.839 64.6693C257.228 64.1588 258.965 62.5142 258.965 62.5142C258.965 62.5142 260.702 62.8537 262.994 61.1879C264.434 60.1457 264.969 58.6305 264.117 57.1101C263.754 56.4628 263.133 55.9899 262.42 55.8069C260.934 55.4298 260.352 56.5724 259.111 56.8789C257.856 57.1893 257.638 55.1986 257.737 54.3188Z" fill="white"/>
<path d="M247.626 45.4775C247.157 45.4775 246.688 45.5852 246.246 45.7993C245.42 46.2049 244.832 46.9455 244.627 47.8314C244.31 49.2016 243.841 50.5572 243.385 51.8176L243.167 52.4182C242.308 54.768 241.416 57.1978 241.304 59.697C241.198 62.0522 241.932 65.138 244.316 66.7321C245.453 67.4918 246.933 67.8902 248.716 67.9159C248.776 67.9173 248.835 67.9173 248.895 67.9173C252.112 67.9173 254.992 66.6535 256.637 64.517C257.04 63.9971 258.718 62.401 258.791 62.3329C258.85 62.2774 258.936 62.253 259.016 62.2688C259.029 62.2715 260.68 62.5589 262.854 60.9859C264.254 59.9672 264.644 58.5647 263.898 57.2328C263.574 56.6475 263.006 56.2161 262.352 56.0497C261.526 55.8416 261.024 56.1547 260.443 56.5187C260.066 56.7545 259.676 56.9977 259.167 57.1219C258.784 57.2177 258.434 57.139 258.157 56.8959C257.516 56.337 257.41 55.0019 257.489 54.2917C257.622 53.0946 258.203 51.9993 258.745 51.0229C255.593 49.0813 252.297 47.3128 248.934 45.7649C248.518 45.5733 248.069 45.4775 247.626 45.4775ZM248.895 68.4174C248.829 68.4174 248.769 68.4174 248.71 68.416C246.827 68.3883 245.255 67.9615 244.032 67.1476C241.482 65.4379 240.69 62.1658 240.809 59.6739C240.921 57.0981 241.826 54.6313 242.698 52.2464L242.916 51.6472C243.365 50.4012 243.828 49.0628 244.138 47.7191C244.376 46.6859 245.063 45.8224 246.028 45.3501C247.012 44.8671 248.148 44.8526 249.139 45.3104C252.594 46.9012 255.983 48.7219 259.214 50.7236C259.326 50.7943 259.366 50.9416 259.3 51.0586C258.745 52.0455 258.117 53.1647 257.985 54.3472C257.912 54.9841 258.025 56.1144 258.487 56.52C258.639 56.6561 258.817 56.6931 259.049 56.637C259.478 56.5313 259.828 56.3093 260.178 56.0946C260.799 55.7055 261.447 55.3025 262.477 55.5654C263.263 55.7656 263.944 56.2835 264.334 56.9884C265.206 58.5396 264.75 60.2262 263.144 61.3909C261.123 62.8568 259.518 62.8258 259.049 62.7782C258.698 63.1158 257.364 64.3968 257.034 64.8222C255.296 67.0809 252.264 68.4174 248.895 68.4174Z" fill="#191C1E"/>
<path d="M259.098 61.3458C259.078 61.3458 259.052 61.3425 259.025 61.3353C258.894 61.2951 258.821 61.1555 258.861 61.0237C259.23 59.8078 260.593 58.9784 261.845 59.209C261.976 59.2347 262.069 59.3651 262.042 59.5008C262.016 59.6365 261.884 59.7254 261.752 59.701C260.745 59.5126 259.638 60.1845 259.341 61.1686C259.309 61.276 259.203 61.3458 259.098 61.3458Z" fill="#191C1E"/>
<path d="M252.131 51.8978C251.601 51.8978 251.057 52.0654 250.56 52.3927C249.833 52.8765 249.277 53.6483 249.002 54.5654C248.445 56.4429 249.251 58.3479 250.809 58.8114C252.36 59.2742 254.088 58.1247 254.645 56.2465C254.92 55.3294 254.874 54.3795 254.527 53.573C254.18 52.7815 253.584 52.2231 252.838 52.0012C252.602 51.9318 252.367 51.8978 252.131 51.8978ZM251.509 59.413C251.227 59.413 250.946 59.3737 250.665 59.2906C248.845 58.7479 247.882 56.5646 248.524 54.4227C248.825 53.3929 249.453 52.5236 250.285 51.975C251.136 51.4179 252.092 51.2562 252.982 51.522C253.872 51.7865 254.586 52.4444 254.985 53.374C255.378 54.2885 255.43 55.3595 255.123 56.3892C254.586 58.2025 253.067 59.413 251.509 59.413Z" fill="#191C1E"/>
<path d="M240.992 51.2382C240.387 53.251 241.271 55.291 242.961 55.7947C244.657 56.2984 246.509 55.0753 247.114 53.0619C247.712 51.0491 246.828 49.0091 245.138 48.5054C243.442 48.0017 241.59 49.2255 240.992 51.2382Z" fill="white"/>
<path d="M244.356 48.6415C243.823 48.6415 243.289 48.8092 242.789 49.1369C242.054 49.6205 241.502 50.3921 241.229 51.3094C240.67 53.1874 241.482 55.0915 243.036 55.5556C243.784 55.7767 244.59 55.6389 245.311 55.1637C246.046 54.68 246.598 53.9084 246.871 52.9905C247.43 51.1131 246.618 49.2083 245.064 48.7448C244.83 48.6759 244.596 48.6415 244.356 48.6415ZM243.745 56.1595C243.459 56.1595 243.172 56.1179 242.893 56.0347C241.073 55.4919 240.111 53.3084 240.748 51.167C241.06 50.1373 241.684 49.2675 242.516 48.7195C243.361 48.1618 244.317 48.0005 245.207 48.2658C247.027 48.8079 247.989 50.9915 247.352 53.1335C247.047 54.1632 246.416 55.0323 245.584 55.581C245.006 55.9632 244.375 56.1595 243.745 56.1595Z" fill="#191C1E"/>
<path d="M248.643 54.6427C248.538 54.6427 248.434 54.5718 248.402 54.4631C248.239 53.8964 247.588 53.5021 247.009 53.6199C246.873 53.6472 246.743 53.5594 246.717 53.424C246.684 53.2887 246.775 53.1566 246.912 53.1293C247.745 52.9621 248.649 53.5073 248.883 54.3226C248.922 54.4553 248.844 54.5939 248.714 54.6323C248.695 54.6394 248.669 54.6427 248.643 54.6427Z" fill="#191C1E"/>
<path d="M258.893 57.078C258.874 57.078 258.854 57.0767 258.834 57.0728L255.018 56.2411C254.886 56.2115 254.801 56.0788 254.827 55.9435C254.86 55.8088 254.991 55.7228 255.129 55.7523L258.946 56.584C259.077 56.6136 259.163 56.7463 259.13 56.8816C259.11 56.9985 259.005 57.078 258.893 57.078Z" fill="#191C1E"/>
<path d="M113.866 172.033C112.237 166.874 108.505 162.646 103.584 160.394C93.9489 155.981 77.2038 148.478 64.5165 143.664C56.4583 140.607 47.3543 143.612 42.6851 150.854C34.2383 163.96 19.6993 188.077 2.87427 222.675V239.625H73.0719L96.2863 203.567L119.924 191.271L113.866 172.033Z" fill="#006689"/>
<path d="M123.305 210.553C130.838 206.863 146.622 197.804 152.081 193.644C155.613 190.953 161.132 190.543 163.133 188.992C164.658 187.811 166.433 187.081 167.408 187.743C168.561 188.52 168.89 190.607 166.451 192.116C164.011 193.624 163.133 195.36 163.133 195.36C163.133 195.36 164.609 195.08 168.805 194.211C173.007 193.342 175.612 190.704 177.557 191.142C179.509 191.58 178.43 193.269 178.43 193.269C180.339 192.37 181.528 192.546 181.924 193.769C182.321 194.991 181.064 196.324 181.064 196.324C182.54 197.712 181.229 199.147 181.229 199.147C182.351 200.515 181.992 202.787 178.344 205.726C174.697 208.665 168.403 209.151 163.621 209.815C162.163 210.018 153.606 218.496 144.079 228.367C129.648 243.318 104.874 240.06 94.7794 221.898C90.2782 213.79 86.6309 207.392 85.9661 206.715L117.523 192.519L123.305 210.553Z" fill="white"/>
<path d="M86.3634 206.811C87.2844 208.088 90.1204 213.005 94.9996 221.776C99.769 230.367 108.1 236.025 117.84 237.302C127.58 238.577 137.076 235.257 143.895 228.192C161.613 209.842 163.095 209.635 163.583 209.567C164.15 209.488 164.735 209.412 165.339 209.334C169.877 208.745 175.024 208.078 178.184 205.531C180.233 203.878 181.392 202.303 181.526 200.975C181.593 200.344 181.428 199.783 181.032 199.306C180.952 199.21 180.959 199.07 181.038 198.978C181.087 198.928 182.166 197.704 180.891 196.506C180.788 196.411 180.788 196.253 180.879 196.153C180.891 196.14 182.026 194.911 181.684 193.845C181.55 193.451 181.343 193.194 181.038 193.061C180.495 192.827 179.629 192.978 178.531 193.495C178.434 193.542 178.312 193.517 178.238 193.434C178.165 193.35 178.153 193.228 178.214 193.134C178.22 193.128 178.623 192.48 178.415 191.98C178.299 191.696 177.994 191.495 177.5 191.386C176.586 191.179 175.439 191.753 173.994 192.481C172.621 193.171 170.92 194.029 168.858 194.455C164.705 195.315 163.192 195.603 163.18 195.606C163.082 195.623 162.991 195.587 162.93 195.511C162.875 195.435 162.863 195.333 162.912 195.248C162.948 195.174 163.845 193.431 166.315 191.903C167.407 191.229 168.017 190.368 168.035 189.478C168.047 188.854 167.76 188.283 167.266 187.95C166.498 187.428 164.93 187.914 163.284 189.189C162.381 189.889 160.85 190.348 159.075 190.88C156.788 191.566 154.196 192.343 152.232 193.843C146.627 198.111 130.551 207.28 123.415 210.777C123.348 210.809 123.274 210.812 123.207 210.783C123.14 210.754 123.092 210.698 123.067 210.629L117.371 192.862L86.3634 206.811ZM121.933 238.07C120.554 238.07 119.17 237.98 117.779 237.797C107.875 236.5 99.4092 230.75 94.5605 222.019C88.0102 210.238 86.1744 207.289 85.784 206.89C85.7291 206.831 85.7048 206.748 85.723 206.669C85.7352 206.588 85.7902 206.521 85.8634 206.487L117.419 192.291C117.487 192.262 117.56 192.262 117.627 192.291C117.688 192.319 117.743 192.375 117.761 192.442L123.457 210.2C130.697 206.622 146.414 197.647 151.927 193.445C153.964 191.89 156.605 191.099 158.929 190.401C160.655 189.884 162.149 189.436 162.979 188.794C164.43 187.672 166.388 186.753 167.547 187.536C168.181 187.964 168.553 188.694 168.535 189.488C168.523 190.106 168.248 191.294 166.583 192.328C164.991 193.311 164.077 194.4 163.656 195.004C164.418 194.854 166.004 194.535 168.755 193.966C170.749 193.553 172.353 192.746 173.768 192.035C175.305 191.263 176.519 190.653 177.61 190.898C178.269 191.046 178.696 191.347 178.879 191.791C179.025 192.135 178.983 192.498 178.903 192.793C179.879 192.418 180.66 192.354 181.233 192.602C181.678 192.793 181.983 193.159 182.16 193.691C182.508 194.771 181.745 195.881 181.398 196.312C182.495 197.507 181.843 198.713 181.538 199.147C181.928 199.691 182.093 200.337 182.02 201.026C181.867 202.51 180.684 204.157 178.501 205.92C175.226 208.556 170.005 209.233 165.406 209.83C164.802 209.908 164.217 209.984 163.656 210.062C162.979 210.156 159.563 212.681 144.255 228.539C138.302 234.71 130.337 238.07 121.933 238.07Z" fill="#191C1E"/>
<path d="M168.103 203.397C167.646 203.397 167.183 203.376 166.732 203.335C166.592 203.323 166.495 203.201 166.507 203.064C166.519 202.926 166.641 202.825 166.781 202.837C169.875 203.119 173.054 202.4 175.728 200.816C176.014 200.647 176.294 200.469 176.575 200.292C177.062 199.981 177.561 199.66 178.097 199.392C179.09 198.89 180.028 198.676 180.868 198.759C181.008 198.772 181.106 198.894 181.094 199.032C181.075 199.17 180.96 199.268 180.82 199.257C180.07 199.184 179.23 199.38 178.322 199.839C177.811 200.095 177.318 200.41 176.843 200.713C176.556 200.894 176.276 201.075 175.984 201.246C173.615 202.651 170.856 203.397 168.103 203.397Z" fill="#191C1E"/>
<path d="M166.38 200.525C166.252 200.525 166.143 200.427 166.131 200.296C166.118 200.159 166.222 200.038 166.362 200.026C169.084 199.793 171.715 199.066 174.176 197.864C174.499 197.707 174.815 197.541 175.132 197.376C175.838 197.013 176.563 196.636 177.318 196.351C178.628 195.858 179.821 195.734 180.863 195.982C180.997 196.013 181.082 196.148 181.052 196.283C181.021 196.417 180.887 196.501 180.747 196.468C179.803 196.244 178.707 196.362 177.495 196.819C176.764 197.094 176.052 197.463 175.363 197.82C175.041 197.987 174.724 198.155 174.395 198.314C171.88 199.542 169.194 200.286 166.405 200.524C166.392 200.525 166.386 200.525 166.38 200.525Z" fill="#191C1E"/>
<path d="M165.905 198.542C165.783 198.542 165.68 198.456 165.662 198.332C165.638 198.196 165.729 198.067 165.862 198.046C170.113 197.354 174.261 195.752 177.875 193.412C177.99 193.336 178.142 193.369 178.221 193.485C178.294 193.601 178.264 193.756 178.142 193.831C174.48 196.209 170.259 197.837 165.941 198.539C165.929 198.542 165.917 198.542 165.905 198.542Z" fill="#191C1E"/>
<path d="M117.177 213.698C117.085 213.698 116.993 213.645 116.953 213.555C116.89 213.43 116.942 213.281 117.068 213.222L123.201 210.327C123.328 210.267 123.477 210.321 123.534 210.446C123.592 210.571 123.54 210.719 123.414 210.779L117.286 213.674C117.252 213.691 117.211 213.698 117.177 213.698Z" fill="#191C1E"/>
<path d="M71.0406 186.53C71.0135 186.53 70.9919 186.527 70.9702 186.521L70.1089 186.279C69.9735 186.242 69.8977 186.104 69.9356 185.971C69.9735 185.838 70.1143 185.762 70.2443 185.798L70.7156 185.93C69.4806 179.464 68.7872 172.854 68.6518 166.274C68.6464 166.136 68.7601 166.022 68.8955 166.019H68.901C69.0364 166.019 69.1501 166.128 69.1501 166.264C69.2856 172.95 70.006 179.669 71.2844 186.233C71.3006 186.318 71.2681 186.405 71.2085 186.464C71.1598 186.507 71.1002 186.53 71.0406 186.53Z" fill="#191C1E"/>
<path d="M127.206 167.435C127.131 167.435 127.05 167.397 127.003 167.328C126.922 167.215 126.951 167.059 127.061 166.98C128.779 165.777 131.477 164.129 133.886 163.105C134.013 163.052 134.158 163.11 134.216 163.237C134.269 163.364 134.211 163.511 134.083 163.565C131.71 164.574 129.046 166.202 127.351 167.39C127.305 167.42 127.259 167.435 127.206 167.435Z" fill="#191C1E"/>
<path d="M130.222 173.527C130.14 173.527 130.065 173.488 130.013 173.416C129.937 173.3 129.966 173.146 130.082 173.069C131.025 172.443 132.084 171.747 133.136 171.05C134.195 170.354 135.248 169.658 136.191 169.033C136.307 168.955 136.464 168.987 136.54 169.102C136.615 169.218 136.58 169.372 136.47 169.449C135.527 170.075 134.469 170.772 133.41 171.468C132.357 172.164 131.304 172.86 130.362 173.485C130.315 173.514 130.268 173.527 130.222 173.527Z" fill="#191C1E"/>
<path d="M66.6556 195.084C66.5851 195.084 66.5146 195.052 66.4658 194.992C66.3736 194.885 66.3953 194.727 66.4983 194.64C68.2229 193.234 70.045 191.909 71.9105 190.702C72.0244 190.627 72.1762 190.66 72.2521 190.776C72.3281 190.891 72.2955 191.046 72.1817 191.121C70.3324 192.319 68.5211 193.633 66.8129 195.027C66.7695 195.065 66.7153 195.084 66.6556 195.084Z" fill="#191C1E"/>
<path d="M40.359 194.145C40.3171 194.145 40.2753 194.135 40.2386 194.115C40.1758 194.081 40.1287 194.022 40.113 193.952C37.4278 182.545 36.7997 170.865 38.2444 159.237C38.2653 159.1 38.3909 159.002 38.5218 159.019C38.6631 159.036 38.7573 159.161 38.7416 159.298C37.3179 170.774 37.9198 182.3 40.537 193.561L41.207 193.312C41.3326 193.264 41.4792 193.329 41.5263 193.459C41.5734 193.588 41.5106 193.732 41.3797 193.78L40.448 194.129C40.4166 194.14 40.3852 194.145 40.359 194.145Z" fill="#191C1E"/>
<path d="M93.2978 139.888L79.0608 149.549L77.0558 148.704C76.6683 148.542 76.2807 148.927 76.438 149.314C77.7129 152.366 82.4642 160.96 94.6513 157.395C95.1511 157.249 95.2129 156.562 94.7467 156.33L92.7474 155.339L103.811 148.752L93.2978 139.888Z" fill="white"/>
<path d="M94.7483 156.58C94.709 156.58 94.6697 156.572 94.6303 156.554L92.636 155.563C92.5574 155.522 92.5012 155.44 92.4956 155.349C92.4956 155.257 92.5405 155.171 92.6192 155.124L103.383 148.717L93.2821 140.202L79.204 149.755C79.131 149.803 79.0411 149.812 78.9681 149.779L76.9569 148.935C76.8277 148.882 76.7659 148.735 76.8221 148.607C76.8782 148.48 77.0243 148.421 77.1479 148.474L79.0355 149.266L93.1529 139.681C93.2484 139.618 93.3719 139.625 93.4562 139.697L103.973 148.561C104.034 148.614 104.068 148.692 104.063 148.773C104.051 148.853 104.006 148.926 103.939 148.967L93.2708 155.319L94.855 156.106C94.9786 156.168 95.0292 156.318 94.9674 156.441C94.9281 156.53 94.8382 156.58 94.7483 156.58Z" fill="#191C1E"/>
<path d="M84.9094 130.969C84.8082 130.969 84.7183 130.91 84.679 130.812C84.6284 130.701 84.6734 130.577 84.7689 130.512C84.797 130.489 84.8531 130.434 84.9431 130.351C87.5333 127.893 94.5737 121.95 103.918 119.861C104.053 119.831 104.182 119.916 104.216 120.051C104.244 120.185 104.159 120.319 104.025 120.349C94.8041 122.411 87.848 128.284 85.2858 130.714C85.0723 130.917 85.061 130.929 84.9992 130.952C84.9711 130.963 84.9375 130.969 84.9094 130.969Z" fill="white"/>
<path d="M92.9627 140.141C92.8961 140.141 92.835 140.114 92.7851 140.063C92.0523 139.298 90.9476 138.928 89.904 139.094C89.7652 139.117 89.6375 139.024 89.6153 138.887C89.5931 138.75 89.6875 138.622 89.8207 138.601C91.0254 138.407 92.3021 138.835 93.1459 139.718C93.2403 139.818 93.2347 139.976 93.1348 140.071C93.0904 140.118 93.0238 140.141 92.9627 140.141Z" fill="#191C1E"/>
<path d="M3.03376 221.925C2.8985 221.925 2.78491 221.813 2.78491 221.675V131.466C2.78491 131.328 2.8985 131.216 3.03376 131.216H69.973C70.1082 131.216 70.2218 131.328 70.2218 131.466C70.2218 131.604 70.1082 131.716 69.973 131.716H3.28265V221.675C3.28265 221.813 3.17442 221.925 3.03376 221.925Z" fill="#191C1E"/>
<path d="M163.316 239.875H73.0777C72.9401 239.875 72.8264 239.762 72.8264 239.625C72.8264 239.488 72.9401 239.375 73.0777 239.375H163.065V214.645C163.065 214.507 163.178 214.395 163.316 214.395C163.459 214.395 163.567 214.507 163.567 214.645V239.625C163.567 239.762 163.459 239.875 163.316 239.875Z" fill="#191C1E"/>
<path d="M199.852 235.3H314.126V160.191H199.852V235.3Z" fill="white"/>
<path d="M200.103 235.051H313.877V160.441H200.103V235.051ZM314.126 235.55H199.854C199.716 235.55 199.598 235.44 199.598 235.301V160.191C199.598 160.053 199.716 159.941 199.854 159.941H314.126C314.264 159.941 314.374 160.053 314.374 160.191V235.301C314.374 235.44 314.264 235.55 314.126 235.55Z" fill="#191C1E"/>
<path d="M242.838 181.42C242.838 181.42 235.886 177.107 237.831 174.064C239.782 171.022 248.851 174.731 239.817 165.819C230.782 156.907 234.539 151.113 237.06 147.498C239.178 144.466 250.699 137.128 263.567 148.829C276.442 160.529 271.136 164.7 295.726 170.457C320.317 176.213 284.692 205.523 242.838 181.42Z" fill="#191C1E"/>
<path d="M307.823 217.254C305.72 203.402 300.688 181.386 289.017 178.264C269.215 172.965 211.127 177.176 211.127 177.176L205.285 163.918C194.831 166.754 186.459 172.848 188.72 180.999C192.191 193.506 196.934 201.666 205.237 202.726C212.516 203.656 218.489 203.716 218.489 203.716L212.275 228.83H293.959C303.788 228.83 308.744 223.346 307.823 217.254Z" fill="white"/>
<path d="M212.597 228.58H293.959C299.078 228.58 303.208 227.055 305.586 224.285C307.256 222.344 307.963 219.86 307.572 217.291C306.156 207.942 304.205 200.047 301.779 193.826C298.336 185.015 294.021 179.861 288.956 178.505C269.419 173.278 211.724 177.383 211.147 177.425C211.037 177.431 210.94 177.373 210.899 177.277L205.141 164.216C197.719 166.265 192.153 169.752 189.844 173.8C188.566 176.044 188.27 178.443 188.964 180.932C192.833 194.887 197.863 201.533 205.271 202.479C212.452 203.395 218.431 203.466 218.486 203.466C218.561 203.467 218.637 203.503 218.685 203.564C218.733 203.623 218.747 203.702 218.726 203.777L212.597 228.58ZM293.959 229.081H212.274C212.198 229.081 212.129 229.045 212.081 228.984C212.033 228.924 212.012 228.845 212.033 228.77L218.17 203.961C216.836 203.933 211.476 203.775 205.209 202.975C197.568 202 192.407 195.243 188.477 181.065C187.748 178.444 188.064 175.916 189.411 173.553C191.809 169.352 197.568 165.752 205.223 163.677C205.34 163.643 205.464 163.704 205.512 163.817L211.284 176.914C214.844 176.665 270.004 172.917 289.087 178.023C300.322 181.029 305.613 200.996 308.066 217.217C308.479 219.932 307.737 222.557 305.971 224.611C303.49 227.493 299.229 229.081 293.959 229.081Z" fill="#191C1E"/>
<path d="M209.898 179.996C209.86 179.996 209.829 179.989 209.791 179.972C209.665 179.913 209.615 179.765 209.672 179.64L210.902 177.024C210.965 176.899 211.115 176.844 211.241 176.904C211.36 176.963 211.417 177.112 211.354 177.237L210.124 179.853C210.08 179.943 209.992 179.996 209.898 179.996Z" fill="#191C1E"/>
<path d="M218.759 202.957C218.74 202.957 218.715 202.955 218.696 202.949C218.563 202.913 218.481 202.776 218.519 202.643C218.829 201.466 219.158 200.249 219.025 199.032C218.892 197.733 218.164 196.653 217.19 196.279C217.057 196.23 216.994 196.085 217.044 195.957C217.095 195.827 217.241 195.764 217.367 195.812C218.519 196.252 219.366 197.495 219.525 198.98C219.664 200.289 219.31 201.608 219 202.772C218.974 202.883 218.867 202.957 218.759 202.957Z" fill="#191C1E"/>
<path d="M286.216 211.887C286.095 211.887 285.987 211.8 285.967 211.678C285.118 206.626 284.04 201.551 282.753 196.593C282.72 196.46 282.801 196.324 282.935 196.289C283.063 196.253 283.205 196.334 283.239 196.468C284.525 201.44 285.61 206.529 286.466 211.595C286.486 211.731 286.391 211.861 286.257 211.884C286.243 211.886 286.23 211.887 286.216 211.887Z" fill="#191C1E"/>
<path d="M278.277 213.997C278.203 213.997 278.183 213.987 278.169 213.977C278.048 213.91 278.007 213.757 278.075 213.637C278.122 213.546 278.223 213.499 278.318 213.511C278.77 213.494 284.739 212.589 288.669 211.979C288.811 211.958 288.939 212.051 288.959 212.187C288.98 212.324 288.885 212.451 288.75 212.473C280.229 213.794 278.635 213.997 278.277 213.997Z" fill="#191C1E"/>
<path d="M236.217 228.633H266.204L256.418 196.813C256.087 195.739 255.095 195.006 253.971 195.006H228.897C227.396 195.006 226.318 196.462 226.761 197.899L236.217 228.633Z" fill="#191C1E"/>
<path d="M277.107 213.759C277.107 213.759 283.152 221.455 282.622 228.909L243.592 228.773C243.592 228.773 242.538 228.693 241.692 228.146C240.812 227.577 241.081 226.215 242.108 225.998L244.157 225.566C244.157 225.566 239.408 224.876 239.126 223.09C238.844 221.304 240.342 221.383 244.237 222.116C248.133 222.847 254.668 221.831 256.736 220.98C258.805 220.127 259.792 218.117 260.518 215.124C261.236 212.131 260.887 208.88 262.835 209.143C264.783 209.408 264.978 215.124 264.978 215.124L277.107 213.759Z" fill="white"/>
<path d="M240.634 221.879C240.11 221.879 239.721 221.956 239.526 222.148C239.351 222.317 239.304 222.612 239.371 223.051C239.58 224.366 242.925 225.134 244.195 225.319C244.316 225.337 244.403 225.437 244.403 225.558C244.41 225.679 244.329 225.786 244.208 225.811L242.159 226.243C241.709 226.34 241.481 226.696 241.427 226.999C241.373 227.292 241.454 227.693 241.83 227.937C242.609 228.443 243.597 228.524 243.61 228.524L282.386 228.659C282.736 221.933 277.711 214.977 276.992 214.024L265 215.373C264.933 215.381 264.859 215.359 264.806 215.314C264.758 215.268 264.725 215.203 264.725 215.133C264.671 213.602 264.228 209.586 262.797 209.392C262.273 209.321 261.95 209.541 261.702 210.129C261.453 210.728 261.339 211.601 261.198 212.611C261.09 213.409 260.97 214.314 260.755 215.183C260.143 217.728 259.236 220.22 256.831 221.211C254.769 222.062 248.165 223.108 244.188 222.361C242.791 222.098 241.521 221.879 240.634 221.879ZM282.622 229.159L243.59 229.023C243.523 229.019 242.448 228.931 241.555 228.357C241.064 228.041 240.829 227.485 240.937 226.908C241.044 226.319 241.474 225.877 242.058 225.754L242.892 225.578C241.393 225.234 239.096 224.489 238.881 223.13C238.78 222.519 238.881 222.08 239.177 221.789C239.828 221.16 241.273 221.305 244.282 221.87C248.172 222.599 254.621 221.579 256.643 220.749C258.417 220.017 259.471 218.37 260.271 215.066C260.479 214.221 260.593 213.369 260.701 212.544C260.849 211.499 260.97 210.596 261.245 209.936C261.574 209.134 262.112 208.793 262.864 208.896C264.779 209.156 265.148 213.595 265.209 214.846L277.079 213.511C277.167 213.501 277.247 213.537 277.301 213.605C277.361 213.683 283.401 221.464 282.87 228.927C282.863 229.058 282.756 229.159 282.622 229.159Z" fill="#191C1E"/>
<path d="M282.623 229.158L243.59 229.023C243.523 229.019 242.449 228.931 241.556 228.357C241.066 228.04 240.83 227.484 240.938 226.908C241.045 226.319 241.475 225.877 242.059 225.754L242.892 225.578C241.394 225.234 239.091 224.488 238.876 223.129C238.782 222.518 238.876 222.08 239.179 221.79C239.823 221.16 241.274 221.305 244.282 221.87C248.102 222.587 254.468 221.571 256.469 220.748C258.248 220.016 259.296 218.37 260.102 215.066C260.129 214.931 260.27 214.847 260.404 214.881C260.538 214.914 260.619 215.049 260.585 215.183C259.967 217.728 259.068 220.22 256.657 221.211C254.656 222.034 248.25 223.122 244.195 222.361C241.952 221.941 240.058 221.634 239.528 222.148C239.353 222.317 239.306 222.612 239.373 223.051C239.582 224.366 242.925 225.134 244.195 225.319C244.315 225.336 244.403 225.437 244.409 225.558C244.409 225.679 244.329 225.786 244.208 225.81L242.16 226.243C241.703 226.339 241.482 226.696 241.428 226.998C241.374 227.292 241.448 227.692 241.831 227.936C242.61 228.443 243.597 228.523 243.61 228.524L282.623 228.659C282.764 228.659 282.871 228.772 282.871 228.91C282.871 229.047 282.757 229.158 282.623 229.158Z" fill="#191C1E"/>
<path d="M245.779 225.901C245.452 225.901 245.125 225.899 244.804 225.893C244.661 225.891 244.556 225.777 244.556 225.639C244.556 225.502 244.667 225.393 244.804 225.393H244.811C247.904 225.444 251.031 225.25 254.098 224.816C254.235 224.796 254.359 224.892 254.379 225.029C254.399 225.166 254.301 225.292 254.163 225.311C251.397 225.703 248.578 225.901 245.779 225.901Z" fill="#191C1E"/>
<path d="M205.251 164.762L189.231 126.902C188.756 125.77 187.272 125.506 186.429 126.403C186.024 126.843 185.874 127.467 186.043 128.045L188.738 137.169C182.88 136.854 183.61 141.471 183.61 141.471C180.628 140.274 179.767 144.712 179.767 144.712C177.421 145.078 176.504 147.789 178.032 152.501C179.829 158.057 182.799 155.965 182.799 155.965C183.36 160.955 185.743 170.415 188.725 180.959C192.974 178.947 200.173 174.334 205.251 164.762Z" fill="white"/>
<path d="M193.653 150.505C193.622 150.505 193.585 150.499 193.548 150.483C192.289 149.901 191.832 148.352 191.536 147.328C191.202 146.184 190.715 144.968 189.684 144.607C189.449 144.522 189.184 144.487 188.9 144.45C188.431 144.387 187.937 144.322 187.536 144.003C186.937 143.526 186.764 142.578 187.147 141.797C187.443 141.198 188.005 140.709 188.814 140.343C190.573 139.546 192.702 139.663 194.369 140.649C194.493 140.719 194.53 140.872 194.455 140.991C194.388 141.11 194.233 141.15 194.116 141.079C192.591 140.175 190.635 140.068 189.017 140.798C188.32 141.115 187.838 141.525 187.598 142.017C187.357 142.512 187.382 143.244 187.844 143.611C188.141 143.844 188.542 143.897 188.968 143.954C189.264 143.993 189.567 144.033 189.857 144.135C191.097 144.571 191.647 145.922 192.017 147.187C192.381 148.428 192.789 149.579 193.758 150.029C193.881 150.087 193.937 150.235 193.881 150.36C193.838 150.452 193.752 150.505 193.653 150.505Z" fill="#191C1E"/>
<path d="M189.246 149.904C188.434 149.904 187.622 149.388 186.822 148.369C185.486 146.662 184.551 144.638 184.12 142.515C184.089 142.38 184.175 142.248 184.311 142.22C184.446 142.193 184.581 142.28 184.606 142.415C185.024 144.463 185.929 146.415 187.215 148.06C187.972 149.023 188.705 149.47 189.406 149.395C190.207 149.306 190.754 148.526 190.883 147.8C191.037 146.912 190.717 145.982 190.459 145.358C190.41 145.231 190.465 145.085 190.594 145.032C190.724 144.98 190.865 145.04 190.92 145.168C191.204 145.848 191.554 146.871 191.376 147.888C191.216 148.796 190.502 149.777 189.462 149.892C189.388 149.9 189.314 149.904 189.246 149.904Z" fill="#191C1E"/>
<path d="M184.826 153.042C184.599 153.042 184.378 153.008 184.157 152.933C183.256 152.63 182.71 151.789 182.287 151.006C181.392 149.349 180.718 147.58 180.276 145.751C180.246 145.617 180.325 145.481 180.46 145.45C180.595 145.416 180.73 145.499 180.761 145.634C181.196 147.421 181.852 149.149 182.729 150.77C183.103 151.466 183.581 152.212 184.317 152.459C185.181 152.752 186.113 152.238 186.598 151.579C187.064 150.94 187.291 150.052 187.278 148.94C187.278 148.802 187.389 148.689 187.53 148.687C187.671 148.687 187.781 148.797 187.781 148.935C187.793 150.157 187.53 151.146 187.002 151.874C186.53 152.516 185.696 153.042 184.826 153.042Z" fill="#191C1E"/>
<path d="M183.132 155.751C183.071 155.751 183.01 155.727 182.961 155.68C182.863 155.583 182.857 155.425 182.955 155.326C183.645 154.618 183.847 153.452 183.431 152.554C183.376 152.428 183.431 152.28 183.554 152.222C183.682 152.164 183.829 152.221 183.89 152.346C184.391 153.441 184.153 154.811 183.315 155.675C183.26 155.725 183.199 155.751 183.132 155.751Z" fill="#191C1E"/>
<path d="M182.804 155.714C182.835 155.714 182.872 155.722 182.903 155.736C182.985 155.772 183.041 155.848 183.053 155.936C183.54 160.321 185.506 168.62 188.888 180.605C192.856 178.672 199.964 174.124 204.975 164.749L189.006 126.999C188.813 126.546 188.407 126.224 187.927 126.137C187.44 126.051 186.953 126.214 186.616 126.573C186.267 126.946 186.136 127.483 186.286 127.974L188.981 137.098C189 137.176 188.988 137.26 188.938 137.323C188.881 137.387 188.807 137.425 188.725 137.418C186.847 137.316 185.487 137.722 184.669 138.62C183.621 139.784 183.858 141.415 183.858 141.431C183.871 141.52 183.839 141.609 183.765 141.665C183.696 141.722 183.602 141.736 183.521 141.702C182.866 141.443 182.304 141.452 181.799 141.73C180.476 142.452 180.021 144.736 180.014 144.759C179.996 144.863 179.908 144.942 179.808 144.959C179.047 145.077 178.467 145.457 178.074 146.086C177.294 147.364 177.356 149.615 178.267 152.423C178.916 154.413 179.802 155.649 180.844 155.996C181.836 156.326 182.648 155.765 182.66 155.76C182.704 155.729 182.754 155.714 182.804 155.714ZM188.725 181.209C188.688 181.209 188.657 181.201 188.619 181.186C188.557 181.156 188.501 181.098 188.482 181.027C185.144 169.189 183.159 160.894 182.598 156.359C182.198 156.537 181.493 156.739 180.688 156.471C179.471 156.065 178.498 154.755 177.793 152.577C176.826 149.585 176.776 147.25 177.649 145.824C178.086 145.122 178.741 144.666 179.559 144.495C179.696 143.912 180.245 142.009 181.562 141.291C182.098 140.997 182.691 140.938 183.334 141.112C183.315 140.493 183.409 139.27 184.295 138.289C185.162 137.33 186.541 136.862 188.401 136.905L185.805 128.116C185.612 127.455 185.78 126.734 186.248 126.232C186.704 125.748 187.359 125.529 188.014 125.645C188.663 125.761 189.206 126.194 189.468 126.804L205.486 164.664C205.511 164.734 205.511 164.812 205.474 164.879C200.276 174.667 192.819 179.296 188.832 181.185C188.8 181.201 188.763 181.209 188.725 181.209Z" fill="#191C1E"/>
<path d="M244.338 163.002L248.074 175.093L237.305 175.937C237.305 175.937 242.275 181.987 252.898 181.88C268.591 181.722 269.938 175.715 269.938 175.715L259.049 175.128L253.807 161.536L244.338 163.002Z" fill="white"/>
<path d="M237.843 176.144C239.117 177.429 243.955 181.631 252.623 181.631C252.716 181.631 252.802 181.63 252.895 181.629C266.163 181.496 269.05 177.12 269.587 175.946L259.034 175.377C258.935 175.372 258.849 175.31 258.815 175.217L253.645 161.814L244.665 163.204L248.316 175.019C248.336 175.091 248.322 175.17 248.283 175.233C248.236 175.296 248.17 175.336 248.097 175.341L237.843 176.144ZM252.623 182.131C242.19 182.131 237.166 176.156 237.113 176.095C237.053 176.023 237.04 175.923 237.079 175.838C237.113 175.752 237.192 175.694 237.285 175.687L247.745 174.868L244.101 163.075C244.081 163.006 244.088 162.93 244.128 162.869C244.168 162.808 244.227 162.766 244.3 162.754L253.771 161.289C253.884 161.27 253.997 161.336 254.043 161.446L259.22 174.887L269.952 175.465C270.025 175.469 270.092 175.505 270.138 175.564C270.178 175.623 270.198 175.698 270.178 175.769C270.125 176.023 268.612 181.972 252.902 182.129C252.809 182.13 252.716 182.131 252.623 182.131Z" fill="#191C1E"/>
<path d="M240.437 162.386C241.54 164.822 243.687 166.943 246.334 167.301C248.244 167.559 250.234 166.852 251.672 165.565C253.11 164.279 254.016 162.454 254.351 160.554C255.704 160.745 257.174 160.171 257.916 159.029C258.665 157.886 258.553 156.213 257.562 155.273C256.577 154.332 254.784 154.361 253.924 155.417C253.694 155.696 253.53 156.033 253.241 156.257C252.696 156.693 251.889 156.577 251.252 156.287C249.984 155.708 249.013 154.499 248.73 153.129C247.233 153.998 245.736 154.953 244.042 155.301C240.792 155.968 239.045 154.849 239.045 154.849C239.045 154.849 239.492 160.3 240.437 162.386Z" fill="white"/>
<path d="M239.335 155.272C239.467 156.609 239.907 160.603 240.669 162.283C241.595 164.342 243.585 166.676 246.37 167.053C248.15 167.292 250.068 166.666 251.506 165.378C252.839 164.184 253.765 162.456 254.107 160.51C254.133 160.377 254.258 160.286 254.389 160.305C255.703 160.491 257.036 159.923 257.713 158.891C258.409 157.825 258.264 156.282 257.397 155.453C256.957 155.034 256.294 154.808 255.631 154.849C255.02 154.887 254.462 155.151 254.12 155.574C254.041 155.666 253.976 155.763 253.91 155.86C253.765 156.068 253.614 156.282 253.404 156.452C252.859 156.885 252.018 156.908 251.158 156.515C249.916 155.951 248.944 154.82 248.57 153.513L248.399 153.611C247.053 154.405 245.654 155.224 244.097 155.545C241.667 156.044 240.058 155.577 239.335 155.272ZM247.125 167.603C246.849 167.603 246.573 167.585 246.304 167.548C243.802 167.21 241.47 165.272 240.209 162.489C239.263 160.388 238.816 155.094 238.797 154.869C238.79 154.774 238.836 154.683 238.915 154.634C239 154.585 239.099 154.586 239.178 154.638C239.197 154.648 240.892 155.692 243.992 155.055C245.476 154.751 246.829 153.953 248.15 153.18L248.603 152.912C248.675 152.873 248.76 152.868 248.833 152.9C248.905 152.933 248.958 152.999 248.977 153.078C249.247 154.37 250.159 155.513 251.361 156.06C251.618 156.178 252.511 156.525 253.089 156.061C253.246 155.937 253.365 155.761 253.496 155.576C253.575 155.467 253.647 155.359 253.732 155.258C254.166 154.728 254.849 154.397 255.604 154.35C256.412 154.299 257.194 154.569 257.739 155.091C258.796 156.095 258.967 157.884 258.127 159.165C257.391 160.293 255.985 160.942 254.56 160.827C254.166 162.789 253.207 164.53 251.841 165.751C250.514 166.94 248.8 167.602 247.125 167.603Z" fill="#191C1E"/>
<path d="M254.334 159.063C254.321 159.063 254.301 159.062 254.288 159.06C254.15 159.036 254.059 158.906 254.085 158.771C254.255 157.822 254.976 156.984 255.893 156.686C256.024 156.644 256.168 156.715 256.214 156.846C256.253 156.978 256.181 157.119 256.05 157.161C255.303 157.404 254.714 158.085 254.576 158.857C254.556 158.978 254.452 159.063 254.334 159.063Z" fill="#191C1E"/>
<mask id="path-86-inside-1_4103_47636" fill="white">
<path fill-rule="evenodd" clip-rule="evenodd" d="M162.615 66.75C159.508 66.75 156.683 68.5487 155.369 71.3632L151.123 80.4548C149.446 84.0456 145.392 85.8665 141.593 84.7351L132.653 82.0719C129.9 81.2517 126.918 81.9714 124.842 83.9572L117.16 91.3052C114.613 93.7411 113.961 97.557 115.554 100.7L117.368 104.278C119.666 108.812 117.207 114.311 112.295 115.621L107.812 116.816C104.311 117.75 101.875 120.921 101.875 124.544V136.476C101.875 139.663 103.767 142.546 106.691 143.813L114.505 147.202C118.552 148.957 120.414 153.658 118.667 157.708L116.251 163.305C115.005 166.193 115.568 169.543 117.689 171.866L124.703 179.548C126.83 181.878 130.128 182.739 133.123 181.747L142.11 178.771C145.67 177.592 149.571 179.045 151.493 182.266L155.197 188.475C156.639 190.894 159.248 192.375 162.065 192.375H172.862C175.915 192.375 178.701 190.637 180.044 187.896L182.627 182.623C184.301 179.207 188.148 177.443 191.828 178.403L200.003 180.536C202.787 181.263 205.747 180.438 207.754 178.375L213.419 172.553C215.338 170.58 216.108 167.759 215.457 165.085L213.43 156.756C212.528 153.049 214.37 149.22 217.83 147.612L225.872 143.875C228.694 142.564 230.499 139.735 230.499 136.623V125.367C230.499 121.988 228.375 118.973 225.193 117.836L220.071 116.006C215.662 114.431 213.543 109.422 215.483 105.161L218.627 98.2584C219.964 95.321 219.405 91.8674 217.209 89.5022L211.32 83.1604C209.198 80.8754 205.942 80.032 202.978 80.9997L192.73 84.3452C188.681 85.667 184.306 83.5834 182.781 79.6065L179.819 71.8835C178.633 68.7913 175.664 66.75 172.352 66.75H162.615ZM166.576 154.988C180.71 154.988 192.168 143.53 192.168 129.396C192.168 115.262 180.71 103.805 166.576 103.805C152.443 103.805 140.985 115.262 140.985 129.396C140.985 143.53 152.443 154.988 166.576 154.988Z"/>
</mask>
<path fill-rule="evenodd" clip-rule="evenodd" d="M162.615 66.75C159.508 66.75 156.683 68.5487 155.369 71.3632L151.123 80.4548C149.446 84.0456 145.392 85.8665 141.593 84.7351L132.653 82.0719C129.9 81.2517 126.918 81.9714 124.842 83.9572L117.16 91.3052C114.613 93.7411 113.961 97.557 115.554 100.7L117.368 104.278C119.666 108.812 117.207 114.311 112.295 115.621L107.812 116.816C104.311 117.75 101.875 120.921 101.875 124.544V136.476C101.875 139.663 103.767 142.546 106.691 143.813L114.505 147.202C118.552 148.957 120.414 153.658 118.667 157.708L116.251 163.305C115.005 166.193 115.568 169.543 117.689 171.866L124.703 179.548C126.83 181.878 130.128 182.739 133.123 181.747L142.11 178.771C145.67 177.592 149.571 179.045 151.493 182.266L155.197 188.475C156.639 190.894 159.248 192.375 162.065 192.375H172.862C175.915 192.375 178.701 190.637 180.044 187.896L182.627 182.623C184.301 179.207 188.148 177.443 191.828 178.403L200.003 180.536C202.787 181.263 205.747 180.438 207.754 178.375L213.419 172.553C215.338 170.58 216.108 167.759 215.457 165.085L213.43 156.756C212.528 153.049 214.37 149.22 217.83 147.612L225.872 143.875C228.694 142.564 230.499 139.735 230.499 136.623V125.367C230.499 121.988 228.375 118.973 225.193 117.836L220.071 116.006C215.662 114.431 213.543 109.422 215.483 105.161L218.627 98.2584C219.964 95.321 219.405 91.8674 217.209 89.5022L211.32 83.1604C209.198 80.8754 205.942 80.032 202.978 80.9997L192.73 84.3452C188.681 85.667 184.306 83.5834 182.781 79.6065L179.819 71.8835C178.633 68.7913 175.664 66.75 172.352 66.75H162.615ZM166.576 154.988C180.71 154.988 192.168 143.53 192.168 129.396C192.168 115.262 180.71 103.805 166.576 103.805C152.443 103.805 140.985 115.262 140.985 129.396C140.985 143.53 152.443 154.988 166.576 154.988Z" fill="white"/>
<path d="M155.369 71.3632L155.973 71.6452L155.369 71.3632ZM151.123 80.4548L150.519 80.1728L151.123 80.4548ZM141.593 84.7351L141.784 84.0964L141.593 84.7351ZM132.653 82.0719L132.463 82.7106L132.653 82.0719ZM124.842 83.9572L124.381 83.4756L124.842 83.9572ZM117.16 91.3052L116.699 90.8236L117.16 91.3052ZM115.554 100.7L114.96 101.002L115.554 100.7ZM117.368 104.278L117.962 103.976L117.368 104.278ZM112.295 115.621L112.467 116.265L112.295 115.621ZM107.812 116.816L107.984 117.46H107.984L107.812 116.816ZM106.691 143.813L106.956 143.202L106.691 143.813ZM114.505 147.202L114.24 147.814L114.505 147.202ZM118.667 157.708L118.055 157.444L118.667 157.708ZM116.251 163.305L115.64 163.041L116.251 163.305ZM117.689 171.866L118.181 171.416L117.689 171.866ZM124.703 179.548L125.195 179.099L124.703 179.548ZM133.123 181.747L133.332 182.38L133.123 181.747ZM142.11 178.771L141.9 178.138H141.9L142.11 178.771ZM151.493 182.266L152.065 181.924L151.493 182.266ZM155.197 188.475L154.624 188.816L155.197 188.475ZM180.044 187.896L180.643 188.189V188.189L180.044 187.896ZM182.627 182.623L182.029 182.33V182.33L182.627 182.623ZM191.828 178.403L191.66 179.048L191.828 178.403ZM200.003 180.536L199.835 181.181L200.003 180.536ZM207.754 178.375L208.232 178.84L207.754 178.375ZM213.419 172.553L212.941 172.088L213.419 172.553ZM215.457 165.085L216.105 164.927L215.457 165.085ZM213.43 156.756L212.783 156.914L213.43 156.756ZM217.83 147.612L218.111 148.216L217.83 147.612ZM225.872 143.875L225.591 143.271L225.872 143.875ZM225.193 117.836L224.968 118.464L225.193 117.836ZM220.071 116.006L220.295 115.379L220.071 116.006ZM215.483 105.161L214.877 104.885L215.483 105.161ZM218.627 98.2584L219.233 98.5346L219.233 98.5346L218.627 98.2584ZM217.209 89.5022L217.697 89.0487L217.209 89.5022ZM211.32 83.1604L210.832 83.6139L211.32 83.1604ZM202.978 80.9997L203.185 81.6332L202.978 80.9997ZM192.73 84.3452L192.936 84.9787L192.73 84.3452ZM182.781 79.6065L182.159 79.8452V79.8452L182.781 79.6065ZM179.819 71.8835L180.441 71.6448V71.6448L179.819 71.8835ZM155.973 71.6452C157.177 69.0653 159.767 67.4164 162.615 67.4164V66.0836C159.25 66.0836 156.189 68.0322 154.765 71.0812L155.973 71.6452ZM151.726 80.7368L155.973 71.6452L154.765 71.0812L150.519 80.1728L151.726 80.7368ZM141.403 85.3738C145.518 86.5995 149.91 84.6268 151.726 80.7368L150.519 80.1728C148.981 83.4643 145.265 85.1335 141.784 84.0964L141.403 85.3738ZM132.463 82.7106L141.403 85.3738L141.784 84.0964L132.843 81.4332L132.463 82.7106ZM125.302 84.4388C127.205 82.6185 129.939 81.9588 132.463 82.7106L132.843 81.4332C129.86 80.5447 126.63 81.3243 124.381 83.4756L125.302 84.4388ZM117.62 91.7868L125.302 84.4388L124.381 83.4756L116.699 90.8236L117.62 91.7868ZM116.149 100.399C114.688 97.5176 115.286 94.0198 117.62 91.7868L116.699 90.8236C113.94 93.4625 113.234 97.5964 114.96 101.002L116.149 100.399ZM117.962 103.976L116.149 100.399L114.96 101.002L116.774 104.579L117.962 103.976ZM112.467 116.265C117.788 114.846 120.452 108.888 117.962 103.976L116.774 104.579C118.88 108.735 116.626 113.777 112.123 114.977L112.467 116.265ZM107.984 117.46L112.467 116.265L112.123 114.977L107.64 116.173L107.984 117.46ZM102.541 124.544C102.541 121.223 104.774 118.316 107.984 117.46L107.64 116.173C103.847 117.184 101.209 120.619 101.209 124.544H102.541ZM102.541 136.476V124.544H101.209V136.476H102.541ZM106.956 143.202C104.276 142.04 102.541 139.397 102.541 136.476H101.209C101.209 139.929 103.258 143.051 106.426 144.425L106.956 143.202ZM114.771 146.591L106.956 143.202L106.426 144.425L114.24 147.814L114.771 146.591ZM119.279 157.972C121.172 153.584 119.155 148.492 114.771 146.591L114.24 147.814C117.95 149.422 119.657 153.731 118.055 157.444L119.279 157.972ZM116.863 163.569L119.279 157.972L118.055 157.444L115.64 163.041L116.863 163.569ZM118.181 171.416C116.237 169.287 115.721 166.216 116.863 163.569L115.64 163.041C114.29 166.17 114.899 169.799 117.196 172.315L118.181 171.416ZM125.195 179.099L118.181 171.416L117.196 172.315L124.21 179.997L125.195 179.099ZM132.913 181.115C130.168 182.024 127.145 181.234 125.195 179.099L124.21 179.997C126.515 182.521 130.088 183.455 133.332 182.38L132.913 181.115ZM141.9 178.138L132.913 181.115L133.332 182.38L142.32 179.404L141.9 178.138ZM152.065 181.924C149.983 178.435 145.757 176.861 141.9 178.138L142.32 179.404C145.583 178.323 149.159 179.655 150.92 182.607L152.065 181.924ZM155.769 188.133L152.065 181.924L150.92 182.607L154.624 188.816L155.769 188.133ZM162.065 191.709C159.483 191.709 157.092 190.351 155.769 188.133L154.624 188.816C156.187 191.437 159.014 193.041 162.065 193.041V191.709ZM172.862 191.709H162.065V193.041H172.862V191.709ZM179.446 187.603C178.215 190.116 175.66 191.709 172.862 191.709V193.041C176.169 193.041 179.188 191.159 180.643 188.189L179.446 187.603ZM182.029 182.33L179.446 187.603L180.643 188.189L183.226 182.916L182.029 182.33ZM191.997 177.758C188.01 176.718 183.841 178.63 182.029 182.33L183.226 182.916C184.76 179.785 188.286 178.168 191.66 179.048L191.997 177.758ZM200.171 179.892L191.997 177.758L191.66 179.048L199.835 181.181L200.171 179.892ZM207.277 177.91C205.437 179.801 202.724 180.558 200.171 179.892L199.835 181.181C202.851 181.968 206.058 181.074 208.232 178.84L207.277 177.91ZM212.941 172.088L207.277 177.91L208.232 178.84L213.897 173.018L212.941 172.088ZM214.81 165.242C215.407 167.694 214.701 170.28 212.941 172.088L213.897 173.018C215.976 170.881 216.81 167.824 216.105 164.927L214.81 165.242ZM212.783 156.914L214.81 165.242L216.105 164.927L214.078 156.598L212.783 156.914ZM217.55 147.008C213.801 148.75 211.805 152.897 212.783 156.914L214.078 156.598C213.25 153.2 214.939 149.69 218.111 148.216L217.55 147.008ZM225.591 143.271L217.55 147.008L218.111 148.216L226.153 144.48L225.591 143.271ZM229.833 136.623C229.833 139.475 228.178 142.069 225.591 143.271L226.153 144.48C229.21 143.059 231.165 139.994 231.165 136.623H229.833ZM229.833 125.367V136.623H231.165V125.367H229.833ZM224.968 118.464C227.885 119.506 229.833 122.27 229.833 125.367H231.165C231.165 121.706 228.864 118.441 225.417 117.209L224.968 118.464ZM219.846 116.634L224.968 118.464L225.417 117.209L220.295 115.379L219.846 116.634ZM214.877 104.885C212.775 109.501 215.07 114.927 219.846 116.634L220.295 115.379C216.253 113.935 214.311 109.343 216.09 105.437L214.877 104.885ZM218.02 97.9822L214.877 104.885L216.09 105.437L219.233 98.5346L218.02 97.9822ZM216.72 89.9557C218.734 92.1238 219.246 95.2895 218.02 97.9822L219.233 98.5346C220.682 95.3524 220.077 91.611 217.697 89.0487L216.72 89.9557ZM210.832 83.6139L216.72 89.9557L217.697 89.0487L211.808 82.7069L210.832 83.6139ZM203.185 81.6332C205.902 80.7462 208.887 81.5193 210.832 83.6139L211.808 82.7069C209.51 80.2315 205.982 79.3178 202.771 80.3661L203.185 81.6332ZM192.936 84.9787L203.185 81.6332L202.771 80.3661L192.523 83.7116L192.936 84.9787ZM182.159 79.8452C183.811 84.1534 188.55 86.4106 192.936 84.9787L192.523 83.7116C188.811 84.9233 184.801 83.0133 183.403 79.3679L182.159 79.8452ZM179.196 72.1221L182.159 79.8452L183.403 79.3679L180.441 71.6448L179.196 72.1221ZM172.352 67.4164C175.388 67.4164 178.109 69.2876 179.196 72.1221L180.441 71.6448C179.156 68.2949 175.94 66.0836 172.352 66.0836V67.4164ZM162.615 67.4164H172.352V66.0836H162.615V67.4164ZM191.501 129.396C191.501 143.162 180.342 154.321 166.576 154.321V155.654C181.078 155.654 192.834 143.898 192.834 129.396H191.501ZM166.576 104.471C180.342 104.471 191.501 115.63 191.501 129.396H192.834C192.834 114.894 181.078 103.138 166.576 103.138V104.471ZM141.651 129.396C141.651 115.63 152.811 104.471 166.576 104.471V103.138C152.074 103.138 140.318 114.894 140.318 129.396H141.651ZM166.576 154.321C152.811 154.321 141.651 143.162 141.651 129.396H140.318C140.318 143.898 152.074 155.654 166.576 155.654V154.321Z" fill="#191C1E" mask="url(#path-86-inside-1_4103_47636)"/>
<path d="M86.5937 137.898C86.5937 137.898 82.2236 134.167 84.2562 131.045C84.2562 131.045 80.1684 121.459 89.2925 116.964C98.4165 112.47 104.644 118.535 105.322 120.105C105.322 120.105 107.326 119.104 108.681 122.434L89.1401 139.735L86.5937 137.898Z" fill="#006689"/>
<path d="M97.8239 139.347C99.2687 138.193 107.943 130.036 110.53 129.261C113.111 128.486 115.538 127.084 117.337 125.074C118.056 124.274 118.684 123.355 118.936 122.309C119.187 121.263 119.01 120.071 118.285 119.279C117.559 118.486 116.235 118.231 115.367 118.866C115.715 118.135 115.498 117.213 114.95 116.613C114.407 116.012 113.591 115.709 112.785 115.65C111.306 115.542 109.793 116.237 108.914 117.429C108.034 118.626 107.794 120.211 106.875 121.383C105.973 122.537 104.545 123.133 103.152 123.587C101.142 124.241 99.0745 124.698 97.0701 125.367C95.0657 126.035 93.1013 126.935 91.5309 128.351C90.3317 129.434 88.4929 131.753 88.7956 133.536C88.9326 134.327 90.1832 134.969 90.7657 135.537C91.548 136.306 94.4833 140.039 97.8239 139.347Z" fill="#191C1E"/>
<path d="M92.8471 136.853C92.8471 136.853 91.2488 131.743 87.5288 134.455C83.0466 137.722 87.3866 146.976 92.8471 142.056C92.8471 142.056 98.575 152.58 107.056 151.177C115.531 149.773 114.78 138.921 111.299 128.772C111.299 128.772 107.756 131.123 100.742 130.89C96.0381 130.733 96.5273 135.077 96.9652 137.562L92.8471 136.853Z" fill="white"/>
<path d="M92.8493 141.806C92.8607 141.806 92.8777 141.806 92.8891 141.809C92.9687 141.822 93.0313 141.869 93.0655 141.936C93.1224 142.04 98.8109 152.284 107.014 150.93C109.295 150.552 111.001 149.443 112.077 147.633C115.018 142.711 112.822 134.061 111.161 129.144C110.199 129.686 106.735 131.342 100.734 131.139C99.3911 131.1 98.3956 131.432 97.7812 132.142C96.6663 133.428 96.8938 135.69 97.2124 137.518C97.2238 137.598 97.2011 137.68 97.1442 137.738C97.0873 137.795 97.0019 137.822 96.9223 137.807L92.8038 137.099C92.7128 137.083 92.6388 137.016 92.6104 136.927C92.599 136.903 91.8424 134.543 90.2439 134.015C89.476 133.761 88.6114 133.977 87.6727 134.658C86.3473 135.623 85.7159 137.296 85.9718 139.132C86.2335 140.968 87.3314 142.538 88.7137 143.039C89.9538 143.493 91.3305 143.087 92.6843 141.87C92.7242 141.828 92.7867 141.806 92.8493 141.806ZM105.518 151.554C98.5663 151.554 93.6969 143.976 92.7867 142.443C90.9948 143.939 89.4988 143.857 88.5431 143.509C86.973 142.938 85.767 141.248 85.4769 139.202C85.1925 137.18 85.9036 135.33 87.3769 134.253C88.4521 133.472 89.4703 133.233 90.4032 133.541C92.0131 134.073 92.8322 136.066 93.037 136.631L96.6606 137.255C96.3592 135.385 96.2226 133.174 97.4002 131.815C98.1226 130.985 99.2489 130.585 100.751 130.639C107.588 130.865 111.127 128.586 111.161 128.563C111.223 128.52 111.309 128.51 111.377 128.535C111.451 128.56 111.508 128.617 111.536 128.69C113.231 133.631 115.609 142.695 112.509 147.89C111.348 149.831 109.528 151.02 107.099 151.423C106.559 151.512 106.03 151.554 105.518 151.554Z" fill="#191C1E"/>
<path d="M70.1925 186.241L71.8974 191.051C71.8974 191.051 108.198 169.7 117.18 165.041C126.161 160.383 141.611 155.593 133.983 163.335C133.983 163.335 139.349 161.301 140.533 162.942C141.71 164.582 139.349 166.944 136.332 169.241C136.332 169.241 140.597 167.141 141.974 168.716C143.351 170.29 141.283 171.981 133.983 177.599C133.983 177.599 137.972 175.54 140.398 176.458C142.823 177.377 135.477 181.839 130.292 185.644C125.112 189.45 94.7817 221.898 67.6967 222.52C47.3903 222.987 41.5842 193.622 41.5842 193.622C41.5842 193.622 60.7599 185.96 70.1925 186.241Z" fill="white"/>
<path d="M87.3857 217.65C87.2862 217.65 87.1983 217.596 87.1573 217.505C87.0988 217.379 87.1515 217.231 87.2803 217.173C103.327 209.789 117.858 196.514 125.662 189.382C127.764 187.463 129.28 186.076 130.141 185.443C131.218 184.655 132.395 183.831 133.531 183.034C136.915 180.667 140.749 177.984 140.621 176.978C140.615 176.935 140.603 176.803 140.31 176.692C138.015 175.823 134.134 177.801 134.093 177.821C133.982 177.881 133.841 177.842 133.771 177.733C133.701 177.624 133.724 177.48 133.829 177.401C139.333 173.163 141.985 171.068 142.114 169.755C142.143 169.452 142.043 169.175 141.786 168.881C140.755 167.707 137.576 168.905 136.441 169.465C136.323 169.522 136.183 169.482 136.113 169.372C136.048 169.263 136.072 169.12 136.177 169.042C139.842 166.252 141.2 164.305 140.328 163.088C139.444 161.869 135.516 163.023 134.069 163.569C133.958 163.611 133.835 163.571 133.771 163.472C133.706 163.373 133.718 163.244 133.8 163.16C135.943 160.991 135.902 160.18 135.685 159.889C134.509 158.297 124.415 161.567 117.29 165.264C116.102 165.88 114.357 166.831 112.103 168.089C111.98 168.156 111.828 168.113 111.758 167.993C111.694 167.872 111.74 167.72 111.858 167.652C114.117 166.392 115.868 165.439 117.062 164.819C122.835 161.824 134.462 157.389 136.089 159.592C136.569 160.244 136.165 161.287 134.854 162.771C136.517 162.243 139.754 161.441 140.732 162.796C141.903 164.423 140.053 166.516 137.834 168.365C139.257 167.892 141.241 167.501 142.16 168.552C142.506 168.951 142.658 169.36 142.611 169.803C142.477 171.192 140.474 172.897 135.656 176.622C137.061 176.129 139.022 175.671 140.486 176.225C140.96 176.404 141.089 176.699 141.118 176.916C141.271 178.133 138.46 180.194 133.818 183.444C132.682 184.239 131.505 185.062 130.44 185.846C129.597 186.463 128.092 187.842 126.002 189.751C118.174 196.901 103.608 210.211 87.4911 217.627C87.4559 217.642 87.4208 217.65 87.3857 217.65Z" fill="#191C1E"/>
</svg>
