<svg width="64" height="64" viewBox="0 0 64 64" fill="none" xmlns="http://www.w3.org/2000/svg">
<rect x="0.5" y="0.5" width="63" height="63" rx="31.5" stroke="#C0C7CD"/>
<path fill-rule="evenodd" clip-rule="evenodd" d="M18.8481 24.8628C18.8481 23.1951 20.2 21.8431 21.8677 21.8431H41.6324C43.3001 21.8431 44.652 23.1951 44.652 24.8627V39.1373C44.652 40.8049 43.3001 42.1569 41.6324 42.1569H21.8677C20.2 42.1569 18.8481 40.8049 18.8481 39.1373V24.8628ZM21.8677 23.4902C21.1097 23.4902 20.4951 24.1047 20.4951 24.8628V39.1373C20.4951 39.8953 21.1097 40.5098 21.8677 40.5098H41.6324C42.3905 40.5098 43.005 39.8953 43.005 39.1373V24.8627C43.005 24.1047 42.3905 23.4902 41.6324 23.4902H21.8677Z" fill="#191C1E"/>
<path d="M26.235 29.1627C26.235 28.7511 26.2899 28.3899 26.3997 28.079C26.5094 27.768 26.6603 27.5074 26.8524 27.297C27.0536 27.0775 27.2868 26.9129 27.552 26.8032C27.8172 26.6934 28.1053 26.6385 28.4162 26.6385C28.7272 26.6385 29.0153 26.6934 29.2805 26.8032C29.5457 26.9129 29.7743 27.0775 29.9664 27.297C30.1676 27.5074 30.3231 27.768 30.4328 28.079C30.5425 28.3899 30.5974 28.7511 30.5974 29.1627C30.5974 29.5742 30.5425 29.9355 30.4328 30.2464C30.3231 30.5574 30.1676 30.8226 29.9664 31.0421C29.7743 31.2524 29.5457 31.4125 29.2805 31.5222C29.0153 31.632 28.7272 31.6868 28.4162 31.6868C28.1053 31.6868 27.8172 31.632 27.552 31.5222C27.2868 31.4125 27.0536 31.2524 26.8524 31.0421C26.6603 30.8226 26.5094 30.5574 26.3997 30.2464C26.2899 29.9355 26.235 29.5742 26.235 29.1627ZM29.5274 29.1627C29.5274 28.6688 29.4314 28.2847 29.2393 28.0104C29.0473 27.7269 28.7729 27.5851 28.4162 27.5851C28.0596 27.5851 27.7852 27.7269 27.5931 28.0104C27.4011 28.2847 27.3051 28.6688 27.3051 29.1627C27.3051 29.6565 27.4011 30.0452 27.5931 30.3287C27.7852 30.6031 28.0596 30.7403 28.4162 30.7403C28.7729 30.7403 29.0473 30.6031 29.2393 30.3287C29.4314 30.0452 29.5274 29.6565 29.5274 29.1627ZM32.271 34.0326C32.271 33.6211 32.3259 33.2598 32.4357 32.9489C32.5454 32.638 32.6963 32.3773 32.8884 32.167C33.0896 31.9475 33.3228 31.7829 33.588 31.6731C33.8532 31.5634 34.1413 31.5085 34.4522 31.5085C34.7632 31.5085 35.0512 31.5634 35.3165 31.6731C35.5817 31.7829 35.8103 31.9475 36.0024 32.167C36.2036 32.3773 36.359 32.638 36.4688 32.9489C36.5785 33.2598 36.6334 33.6211 36.6334 34.0326C36.6334 34.4442 36.5785 34.8054 36.4688 35.1164C36.359 35.4273 36.2036 35.6925 36.0024 35.912C35.8103 36.1224 35.5817 36.2824 35.3165 36.3922C35.0512 36.5019 34.7632 36.5568 34.4522 36.5568C34.1413 36.5568 33.8532 36.5019 33.588 36.3922C33.3228 36.2824 33.0896 36.1224 32.8884 35.912C32.6963 35.6925 32.5454 35.4273 32.4357 35.1164C32.3259 34.8054 32.271 34.4442 32.271 34.0326ZM35.5634 34.0326C35.5634 33.5388 35.4674 33.1547 35.2753 32.8803C35.0833 32.5968 34.8089 32.455 34.4522 32.455C34.0956 32.455 33.8212 32.5968 33.6291 32.8803C33.4371 33.1547 33.3411 33.5388 33.3411 34.0326C33.3411 34.5265 33.4371 34.9152 33.6291 35.1987C33.8212 35.473 34.0956 35.6102 34.4522 35.6102C34.8089 35.6102 35.0833 35.473 35.2753 35.1987C35.4674 34.9152 35.5634 34.5265 35.5634 34.0326ZM34.7403 26.8443L29.3765 36.351H28.1282L33.492 26.8443H34.7403Z" fill="#191C1E"/>
<path fill-rule="evenodd" clip-rule="evenodd" d="M28.4162 26.8135C28.1263 26.8135 27.8612 26.8646 27.6189 26.9648C27.3783 27.0644 27.166 27.2138 26.9815 27.4151C26.8076 27.6056 26.6678 27.8449 26.5647 28.1372C26.463 28.4254 26.4101 28.7662 26.4101 29.1626C26.4101 29.5591 26.463 29.8999 26.5647 30.1881C26.6675 30.4794 26.8071 30.7237 26.9815 30.9239C27.1655 31.1155 27.3777 31.2606 27.6189 31.3605C27.8612 31.4607 28.1263 31.5118 28.4162 31.5118C28.7062 31.5118 28.9713 31.4607 29.2136 31.3605C29.4553 31.2605 29.6626 31.1153 29.8372 30.924C30.0208 30.7237 30.165 30.4792 30.2678 30.1881C30.3695 29.8999 30.4224 29.5591 30.4224 29.1626C30.4224 28.7662 30.3695 28.4254 30.2678 28.1372C30.1652 27.8465 30.0218 27.6081 29.8399 27.4179L29.8346 27.4123C29.66 27.2128 29.4535 27.0641 29.2136 26.9648C28.9713 26.8646 28.7062 26.8135 28.4162 26.8135ZM27.4851 26.6414C27.7732 26.5222 28.0843 26.4635 28.4162 26.4635C28.7482 26.4635 29.0593 26.5222 29.3474 26.6414C29.6367 26.7611 29.8866 26.9408 30.0955 27.1788C30.3147 27.4088 30.4814 27.6908 30.5978 28.0207C30.7156 28.3543 30.7724 28.736 30.7724 29.1626C30.7724 29.5893 30.7156 29.971 30.5978 30.3046C30.4811 30.6354 30.3142 30.9216 30.0954 31.1602C29.886 31.3896 29.6361 31.5644 29.3474 31.6839C29.0593 31.8031 28.7482 31.8618 28.4162 31.8618C28.0843 31.8618 27.7732 31.8031 27.4851 31.6839C27.1971 31.5647 26.9437 31.3907 26.7259 31.163L26.7205 31.1574C26.5121 30.9191 26.3508 30.6338 26.2347 30.3046C26.1169 29.971 26.0601 29.5893 26.0601 29.1626C26.0601 28.736 26.1169 28.3543 26.2347 28.0207C26.351 27.6911 26.513 27.4092 26.7231 27.179C26.941 26.9414 27.1954 26.7613 27.4851 26.6414ZM33.3898 26.6693H35.04L29.4787 36.526H27.8285L33.3898 26.6693ZM33.5942 27.0193L28.4278 36.176H29.2743L34.4406 27.0193H33.5942ZM27.449 27.9111C27.6752 27.5779 28.0049 27.4101 28.4162 27.4101C28.8276 27.4101 29.1573 27.5779 29.3835 27.9111C29.6032 28.2257 29.7024 28.6497 29.7024 29.1626C29.7024 29.6767 29.6028 30.1042 29.3842 30.4268L29.3827 30.4291C29.1555 30.7537 28.8256 30.9152 28.4162 30.9152C28.0068 30.9152 27.677 30.7537 27.4498 30.429L27.4483 30.4268C27.2297 30.1042 27.1301 29.6767 27.1301 29.1626C27.1301 28.6497 27.2293 28.2257 27.449 27.9111ZM28.4162 27.7601C28.1147 27.7601 27.896 27.8754 27.738 28.1085L27.7365 28.1107C27.5727 28.3447 27.4801 28.6885 27.4801 29.1626C27.4801 29.6355 27.5722 29.9851 27.7373 30.2294C27.8941 30.4528 28.1128 30.5652 28.4162 30.5652C28.7197 30.5652 28.9384 30.4528 29.0952 30.2294C29.2603 29.9851 29.3524 29.6355 29.3524 29.1626C29.3524 28.6885 29.2598 28.3447 29.096 28.1107L29.0944 28.1085C28.9365 27.8754 28.7177 27.7601 28.4162 27.7601ZM34.4522 31.6834C34.1623 31.6834 33.8972 31.7345 33.6549 31.8348C33.4143 31.9343 33.2021 32.0837 33.0176 32.2849C32.8437 32.4754 32.7038 32.7148 32.6007 33.0071C32.499 33.2953 32.446 33.6362 32.446 34.0326C32.446 34.429 32.499 34.7698 32.6007 35.0581C32.7035 35.3494 32.8431 35.5936 33.0175 35.7938C33.2015 35.9855 33.4136 36.1306 33.6549 36.2304C33.8972 36.3307 34.1623 36.3817 34.4522 36.3817C34.7421 36.3817 35.0073 36.3307 35.2496 36.2304C35.4912 36.1304 35.6986 35.9852 35.8732 35.794C36.0568 35.5936 36.201 35.3492 36.3038 35.0581C36.4055 34.7698 36.4584 34.429 36.4584 34.0326C36.4584 33.6362 36.4055 33.2953 36.3038 33.0071C36.2012 32.7164 36.0578 32.4781 35.8759 32.2879L35.8706 32.2823C35.6959 32.0827 35.4895 31.934 35.2496 31.8348C35.0073 31.7345 34.7421 31.6834 34.4522 31.6834ZM33.5211 31.5114C33.8092 31.3921 34.1203 31.3334 34.4522 31.3334C34.7842 31.3334 35.0952 31.3921 35.3834 31.5114C35.6727 31.6311 35.9226 31.8108 36.1315 32.0488C36.3507 32.2788 36.5174 32.5607 36.6338 32.8906C36.7516 33.2242 36.8084 33.6059 36.8084 34.0326C36.8084 34.4593 36.7516 34.8409 36.6338 35.1746C36.5171 35.5053 36.3501 35.7916 36.1314 36.0302C35.9219 36.2596 35.672 36.4344 35.3834 36.5538C35.0952 36.673 34.7842 36.7317 34.4522 36.7317C34.1203 36.7317 33.8092 36.673 33.5211 36.5538C33.2331 36.4346 32.9797 36.2606 32.7619 36.0329L32.7565 36.0273C32.5481 35.7891 32.3868 35.5037 32.2706 35.1746C32.1529 34.8409 32.096 34.4593 32.096 34.0326C32.096 33.6059 32.1529 33.2242 32.2706 32.8906C32.387 32.561 32.549 32.2791 32.7591 32.0489C32.9769 31.8113 33.2313 31.6312 33.5211 31.5114ZM33.485 32.781C33.7112 32.4478 34.0408 32.28 34.4522 32.28C34.8636 32.28 35.1933 32.4478 35.4194 32.781C35.6392 33.0956 35.7384 33.5196 35.7384 34.0326C35.7384 34.5467 35.6388 34.9741 35.4202 35.2968L35.4187 35.299C35.1915 35.6236 34.8616 35.7852 34.4522 35.7852C34.0428 35.7852 33.713 35.6236 33.4858 35.299L33.4842 35.2968C33.2657 34.9741 33.1661 34.5467 33.1661 34.0326C33.1661 33.5196 33.2652 33.0956 33.485 32.781ZM34.4522 32.63C34.1507 32.63 33.9319 32.7453 33.774 32.9784L33.7725 32.9806C33.6087 33.2146 33.5161 33.5585 33.5161 34.0326C33.5161 34.5055 33.6082 34.8551 33.7733 35.0994C33.9301 35.3227 34.1488 35.4352 34.4522 35.4352C34.7557 35.4352 34.9744 35.3228 35.1312 35.0994C35.2962 34.8551 35.3884 34.5055 35.3884 34.0326C35.3884 33.5585 35.2958 33.2146 35.132 32.9806L35.1304 32.9784C34.9725 32.7453 34.7537 32.63 34.4522 32.63Z" fill="#191C1E"/>
</svg>
