<svg width="64" height="64" viewBox="0 0 64 64" fill="none" xmlns="http://www.w3.org/2000/svg">
<rect x="0.5" y="0.5" width="63" height="63" rx="31.5" stroke="#C0C7CD"/>
<path fill-rule="evenodd" clip-rule="evenodd" d="M30.4399 20.0547C31.3262 19.2617 32.6738 19.2617 33.5601 20.0547L33.5626 20.0569L44.7018 30.0902C45.8881 31.1227 45.0966 33 43.6 33H42.3333V41.3333C42.3333 42.6189 41.2856 43.6666 40 43.6666H36C34.7144 43.6666 33.6666 42.6189 33.6666 41.3333V35.6666H30.3333V41.3333C30.3333 42.6189 29.2856 43.6666 28 43.6666H24C22.7144 43.6666 21.6666 42.6189 21.6666 41.3333V33H20.4C18.8572 33 18.1637 31.098 19.2938 30.0942L30.4374 20.0569L30.4399 20.0547ZM31.7743 21.5445C31.774 21.5447 31.7737 21.545 31.7734 21.5452L21.2765 31H23.6666V41.3333C23.6666 41.5143 23.8189 41.6666 24 41.6666H28C28.181 41.6666 28.3333 41.5143 28.3333 41.3333V33.6666H35.6666V41.3333C35.6666 41.5143 35.8189 41.6666 36 41.6666H40C40.181 41.6666 40.3333 41.5143 40.3333 41.3333V31H42.7234L32.2265 21.5452C32.2263 21.545 32.226 21.5447 32.2257 21.5445C32.0989 21.4318 31.901 21.4318 31.7743 21.5445Z" fill="#191C1E"/>
</svg>
