<svg width="64" height="64" viewBox="0 0 64 64" fill="none" xmlns="http://www.w3.org/2000/svg">
<rect x="0.5" y="0.5" width="63" height="63" rx="31.5" stroke="#C0C7CD"/>
<path fill-rule="evenodd" clip-rule="evenodd" d="M18.4167 22.6666C18.4167 22.2524 18.7525 21.9166 19.1667 21.9166H40.1667C40.5809 21.9166 40.9167 22.2524 40.9167 22.6666V39C40.9167 39.4199 41.0835 39.8226 41.3804 40.1195C41.6774 40.4165 42.0801 40.5833 42.5 40.5833C42.9142 40.5833 43.25 40.9191 43.25 41.3333C43.25 41.7475 42.9142 42.0833 42.5 42.0833H21.5C20.6823 42.0833 19.898 41.7584 19.3198 41.1802C18.7415 40.602 18.4167 39.8177 18.4167 39V22.6666ZM39.8543 40.5833C39.5703 40.1088 39.4167 39.5623 39.4167 39V23.4166H19.9167V39C19.9167 39.4199 20.0835 39.8226 20.3804 40.1195C20.6774 40.4165 21.0801 40.5833 21.5 40.5833H39.8543Z" fill="#191C1E"/>
<path fill-rule="evenodd" clip-rule="evenodd" d="M39.4167 29.6666C39.4167 29.2524 39.7525 28.9166 40.1667 28.9166H44.8334C45.2476 28.9166 45.5834 29.2524 45.5834 29.6666V39C45.5834 39.8177 45.2585 40.602 44.6803 41.1802C44.102 41.7584 43.3178 42.0833 42.5 42.0833C42.0858 42.0833 41.75 41.7475 41.75 41.3333C41.75 40.9191 42.0858 40.5833 42.5 40.5833C42.9199 40.5833 43.3227 40.4165 43.6196 40.1195C43.9165 39.8226 44.0834 39.4199 44.0834 39V30.4166H40.1667C39.7525 30.4166 39.4167 30.0808 39.4167 29.6666Z" fill="#191C1E"/>
<path fill-rule="evenodd" clip-rule="evenodd" d="M23.0833 27.3334C23.0833 26.9192 23.4191 26.5834 23.8333 26.5834H28.5C28.9142 26.5834 29.25 26.9192 29.25 27.3334V32C29.25 32.4143 28.9142 32.75 28.5 32.75H23.8333C23.4191 32.75 23.0833 32.4143 23.0833 32V27.3334ZM24.5833 28.0834V31.25H27.75V28.0834H24.5833Z" fill="#191C1E"/>
<path fill-rule="evenodd" clip-rule="evenodd" d="M32.4167 27.3334C32.4167 26.9192 32.7525 26.5834 33.1667 26.5834H35.5C35.9142 26.5834 36.25 26.9192 36.25 27.3334C36.25 27.7476 35.9142 28.0834 35.5 28.0834H33.1667C32.7525 28.0834 32.4167 27.7476 32.4167 27.3334Z" fill="#191C1E"/>
<path fill-rule="evenodd" clip-rule="evenodd" d="M32.4167 32C32.4167 31.5858 32.7525 31.25 33.1667 31.25H35.5C35.9142 31.25 36.25 31.5858 36.25 32C36.25 32.4142 35.9142 32.75 35.5 32.75H33.1667C32.7525 32.75 32.4167 32.4142 32.4167 32Z" fill="#191C1E"/>
<path fill-rule="evenodd" clip-rule="evenodd" d="M23.0833 36.6666C23.0833 36.2524 23.4191 35.9166 23.8333 35.9166H35.5C35.9142 35.9166 36.25 36.2524 36.25 36.6666C36.25 37.0808 35.9142 37.4166 35.5 37.4166H23.8333C23.4191 37.4166 23.0833 37.0808 23.0833 36.6666Z" fill="#191C1E"/>
</svg>
