<svg width="64" height="64" viewBox="0 0 64 64" fill="none" xmlns="http://www.w3.org/2000/svg">
<rect x="0.5" y="0.5" width="63" height="63" rx="31.5" stroke="#C0C7CD"/>
<path fill-rule="evenodd" clip-rule="evenodd" d="M28.9167 30.8334C28.9167 30.4192 29.2525 30.0834 29.6667 30.0834H29.6784C30.0926 30.0834 30.4284 30.4192 30.4284 30.8334C30.4284 31.2476 30.0926 31.5834 29.6784 31.5834H29.6667C29.2525 31.5834 28.9167 31.2476 28.9167 30.8334Z" fill="#191C1E"/>
<path fill-rule="evenodd" clip-rule="evenodd" d="M33.5833 25C33.5833 24.5858 33.9191 24.25 34.3333 24.25H34.345C34.7592 24.25 35.095 24.5858 35.095 25C35.095 25.4142 34.7592 25.75 34.345 25.75H34.3333C33.9191 25.75 33.5833 25.4142 33.5833 25Z" fill="#191C1E"/>
<path fill-rule="evenodd" clip-rule="evenodd" d="M38.25 25C38.25 24.5858 38.5858 24.25 39 24.25H39.0117C39.4259 24.25 39.7617 24.5858 39.7617 25C39.7617 25.4142 39.4259 25.75 39.0117 25.75H39C38.5858 25.75 38.25 25.4142 38.25 25Z" fill="#191C1E"/>
<path fill-rule="evenodd" clip-rule="evenodd" d="M24.8333 33.2833C24.8333 32.8691 25.1691 32.5333 25.5833 32.5333H25.595C26.0092 32.5333 26.345 32.8691 26.345 33.2833C26.345 33.6975 26.0092 34.0333 25.595 34.0333H25.5833C25.1691 34.0333 24.8333 33.6975 24.8333 33.2833Z" fill="#191C1E"/>
<path fill-rule="evenodd" clip-rule="evenodd" d="M41.7536 20.3866C40.4085 20.6862 38.6254 21.0833 36.6667 21.0833C35.2245 21.0833 33.7521 20.7075 32.6015 20.4138C32.2684 20.3288 31.9622 20.2506 31.6915 20.1905C31.3762 20.1204 31.1128 20.0738 30.8948 20.0552C30.6713 20.0361 30.5415 20.0509 30.4743 20.0701C30.4633 20.0733 30.4556 20.0759 30.4505 20.078C30.4405 20.1015 30.4167 20.174 30.4167 20.3333C30.4167 25.4754 31.56 29.7399 32.9688 32.6984C33.6744 34.1801 34.4367 35.3137 35.1369 36.0638C35.487 36.4389 35.808 36.7035 36.0837 36.87C36.3645 37.0396 36.5577 37.0833 36.6667 37.0833C36.7827 37.0833 37.0006 37.0351 37.3243 36.8559C37.6391 36.6816 38.0087 36.4085 38.4141 36.0284C39.2244 35.2688 40.1283 34.1285 40.9738 32.6487C42.6629 29.6928 44.0834 25.4453 44.0834 20.3333C44.0834 20.1782 44.0608 20.1074 44.0511 20.0841C44.0443 20.0812 44.0332 20.0772 44.0162 20.0725C43.9357 20.0506 43.7881 20.0358 43.5392 20.0556C43.2962 20.0749 43.0021 20.1228 42.6471 20.1938C42.3772 20.2477 42.0782 20.3143 41.7536 20.3866ZM44.0607 20.0891C44.0605 20.0891 44.0593 20.0885 44.0575 20.0871C44.0599 20.0883 44.0608 20.089 44.0607 20.0891ZM30.4417 20.0821C30.4417 20.0821 30.4422 20.0817 30.4438 20.0809C30.4426 20.0817 30.4418 20.0821 30.4417 20.0821ZM45.3006 19.2515C45.5141 19.5763 45.5834 19.9569 45.5834 20.3333C45.5834 25.7214 44.0871 30.2239 42.2762 33.3929C41.3718 34.9757 40.3798 36.2416 39.4401 37.1227C38.9705 37.5629 38.5016 37.9186 38.0508 38.1682C37.6089 38.4128 37.134 38.5833 36.6667 38.5833C36.1924 38.5833 35.7293 38.4083 35.3083 38.154C34.8822 37.8967 34.4557 37.5324 34.0403 37.0873C33.2091 36.1967 32.3673 34.924 31.6145 33.3433C30.1067 30.1768 28.9167 25.6912 28.9167 20.3333C28.9167 19.9563 28.9862 19.5796 29.193 19.2578C29.4108 18.9192 29.7275 18.7234 30.0622 18.6278C30.3778 18.5376 30.7128 18.5342 31.0225 18.5607C31.3378 18.5876 31.6759 18.6504 32.0169 18.7262C32.369 18.8044 32.7317 18.8966 33.103 18.991C34.2284 19.2771 35.4333 19.5833 36.6667 19.5833C38.4421 19.5833 40.0202 19.2334 41.3602 18.9362C41.7073 18.8592 42.0385 18.7858 42.3529 18.7229C42.7271 18.6481 43.0892 18.5866 43.4205 18.5603C43.7458 18.5345 44.0904 18.538 44.4109 18.6254C44.7503 18.718 45.076 18.9097 45.3006 19.2515Z" fill="#191C1E"/>
<path fill-rule="evenodd" clip-rule="evenodd" d="M34.503 29.0197C34.7959 28.7268 35.2708 28.7268 35.5637 29.0197C36.2041 29.6602 37.1292 29.6602 37.7697 29.0197C38.0626 28.7268 38.5374 28.7268 38.8303 29.0197C39.1232 29.3126 39.1232 29.7875 38.8303 30.0804C37.6041 31.3066 35.7292 31.3066 34.503 30.0804C34.2101 29.7875 34.2101 29.3126 34.503 29.0197Z" fill="#191C1E"/>
<path fill-rule="evenodd" clip-rule="evenodd" d="M29.8303 24.3488C29.8678 24.7613 29.5637 25.1261 29.1512 25.1636C29.1482 25.1639 29.1454 25.1637 29.1426 25.1635C29.1252 25.1623 29.1071 25.1611 29.0422 25.2655C28.9617 25.395 28.901 25.5411 28.8097 25.7611C28.7617 25.8769 28.7051 26.0132 28.6327 26.1784C28.2425 27.0678 27.5985 28.2123 25.9555 29.1512C24.4389 30.0178 23.0247 30.5636 21.9871 30.964C21.6013 31.1129 21.2675 31.2417 21 31.3594C20.7425 31.4727 20.5559 31.5698 20.4233 31.6584C20.2894 31.748 20.2494 31.8036 20.241 31.8179C20.2409 31.818 20.2409 31.8181 20.2408 31.8182C20.2407 31.8219 20.2409 31.8288 20.2422 31.8395C20.2487 31.89 20.2794 32.004 20.3965 32.2031L20.3997 32.2085L20.3997 32.2085C22.9722 36.6677 25.8968 39.5201 28.3795 41.1101C29.6231 41.9066 30.7397 42.3762 31.6327 42.5822C32.5579 42.7957 33.1198 42.7006 33.3697 42.5536L33.3858 42.5444C34.1047 42.145 35.2167 40.6039 35.2167 37.7167C35.2167 37.3025 35.5525 36.9667 35.9667 36.9667C36.3809 36.9667 36.7167 37.3025 36.7167 37.7167C36.7167 40.8901 35.5 43.0801 34.122 43.8513C33.3809 44.2828 32.3569 44.2888 31.2954 44.0438C30.1978 43.7905 28.9228 43.2393 27.5705 42.3733C24.8621 40.6386 21.779 37.6001 19.1019 32.9608C18.7558 32.3713 18.5712 31.696 18.9491 31.0556C19.1139 30.7764 19.3519 30.5704 19.5895 30.4116C19.8283 30.2518 20.1065 30.1138 20.3959 29.9864C20.7507 29.8303 21.1414 29.6798 21.5675 29.5155C22.5833 29.1241 23.8003 28.6551 25.2112 27.8488C26.4849 27.121 26.9492 26.2822 27.259 25.5758C27.294 25.496 27.331 25.407 27.3699 25.3135C27.4864 25.0334 27.6198 24.7124 27.7682 24.4736C28.0136 24.0789 28.3951 23.7261 29.0154 23.6698C29.4279 23.6323 29.7927 23.9363 29.8303 24.3488Z" fill="#191C1E"/>
<path fill-rule="evenodd" clip-rule="evenodd" d="M31.2011 36.335C30.4555 36.1113 29.5841 36.5532 29.3402 37.4473C29.2312 37.8469 28.8189 38.0825 28.4193 37.9735C28.0197 37.8646 27.7841 37.4522 27.8931 37.0526C28.3492 35.3801 30.0445 34.422 31.6322 34.8983C32.0289 35.0173 32.254 35.4354 32.135 35.8321C32.016 36.2289 31.5979 36.454 31.2011 36.335Z" fill="#191C1E"/>
</svg>
