<svg width="49" height="48" viewBox="0 0 49 48" fill="none" xmlns="http://www.w3.org/2000/svg">
<rect x="1" y="0.5" width="47" height="47" rx="23.5" stroke="#C0C7CD"/>
<path d="M33.5 32H15.5C14.9696 32 14.4609 31.7893 14.0858 31.4142C13.7107 31.0391 13.5 30.5304 13.5 30V16H31.5V30C31.5 30.5304 31.7107 31.0391 32.0858 31.4142C32.4609 31.7893 32.9696 32 33.5 32Z" stroke="#191C1E" stroke-width="1.5" stroke-linecap="round" stroke-linejoin="round"/>
<path d="M31.5 22H35.5V30C35.5 30.5304 35.2893 31.0391 34.9142 31.4142C34.5391 31.7893 34.0304 32 33.5 32" stroke="#191C1E" stroke-width="1.5" stroke-linecap="round" stroke-linejoin="round"/>
<path d="M21.5 20H17.5V24H21.5V20Z" stroke="#191C1E" stroke-width="1.5" stroke-linecap="round" stroke-linejoin="round"/>
<path d="M25.5 20H27.5" stroke="#191C1E" stroke-width="1.5" stroke-linecap="round" stroke-linejoin="round"/>
<path d="M25.5 24H27.5" stroke="#191C1E" stroke-width="1.5" stroke-linecap="round" stroke-linejoin="round"/>
<path d="M17.5 28H27.5" stroke="#191C1E" stroke-width="1.5" stroke-linecap="round" stroke-linejoin="round"/>
</svg>
