<svg width="49" height="48" viewBox="0 0 49 48" fill="none" xmlns="http://www.w3.org/2000/svg">
<rect x="1" y="0.5" width="47" height="47" rx="23.5" stroke="#C0C7CD"/>
<g clip-path="url(#clip0_5149_43326)">
<path d="M22.5 23H22.51" stroke="#191C1E" stroke-width="1.5" stroke-linecap="round" stroke-linejoin="round"/>
<path d="M26.5 18H26.51" stroke="#191C1E" stroke-width="1.5" stroke-linecap="round" stroke-linejoin="round"/>
<path d="M30.5 18H30.51" stroke="#191C1E" stroke-width="1.5" stroke-linecap="round" stroke-linejoin="round"/>
<path d="M19 25.1H19.01" stroke="#191C1E" stroke-width="1.5" stroke-linecap="round" stroke-linejoin="round"/>
<path d="M35.5 14C35.5 23 30.5 29 28.5 29C26.5 29 22.5 23 22.5 14C22.5 12 25.5 14 28.5 14C32.5 14 35.5 12 35.5 14Z" stroke="#191C1E" stroke-width="1.5" stroke-linecap="round" stroke-linejoin="round"/>
<path d="M29.9 21.9C29.1 22.7 27.9 22.7 27.1 21.9" stroke="#191C1E" stroke-width="1.5" stroke-linecap="round" stroke-linejoin="round"/>
<path d="M22 17.5C20.9 17.6 21.5 19.5714 19 21C15.5 23 13 22.8 14 24.5C18.5 32.3 24.3 34.6 26 33.6C26.9 33.1 27.9 31.5 27.9 28.9" stroke="#191C1E" stroke-width="1.5" stroke-linecap="round" stroke-linejoin="round"/>
<path d="M21.6 28.5C21.9 27.4 23 26.8 24 27.1" stroke="#191C1E" stroke-width="1.5" stroke-linecap="round" stroke-linejoin="round"/>
</g>
<defs>
<clipPath id="clip0_5149_43326">
<rect width="24" height="24" fill="white" transform="translate(12.5 12)"/>
</clipPath>
</defs>
</svg>
