<svg width="49" height="48" viewBox="0 0 49 48" fill="none" xmlns="http://www.w3.org/2000/svg">
<rect x="1" y="0.5" width="47" height="47" rx="23.5" stroke="#C0C7CD"/>
<g clip-path="url(#clip0_5149_43313)">
<rect x="13.9327" y="16.0001" width="20.7059" height="16" rx="1.88235" stroke="#191C1E" stroke-width="1.5"/>
<path d="M19.5586 21.5681C19.5586 21.2153 19.6057 20.9057 19.6997 20.6392C19.7938 20.3726 19.9231 20.1492 20.0878 19.9689C20.2602 19.7808 20.4601 19.6397 20.6874 19.5456C20.9148 19.4516 21.1617 19.4045 21.4282 19.4045C21.6947 19.4045 21.9417 19.4516 22.169 19.5456C22.3963 19.6397 22.5923 19.7808 22.7569 19.9689C22.9294 20.1492 23.0626 20.3726 23.1567 20.6392C23.2508 20.9057 23.2978 21.2153 23.2978 21.5681C23.2978 21.9208 23.2508 22.2305 23.1567 22.497C23.0626 22.7635 22.9294 22.9908 22.7569 23.179C22.5923 23.3593 22.3963 23.4965 22.169 23.5905C21.9417 23.6846 21.6947 23.7316 21.4282 23.7316C21.1617 23.7316 20.9148 23.6846 20.6874 23.5905C20.4601 23.4965 20.2602 23.3593 20.0878 23.179C19.9231 22.9908 19.7938 22.7635 19.6997 22.497C19.6057 22.2305 19.5586 21.9208 19.5586 21.5681ZM22.3806 21.5681C22.3806 21.1448 22.2983 20.8155 22.1337 20.5804C21.9691 20.3374 21.7339 20.2159 21.4282 20.2159C21.1225 20.2159 20.8873 20.3374 20.7227 20.5804C20.5581 20.8155 20.4758 21.1448 20.4758 21.5681C20.4758 21.9914 20.5581 22.3245 20.7227 22.5675C20.8873 22.8027 21.1225 22.9203 21.4282 22.9203C21.7339 22.9203 21.9691 22.8027 22.1337 22.5675C22.2983 22.3245 22.3806 21.9914 22.3806 21.5681ZM24.7323 25.7423C24.7323 25.3896 24.7794 25.0799 24.8734 24.8134C24.9675 24.5469 25.0968 24.3235 25.2615 24.1432C25.4339 23.955 25.6338 23.8139 25.8611 23.7199C26.0885 23.6258 26.3354 23.5788 26.6019 23.5788C26.8684 23.5788 27.1154 23.6258 27.3427 23.7199C27.57 23.8139 27.766 23.955 27.9306 24.1432C28.1031 24.3235 28.2363 24.5469 28.3304 24.8134C28.4245 25.0799 28.4715 25.3896 28.4715 25.7423C28.4715 26.0951 28.4245 26.4047 28.3304 26.6712C28.2363 26.9378 28.1031 27.1651 27.9306 27.3532C27.766 27.5335 27.57 27.6707 27.3427 27.7648C27.1154 27.8588 26.8684 27.9059 26.6019 27.9059C26.3354 27.9059 26.0885 27.8588 25.8611 27.7648C25.6338 27.6707 25.4339 27.5335 25.2615 27.3532C25.0968 27.1651 24.9675 26.9378 24.8734 26.6712C24.7794 26.4047 24.7323 26.0951 24.7323 25.7423ZM27.5543 25.7423C27.5543 25.319 27.472 24.9898 27.3074 24.7546C27.1428 24.5116 26.9076 24.3901 26.6019 24.3901C26.2962 24.3901 26.061 24.5116 25.8964 24.7546C25.7318 24.9898 25.6495 25.319 25.6495 25.7423C25.6495 26.1656 25.7318 26.4988 25.8964 26.7418C26.061 26.977 26.2962 27.0945 26.6019 27.0945C26.9076 27.0945 27.1428 26.977 27.3074 26.7418C27.472 26.4988 27.5543 26.1656 27.5543 25.7423ZM26.8488 19.5809L22.2513 27.7295H21.1813L25.7788 19.5809H26.8488Z" fill="#191C1E"/>
<path d="M19.6997 20.6392L19.5583 20.5892L19.5583 20.5892L19.6997 20.6392ZM20.0878 19.9689L19.9772 19.8676L19.977 19.8678L20.0878 19.9689ZM20.6874 19.5456L20.6301 19.407L20.6301 19.407L20.6874 19.5456ZM22.169 19.5456L22.2263 19.407L22.2263 19.407L22.169 19.5456ZM22.7569 19.9689L22.6439 20.0678L22.6485 20.0726L22.7569 19.9689ZM23.1567 20.6392L23.0153 20.6891L23.0153 20.6891L23.1567 20.6392ZM23.1567 22.497L23.0153 22.4471L23.0153 22.4471L23.1567 22.497ZM22.7569 23.179L22.6463 23.0776L22.6461 23.0778L22.7569 23.179ZM22.169 23.5905L22.1116 23.4519L22.1116 23.4519L22.169 23.5905ZM20.6874 23.5905L20.7448 23.4519L20.7448 23.4519L20.6874 23.5905ZM20.0878 23.179L19.9748 23.2779L19.9794 23.2827L20.0878 23.179ZM19.6997 22.497L19.8412 22.4471L19.8412 22.4471L19.6997 22.497ZM22.1337 20.5804L22.0095 20.6645L22.0108 20.6664L22.1337 20.5804ZM20.7227 20.5804L20.8456 20.6664L20.8469 20.6645L20.7227 20.5804ZM20.7227 22.5675L20.5985 22.6517L20.5998 22.6536L20.7227 22.5675ZM22.1337 22.5675L22.2566 22.6536L22.2579 22.6517L22.1337 22.5675ZM24.8734 24.8134L25.0149 24.8633L25.0149 24.8633L24.8734 24.8134ZM25.2615 24.1432L25.1509 24.0418L25.1507 24.042L25.2615 24.1432ZM25.8611 23.7199L25.9185 23.8585L25.8611 23.7199ZM27.3427 23.7199L27.2853 23.8585L27.2853 23.8585L27.3427 23.7199ZM27.9306 24.1432L27.8176 24.242L27.8222 24.2469L27.9306 24.1432ZM28.3304 24.8134L28.4719 24.7635L28.4719 24.7635L28.3304 24.8134ZM28.3304 26.6712L28.4719 26.7212L28.4719 26.7212L28.3304 26.6712ZM27.9306 27.3532L27.82 27.2519L27.8198 27.2521L27.9306 27.3532ZM27.3427 27.7648L27.2853 27.6262L27.2853 27.6262L27.3427 27.7648ZM25.2615 27.3532L25.1485 27.4521L25.1531 27.4569L25.2615 27.3532ZM24.8734 26.6712L25.0149 26.6213L25.0149 26.6213L24.8734 26.6712ZM27.3074 24.7546L27.1832 24.8387L27.1845 24.8406L27.3074 24.7546ZM25.8964 24.7546L26.0193 24.8406L26.0206 24.8387L25.8964 24.7546ZM25.8964 26.7418L25.7722 26.8259L25.7735 26.8278L25.8964 26.7418ZM27.3074 26.7418L27.4303 26.8278L27.4316 26.8259L27.3074 26.7418ZM26.8488 19.5809L26.9795 19.6546L27.1057 19.4309H26.8488V19.5809ZM22.2513 27.7295V27.8795H22.3389L22.3819 27.8032L22.2513 27.7295ZM21.1813 27.7295L21.0506 27.6558L20.9244 27.8795H21.1813V27.7295ZM25.7788 19.5809V19.4309H25.6912L25.6482 19.5072L25.7788 19.5809ZM19.7086 21.5681C19.7086 21.2283 19.754 20.9362 19.8412 20.6891L19.5583 20.5892C19.4573 20.8752 19.4086 21.2024 19.4086 21.5681H19.7086ZM19.8412 20.6891C19.9296 20.4386 20.0494 20.2334 20.1985 20.0701L19.977 19.8678C19.7968 20.0651 19.658 20.3067 19.5583 20.5892L19.8412 20.6891ZM20.1983 20.0703C20.3565 19.8977 20.5385 19.7696 20.7448 19.6842L20.6301 19.407C20.3817 19.5098 20.1639 19.6639 19.9772 19.8676L20.1983 20.0703ZM20.7448 19.6842C20.9525 19.5983 21.1797 19.5545 21.4282 19.5545V19.2545C21.1437 19.2545 20.8771 19.3048 20.6301 19.407L20.7448 19.6842ZM21.4282 19.5545C21.6767 19.5545 21.904 19.5983 22.1116 19.6842L22.2263 19.407C21.9794 19.3048 21.7128 19.2545 21.4282 19.2545V19.5545ZM22.1116 19.6842C22.3173 19.7693 22.4944 19.8967 22.644 20.0677L22.8698 19.8702C22.6902 19.6649 22.4754 19.5101 22.2263 19.407L22.1116 19.6842ZM22.6485 20.0726C22.8044 20.2356 22.9273 20.44 23.0153 20.6891L23.2981 20.5892C23.1979 20.3053 23.0543 20.0628 22.8653 19.8653L22.6485 20.0726ZM23.0153 20.6891C23.1025 20.9362 23.1478 21.2283 23.1478 21.5681H23.4478C23.4478 21.2024 23.3991 20.8752 23.2981 20.5892L23.0153 20.6891ZM23.1478 21.5681C23.1478 21.9079 23.1025 22.2 23.0153 22.4471L23.2981 22.5469C23.3991 22.2609 23.4478 21.9338 23.4478 21.5681H23.1478ZM23.0153 22.4471C22.9272 22.6966 22.8037 22.9059 22.6463 23.0776L22.8675 23.2803C23.055 23.0758 23.1981 22.8304 23.2981 22.5469L23.0153 22.4471ZM22.6461 23.0778C22.4965 23.2418 22.3188 23.3662 22.1116 23.4519L22.2263 23.7291C22.4739 23.6267 22.6881 23.4768 22.8677 23.2801L22.6461 23.0778ZM22.1116 23.4519C21.904 23.5379 21.6767 23.5816 21.4282 23.5816V23.8816C21.7128 23.8816 21.9794 23.8313 22.2263 23.7291L22.1116 23.4519ZM21.4282 23.5816C21.1797 23.5816 20.9525 23.5379 20.7448 23.4519L20.6301 23.7291C20.8771 23.8313 21.1437 23.8816 21.4282 23.8816V23.5816ZM20.7448 23.4519C20.537 23.3659 20.3544 23.2408 20.1961 23.0753L19.9794 23.2827C20.166 23.4778 20.3832 23.627 20.6301 23.7291L20.7448 23.4519ZM20.2006 23.0802C20.0501 22.9081 19.9297 22.698 19.8412 22.4471L19.5583 22.5469C19.6579 22.8291 19.7962 23.0736 19.9749 23.2778L20.2006 23.0802ZM19.8412 22.4471C19.754 22.2 19.7086 21.9079 19.7086 21.5681H19.4086C19.4086 21.9338 19.4573 22.2609 19.5583 22.5469L19.8412 22.4471ZM22.5306 21.5681C22.5306 21.1279 22.4454 20.7641 22.2566 20.4944L22.0108 20.6664C22.1512 20.867 22.2306 21.1617 22.2306 21.5681H22.5306ZM22.2579 20.4962C22.064 20.21 21.7812 20.0659 21.4282 20.0659V20.3659C21.6866 20.3659 21.8742 20.4647 22.0095 20.6645L22.2579 20.4962ZM21.4282 20.0659C21.0752 20.0659 20.7924 20.21 20.5985 20.4962L20.8469 20.6645C20.9822 20.4647 21.1698 20.3659 21.4282 20.3659V20.0659ZM20.5998 20.4944C20.411 20.7641 20.3258 21.1279 20.3258 21.5681H20.6258C20.6258 21.1617 20.7052 20.867 20.8456 20.6664L20.5998 20.4944ZM20.3258 21.5681C20.3258 22.0087 20.4112 22.3751 20.5985 22.6517L20.8469 22.4834C20.705 22.274 20.6258 21.974 20.6258 21.5681H20.3258ZM20.5998 22.6536C20.7946 22.9318 21.0773 23.0703 21.4282 23.0703V22.7703C21.1677 22.7703 20.9801 22.6736 20.8456 22.4815L20.5998 22.6536ZM21.4282 23.0703C21.7791 23.0703 22.0618 22.9318 22.2566 22.6536L22.0108 22.4815C21.8764 22.6736 21.6887 22.7703 21.4282 22.7703V23.0703ZM22.2579 22.6517C22.4453 22.3751 22.5306 22.0087 22.5306 21.5681H22.2306C22.2306 21.974 22.1514 22.274 22.0095 22.4834L22.2579 22.6517ZM24.8823 25.7423C24.8823 25.4025 24.9277 25.1104 25.0149 24.8633L24.732 24.7635C24.631 25.0495 24.5823 25.3766 24.5823 25.7423H24.8823ZM25.0149 24.8633C25.1033 24.6128 25.2231 24.4076 25.3722 24.2443L25.1507 24.042C24.9705 24.2393 24.8317 24.481 24.732 24.7635L25.0149 24.8633ZM25.372 24.2445C25.5302 24.0719 25.7122 23.9438 25.9185 23.8585L25.8038 23.5813C25.5554 23.684 25.3376 23.8381 25.1509 24.0418L25.372 24.2445ZM25.9185 23.8585C26.1262 23.7725 26.3534 23.7288 26.6019 23.7288V23.4288C26.3174 23.4288 26.0508 23.4791 25.8038 23.5813L25.9185 23.8585ZM26.6019 23.7288C26.8504 23.7288 27.0777 23.7725 27.2853 23.8585L27.4001 23.5813C27.1531 23.4791 26.8865 23.4288 26.6019 23.4288V23.7288ZM27.2853 23.8585C27.491 23.9436 27.6681 24.0709 27.8177 24.2419L28.0435 24.0444C27.8639 23.8392 27.6491 23.6843 27.4001 23.5813L27.2853 23.8585ZM27.8222 24.2469C27.9781 24.4099 28.101 24.6142 28.189 24.8633L28.4719 24.7635C28.3716 24.4796 28.228 24.2371 28.039 24.0395L27.8222 24.2469ZM28.189 24.8633C28.2762 25.1104 28.3215 25.4025 28.3215 25.7423H28.6215C28.6215 25.3766 28.5728 25.0495 28.4719 24.7635L28.189 24.8633ZM28.3215 25.7423C28.3215 26.0821 28.2762 26.3742 28.189 26.6213L28.4719 26.7212C28.5728 26.4352 28.6215 26.108 28.6215 25.7423H28.3215ZM28.189 26.6213C28.1009 26.8708 27.9775 27.0801 27.82 27.2519L28.0412 27.4546C28.2287 27.25 28.3718 27.0047 28.4719 26.7212L28.189 26.6213ZM27.8198 27.2521C27.6702 27.416 27.4925 27.5404 27.2853 27.6262L27.4001 27.9034C27.6476 27.801 27.8618 27.651 28.0414 27.4544L27.8198 27.2521ZM27.2853 27.6262C27.0777 27.7121 26.8504 27.7559 26.6019 27.7559V28.0559C26.8865 28.0559 27.1531 28.0056 27.4001 27.9034L27.2853 27.6262ZM26.6019 27.7559C26.3534 27.7559 26.1262 27.7121 25.9185 27.6262L25.8038 27.9034C26.0508 28.0056 26.3174 28.0559 26.6019 28.0559V27.7559ZM25.9185 27.6262C25.7107 27.5402 25.5281 27.415 25.3699 27.2495L25.1531 27.4569C25.3397 27.652 25.5569 27.8012 25.8038 27.9034L25.9185 27.6262ZM25.3743 27.2544C25.2238 27.0824 25.1034 26.8722 25.0149 26.6213L24.732 26.7212C24.8316 27.0033 24.9699 27.2478 25.1486 27.452L25.3743 27.2544ZM25.0149 26.6213C24.9277 26.3742 24.8823 26.0821 24.8823 25.7423H24.5823C24.5823 26.108 24.631 26.4352 24.732 26.7212L25.0149 26.6213ZM27.7043 25.7423C27.7043 25.3021 27.6191 24.9383 27.4303 24.6686L27.1845 24.8406C27.3249 25.0412 27.4043 25.3359 27.4043 25.7423H27.7043ZM27.4316 24.6705C27.2377 24.3843 26.9549 24.2401 26.6019 24.2401V24.5401C26.8603 24.5401 27.0479 24.6389 27.1832 24.8387L27.4316 24.6705ZM26.6019 24.2401C26.2489 24.2401 25.9661 24.3843 25.7722 24.6705L26.0206 24.8387C26.156 24.6389 26.3435 24.5401 26.6019 24.5401V24.2401ZM25.7735 24.6686C25.5847 24.9383 25.4995 25.3021 25.4995 25.7423H25.7995C25.7995 25.3359 25.8789 25.0412 26.0193 24.8406L25.7735 24.6686ZM25.4995 25.7423C25.4995 26.183 25.5849 26.5493 25.7722 26.8259L26.0206 26.6577C25.8787 26.4482 25.7995 26.1483 25.7995 25.7423H25.4995ZM25.7735 26.8278C25.9683 27.1061 26.251 27.2445 26.6019 27.2445V26.9445C26.3414 26.9445 26.1538 26.8479 26.0193 26.6558L25.7735 26.8278ZM26.6019 27.2445C26.9528 27.2445 27.2355 27.1061 27.4303 26.8278L27.1845 26.6558C27.0501 26.8479 26.8624 26.9445 26.6019 26.9445V27.2445ZM27.4316 26.8259C27.619 26.5493 27.7043 26.183 27.7043 25.7423H27.4043C27.4043 26.1483 27.3251 26.4482 27.1832 26.6577L27.4316 26.8259ZM26.7182 19.5072L22.1207 27.6558L22.3819 27.8032L26.9795 19.6546L26.7182 19.5072ZM22.2513 27.5795H21.1813V27.8795H22.2513V27.5795ZM21.3119 27.8032L25.9095 19.6546L25.6482 19.5072L21.0506 27.6558L21.3119 27.8032ZM25.7788 19.7309H26.8488V19.4309H25.7788V19.7309Z" fill="#191C1E"/>
</g>
<defs>
<clipPath id="clip0_5149_43313">
<rect width="24" height="24" fill="white" transform="translate(12.5 12)"/>
</clipPath>
</defs>
</svg>
